%TF.GenerationSoftware,Altium Limited,Altium Designer,24.1.2 (44)*%
G04 Layer_Color=0*
%FSLAX45Y45*%
%MOMM*%
%TF.SameCoordinates,257A8DD5-596B-45CF-B8F4-21FB4E0B7711*%
%TF.FilePolarity,Positive*%
%TF.FileFunction,Plated,1,2,PTH,Drill*%
%TF.Part,Single*%
G01*
G75*
%TA.AperFunction,ComponentDrill*%
%ADD67O,1.60000X0.60000*%
%ADD68O,1.90000X0.60000*%
%ADD69C,1.10000*%
%TA.AperFunction,OtherDrill,Pad Free-2 (120.775mm,95.331mm)*%
%ADD70C,3.10000*%
%TA.AperFunction,OtherDrill,Pad Free-2 (89.787mm,95.458mm)*%
%ADD71C,3.10000*%
%TA.AperFunction,OtherDrill,Pad Free-2 (89.787mm,64.343mm)*%
%ADD72C,3.10000*%
%TA.AperFunction,OtherDrill,Pad Free-2 (120.902mm,64.343mm)*%
%ADD73C,3.10000*%
%TA.AperFunction,ViaDrill,NotFilled*%
%ADD74C,0.30000*%
%ADD75C,0.40000*%
%ADD76C,0.20000*%
D67*
X11711200Y7653500D02*
D03*
X11711200Y8517500D02*
D03*
D68*
X12093700Y7653500D02*
D03*
Y8517500D02*
D03*
D69*
X11671300Y9436100D02*
D03*
X11417300D02*
D03*
X11163300D02*
D03*
X10909300D02*
D03*
D70*
X12077500Y9533100D02*
D03*
D71*
X8978700Y9545800D02*
D03*
D72*
Y6434300D02*
D03*
D73*
X12090200D02*
D03*
D74*
X9791700Y7289800D02*
D03*
X9372600Y7543800D02*
D03*
X9829800Y8026400D02*
D03*
X12178765Y8411132D02*
D03*
X12026365D02*
D03*
X12102565D02*
D03*
X11480800Y8902700D02*
D03*
Y8978900D02*
D03*
Y9055100D02*
D03*
X12204700Y8051800D02*
D03*
X12105959Y8055113D02*
D03*
X12005959D02*
D03*
X11561827Y7647179D02*
D03*
X10947400Y8991600D02*
D03*
X9185062Y7756495D02*
D03*
X9271000Y7696200D02*
D03*
X11100945Y6550406D02*
D03*
X10739167Y6896802D02*
D03*
X10893733Y6893852D02*
D03*
X11072961Y7559975D02*
D03*
X10553700Y6756400D02*
D03*
X9740670Y7497253D02*
D03*
X9639300Y8026400D02*
D03*
X12136810Y8784445D02*
D03*
X11641644Y8619870D02*
D03*
X11766495D02*
D03*
X11587227Y8396479D02*
D03*
X11638436Y7552641D02*
D03*
X11587227Y7774179D02*
D03*
X11899900Y8255000D02*
D03*
X11989212Y8786837D02*
D03*
X10439982Y8114718D02*
D03*
X10504982Y8065942D02*
D03*
X10704911Y8289134D02*
D03*
X10972800Y8180700D02*
D03*
Y8100700D02*
D03*
X11445845Y8140141D02*
D03*
X11087100Y8496300D02*
D03*
X12003100Y7759700D02*
D03*
X12103100D02*
D03*
X12201841Y7756387D02*
D03*
X10970272Y7668128D02*
D03*
X11069353Y7861367D02*
D03*
X9598617Y8812088D02*
D03*
X10143700Y9218000D02*
D03*
X10678700Y9123000D02*
D03*
X10283700Y8943000D02*
D03*
X10017450Y8826750D02*
D03*
X9231200Y8878000D02*
D03*
X10201200Y8728000D02*
D03*
X9448800Y8267700D02*
D03*
X9677400Y8331200D02*
D03*
X9578700Y8423000D02*
D03*
Y8543000D02*
D03*
X10348700Y7450500D02*
D03*
X10028700Y6953000D02*
D03*
X12093700Y8225500D02*
D03*
Y7945500D02*
D03*
X11633700Y7255500D02*
D03*
X11636200Y7483000D02*
D03*
X10458700Y6900500D02*
D03*
X10113700Y7495500D02*
D03*
X10203700D02*
D03*
X10588700Y7145500D02*
D03*
X10185200Y8009500D02*
D03*
X9181200Y8780500D02*
D03*
X10338700Y8695500D02*
D03*
X9558700Y8970500D02*
D03*
X9928700Y6778000D02*
D03*
X9941200Y6950500D02*
D03*
X11721200Y6473000D02*
D03*
Y6393000D02*
D03*
X11816200D02*
D03*
Y6473000D02*
D03*
Y6555500D02*
D03*
X9311200Y9413000D02*
D03*
X10866200Y8698000D02*
D03*
X10838700Y7688000D02*
D03*
X11403700Y7248000D02*
D03*
X11021200Y8690500D02*
D03*
X11716787Y6553587D02*
D03*
X12079822Y6843341D02*
D03*
X12141067Y7369214D02*
D03*
D75*
X10756900Y9309100D02*
D03*
X9396077Y6736776D02*
D03*
X11153700Y6850500D02*
D03*
D76*
X9753700Y9235500D02*
D03*
Y9125500D02*
D03*
X9863700D02*
D03*
Y9235500D02*
D03*
%TF.MD5,e761812125bf684b7feac976dbda7fcc*%
M02*
