%TF.GenerationSoftware,Altium Limited,Altium Designer,24.1.2 (44)*%
G04 Layer_Color=8388736*
%FSLAX45Y45*%
%MOMM*%
%TF.SameCoordinates,257A8DD5-596B-45CF-B8F4-21FB4E0B7711*%
%TF.FilePolarity,Negative*%
%TF.FileFunction,Soldermask,Top*%
%TF.Part,Single*%
G01*
G75*
%TA.AperFunction,SMDPad,CuDef*%
%ADD10R,0.65000X0.25000*%
%ADD11R,1.27000X2.10000*%
%ADD12R,3.81000X1.06680*%
%ADD13R,0.91440X1.06680*%
%TA.AperFunction,ConnectorPad*%
%ADD14R,1.00000X0.52000*%
%ADD15R,1.00000X0.27000*%
%ADD16R,2.00000X1.00000*%
%TA.AperFunction,SMDPad,CuDef*%
%ADD17R,0.84000X0.84000*%
%ADD18R,0.90000X0.84000*%
%ADD19R,0.80000X1.20000*%
G04:AMPARAMS|DCode=20|XSize=0.8mm|YSize=1mm|CornerRadius=0.1mm|HoleSize=0mm|Usage=FLASHONLY|Rotation=90.000|XOffset=0mm|YOffset=0mm|HoleType=Round|Shape=RoundedRectangle|*
%AMROUNDEDRECTD20*
21,1,0.80000,0.80000,0,0,90.0*
21,1,0.60000,1.00000,0,0,90.0*
1,1,0.20000,0.40000,0.30000*
1,1,0.20000,0.40000,-0.30000*
1,1,0.20000,-0.40000,-0.30000*
1,1,0.20000,-0.40000,0.30000*
%
%ADD20ROUNDEDRECTD20*%
G04:AMPARAMS|DCode=21|XSize=0.8mm|YSize=1mm|CornerRadius=0.1mm|HoleSize=0mm|Usage=FLASHONLY|Rotation=0.000|XOffset=0mm|YOffset=0mm|HoleType=Round|Shape=RoundedRectangle|*
%AMROUNDEDRECTD21*
21,1,0.80000,0.80000,0,0,0.0*
21,1,0.60000,1.00000,0,0,0.0*
1,1,0.20000,0.30000,-0.40000*
1,1,0.20000,-0.30000,-0.40000*
1,1,0.20000,-0.30000,0.40000*
1,1,0.20000,0.30000,0.40000*
%
%ADD21ROUNDEDRECTD21*%
%ADD22O,1.55000X0.25000*%
%ADD23O,0.25000X1.55000*%
%ADD24R,1.98000X0.53000*%
%ADD25R,0.35000X0.80000*%
%ADD27R,2.60000X2.70000*%
G04:AMPARAMS|DCode=28|XSize=1.3mm|YSize=1.1mm|CornerRadius=0.055mm|HoleSize=0mm|Usage=FLASHONLY|Rotation=270.000|XOffset=0mm|YOffset=0mm|HoleType=Round|Shape=RoundedRectangle|*
%AMROUNDEDRECTD28*
21,1,1.30000,0.99000,0,0,270.0*
21,1,1.19000,1.10000,0,0,270.0*
1,1,0.11000,-0.49500,-0.59500*
1,1,0.11000,-0.49500,0.59500*
1,1,0.11000,0.49500,0.59500*
1,1,0.11000,0.49500,-0.59500*
%
%ADD28ROUNDEDRECTD28*%
%ADD29R,0.97790X0.55880*%
%TA.AperFunction,ConnectorPad*%
%ADD30R,0.60000X1.55000*%
%ADD31R,1.20000X1.80000*%
%TA.AperFunction,ComponentPad*%
G04:AMPARAMS|DCode=44|XSize=1.3mm|YSize=2.3mm|CornerRadius=0.65mm|HoleSize=0mm|Usage=FLASHONLY|Rotation=90.000|XOffset=0mm|YOffset=0mm|HoleType=Round|Shape=RoundedRectangle|*
%AMROUNDEDRECTD44*
21,1,1.30000,1.00000,0,0,90.0*
21,1,0.00000,2.30000,0,0,90.0*
1,1,1.30000,0.50000,0.00000*
1,1,1.30000,0.50000,0.00000*
1,1,1.30000,-0.50000,0.00000*
1,1,1.30000,-0.50000,0.00000*
%
%ADD44ROUNDEDRECTD44*%
G04:AMPARAMS|DCode=45|XSize=1.3mm|YSize=2.6mm|CornerRadius=0.65mm|HoleSize=0mm|Usage=FLASHONLY|Rotation=90.000|XOffset=0mm|YOffset=0mm|HoleType=Round|Shape=RoundedRectangle|*
%AMROUNDEDRECTD45*
21,1,1.30000,1.30000,0,0,90.0*
21,1,0.00000,2.60000,0,0,90.0*
1,1,1.30000,0.65000,0.00000*
1,1,1.30000,0.65000,0.00000*
1,1,1.30000,-0.65000,0.00000*
1,1,1.30000,-0.65000,0.00000*
%
%ADD45ROUNDEDRECTD45*%
%ADD46C,0.60000*%
G04:AMPARAMS|DCode=47|XSize=0.85mm|YSize=0.6mm|CornerRadius=0.3mm|HoleSize=0mm|Usage=FLASHONLY|Rotation=90.000|XOffset=0mm|YOffset=0mm|HoleType=Round|Shape=RoundedRectangle|*
%AMROUNDEDRECTD47*
21,1,0.85000,0.00000,0,0,90.0*
21,1,0.25000,0.60000,0,0,90.0*
1,1,0.60000,0.00000,0.12500*
1,1,0.60000,0.00000,-0.12500*
1,1,0.60000,0.00000,-0.12500*
1,1,0.60000,0.00000,0.12500*
%
%ADD47ROUNDEDRECTD47*%
%ADD48R,1.60000X1.60000*%
%ADD49C,1.60000*%
%TA.AperFunction,SMDPad,CuDef*%
%ADD62R,1.05320X0.55320*%
%TA.AperFunction,ViaPad*%
%ADD63C,1.72720*%
D10*
X11026900Y9028900D02*
D03*
Y8978900D02*
D03*
Y8928900D02*
D03*
X11121900D02*
D03*
Y8978900D02*
D03*
Y9028900D02*
D03*
D11*
X11768200Y8978900D02*
D03*
X11371200D02*
D03*
D12*
X11403700Y6703500D02*
D03*
D13*
X11174700Y7362500D02*
D03*
X11403700D02*
D03*
X11632700D02*
D03*
D14*
X11673700Y7775500D02*
D03*
Y7850500D02*
D03*
Y8320500D02*
D03*
Y8395500D02*
D03*
D15*
Y7910500D02*
D03*
Y7960500D02*
D03*
Y8010500D02*
D03*
Y8060500D02*
D03*
Y8110500D02*
D03*
Y8160500D02*
D03*
Y8210500D02*
D03*
Y8260500D02*
D03*
D16*
X12093700Y7945500D02*
D03*
Y8225500D02*
D03*
D17*
X9605173Y7075337D02*
D03*
X9699173Y7275337D02*
D03*
D18*
X9793173Y7075337D02*
D03*
D19*
X9363700Y8263000D02*
D03*
Y8963000D02*
D03*
D20*
X9181579Y7979555D02*
D03*
Y7829555D02*
D03*
X9823700Y7795500D02*
D03*
Y7945500D02*
D03*
Y7495500D02*
D03*
Y7645500D02*
D03*
X10141200Y8975500D02*
D03*
Y8825500D02*
D03*
X11911200Y6935500D02*
D03*
Y7085500D02*
D03*
X10466200Y6650500D02*
D03*
Y6500500D02*
D03*
X10886200Y6650500D02*
D03*
Y6500500D02*
D03*
X10416200Y9048000D02*
D03*
Y9198000D02*
D03*
X9161200Y9158000D02*
D03*
Y9308000D02*
D03*
X9083700Y8840500D02*
D03*
Y8690500D02*
D03*
X10136200Y7400500D02*
D03*
Y7250500D02*
D03*
X10136200Y6950500D02*
D03*
Y7100500D02*
D03*
X12078700Y7085500D02*
D03*
Y6935500D02*
D03*
X10316200Y6500500D02*
D03*
Y6650500D02*
D03*
X10736200Y6500500D02*
D03*
Y6650500D02*
D03*
X10588700Y9200500D02*
D03*
Y9050500D02*
D03*
D21*
X9521445Y7630106D02*
D03*
X9371445D02*
D03*
X9076200Y8985500D02*
D03*
X9226200D02*
D03*
X10890306Y6807147D02*
D03*
X10740306D02*
D03*
X11301200Y7558000D02*
D03*
X11151200D02*
D03*
X11476200Y6550500D02*
D03*
X11626200D02*
D03*
X11326200D02*
D03*
X11176200D02*
D03*
X10308700Y6808000D02*
D03*
X10458700D02*
D03*
X10818700Y7575500D02*
D03*
X10968700D02*
D03*
X10051200Y8628000D02*
D03*
X10201200D02*
D03*
X10871200Y8428000D02*
D03*
X11021200D02*
D03*
X9831200Y8568000D02*
D03*
X9681200D02*
D03*
X9831200Y8418000D02*
D03*
X9681200D02*
D03*
X10871200Y8588000D02*
D03*
X11021200D02*
D03*
X9461200Y9155500D02*
D03*
X9311200D02*
D03*
X9461200Y9298000D02*
D03*
X9311200D02*
D03*
X9831200Y8810500D02*
D03*
X9681200D02*
D03*
X11989800Y7475700D02*
D03*
X12139800D02*
D03*
X11989800Y8694900D02*
D03*
X12139800D02*
D03*
X10426200Y8833000D02*
D03*
X10276200D02*
D03*
X11301600Y7856700D02*
D03*
X11151600D02*
D03*
D22*
X10024000Y8309500D02*
D03*
Y8259500D02*
D03*
Y8209500D02*
D03*
Y8159500D02*
D03*
Y8109500D02*
D03*
Y8059500D02*
D03*
Y8009500D02*
D03*
Y7959500D02*
D03*
Y7909500D02*
D03*
Y7859500D02*
D03*
Y7809500D02*
D03*
Y7759500D02*
D03*
X10829000D02*
D03*
Y7809500D02*
D03*
Y7859500D02*
D03*
Y7909500D02*
D03*
Y7959500D02*
D03*
Y8009500D02*
D03*
Y8059500D02*
D03*
Y8109500D02*
D03*
Y8159500D02*
D03*
Y8209500D02*
D03*
Y8259500D02*
D03*
Y8309500D02*
D03*
D23*
X10151500Y7632000D02*
D03*
X10201500D02*
D03*
X10251500D02*
D03*
X10301500D02*
D03*
X10351500D02*
D03*
X10401500D02*
D03*
X10451500D02*
D03*
X10501500D02*
D03*
X10551500D02*
D03*
X10601500D02*
D03*
X10651500D02*
D03*
X10701500D02*
D03*
Y8437000D02*
D03*
X10651500D02*
D03*
X10601500D02*
D03*
X10551500D02*
D03*
X10501500D02*
D03*
X10451500D02*
D03*
X10401500D02*
D03*
X10351500D02*
D03*
X10301500D02*
D03*
X10251500D02*
D03*
X10201500D02*
D03*
X10151500D02*
D03*
D24*
X10842330Y6988209D02*
D03*
Y7115209D02*
D03*
Y7242208D02*
D03*
Y7369209D02*
D03*
X10349330D02*
D03*
Y7242208D02*
D03*
Y7115209D02*
D03*
Y6988209D02*
D03*
D25*
X9933700Y9380500D02*
D03*
X9883700D02*
D03*
X9833700D02*
D03*
X9783700D02*
D03*
X9733700D02*
D03*
X9683700D02*
D03*
X9933700Y8980500D02*
D03*
X9883700D02*
D03*
X9833700D02*
D03*
X9783700D02*
D03*
X9733700D02*
D03*
X9683700D02*
D03*
D27*
X9808700Y9180500D02*
D03*
D28*
X9543800Y8014400D02*
D03*
X9353800D02*
D03*
X9543800Y7784400D02*
D03*
X9353800D02*
D03*
D29*
X11090275Y8045700D02*
D03*
Y8140700D02*
D03*
Y8235700D02*
D03*
X11363325D02*
D03*
Y8140700D02*
D03*
Y8045700D02*
D03*
D30*
X9849173Y6736275D02*
D03*
X9749173D02*
D03*
X9649173D02*
D03*
X9549173D02*
D03*
D31*
X9419173Y6348775D02*
D03*
X9979173D02*
D03*
D44*
X11711200Y7653500D02*
D03*
X11711200Y8517500D02*
D03*
D45*
X12093700Y7653500D02*
D03*
Y8517500D02*
D03*
D46*
X11783700Y7785501D02*
D03*
D47*
Y8385500D02*
D03*
D48*
X11671300Y9436100D02*
D03*
D49*
X11417300D02*
D03*
X11163300D02*
D03*
X10909300D02*
D03*
D62*
X9611200Y9305500D02*
D03*
Y9255500D02*
D03*
Y9205500D02*
D03*
Y9155500D02*
D03*
Y9105500D02*
D03*
Y9055500D02*
D03*
X10006200Y9305500D02*
D03*
Y9255500D02*
D03*
Y9205500D02*
D03*
Y9155500D02*
D03*
Y9105500D02*
D03*
Y9055500D02*
D03*
D63*
X12077500Y9533100D02*
D03*
X8978700Y9545800D02*
D03*
Y6434300D02*
D03*
X12090200D02*
D03*
%TF.MD5,3d5c977ab95b57e86a45e7ffa356f248*%
M02*
