%TF.GenerationSoftware,Altium Limited,Altium Designer,24.1.2 (44)*%
G04 Layer_Color=0*
%FSLAX45Y45*%
%MOMM*%
%TF.SameCoordinates,480B7A5E-9FD5-4732-A4F6-FD879BEA9CF3*%
%TF.FilePolarity,Positive*%
%TF.FileFunction,Plated,1,2,PTH,Drill*%
%TF.Part,Single*%
G01*
G75*
%TA.AperFunction,OtherDrill,Pad Free-3 (119.888mm,81.81mm)*%
%ADD50C,3.10000*%
%TA.AperFunction,ComponentDrill*%
%ADD51C,1.10000*%
%TA.AperFunction,OtherDrill,Pad Free-3 (74.76mm,81.81mm)*%
%ADD52C,3.10000*%
%TA.AperFunction,ViaDrill,NotFilled*%
%ADD53C,0.30000*%
%ADD54C,0.40000*%
D50*
X11988800Y8181000D02*
D03*
D51*
X8178800Y9093200D02*
D03*
X8432800D02*
D03*
X8686800D02*
D03*
X8940800D02*
D03*
D52*
X7475961Y8181039D02*
D03*
D53*
X8423584Y8820790D02*
D03*
X8736421Y8827803D02*
D03*
X8862559Y8777163D02*
D03*
X8928459Y8731138D02*
D03*
X8648700Y8826500D02*
D03*
X10185400Y8902700D02*
D03*
X9258948Y8744760D02*
D03*
X8839616Y8980779D02*
D03*
X9918700Y9004300D02*
D03*
Y9080500D02*
D03*
Y9156700D02*
D03*
X9579600Y7420600D02*
D03*
X10210800Y7432600D02*
D03*
X10213300Y7287600D02*
D03*
X8155800Y7815100D02*
D03*
X10410800Y7432600D02*
D03*
X10025800Y7945100D02*
D03*
X9928300Y7700100D02*
D03*
X9335800Y7717600D02*
D03*
X10180693Y8582984D02*
D03*
X10425375Y8534452D02*
D03*
X10750600Y9128900D02*
D03*
X11228300Y8522600D02*
D03*
X11230800Y8065100D02*
D03*
X10893300Y7890100D02*
D03*
X11263300Y7577600D02*
D03*
X9728300Y7180100D02*
D03*
X8163300Y7677600D02*
D03*
X8190800Y7612600D02*
D03*
X9123300Y7930100D02*
D03*
X8675800Y8495100D02*
D03*
X9562350Y8362600D02*
D03*
X9568300Y8225100D02*
D03*
Y7957600D02*
D03*
X9790800Y8432600D02*
D03*
X9873300Y8285100D02*
D03*
X9708300D02*
D03*
X9790800Y8130100D02*
D03*
X9793300Y8285100D02*
D03*
X10003300Y7767600D02*
D03*
X10028300Y7852600D02*
D03*
X9424250Y8292600D02*
D03*
X9424109Y8372600D02*
D03*
X9427533Y8453638D02*
D03*
X9168300Y8442600D02*
D03*
X9468462Y8527409D02*
D03*
X9873300Y8432600D02*
D03*
X9095800Y7662600D02*
D03*
X8705800D02*
D03*
X10330800Y8442600D02*
D03*
X10178300Y7950100D02*
D03*
X10248300Y7895100D02*
D03*
X9338300Y7797600D02*
D03*
X10608300Y7410100D02*
D03*
X10655800Y7487600D02*
D03*
X9080800Y8197600D02*
D03*
X9578300Y7670100D02*
D03*
X9154962Y8167600D02*
D03*
X9093300Y8310100D02*
D03*
X9823912Y7900122D02*
D03*
X8225800Y7145100D02*
D03*
X8363300Y8245100D02*
D03*
X8625800Y8102600D02*
D03*
X8635800Y7992600D02*
D03*
X7970800Y7227600D02*
D03*
X10410600Y9126400D02*
D03*
X11225800Y8287600D02*
D03*
X9140800Y7120100D02*
D03*
X8240800Y8742600D02*
D03*
X8238300Y8600100D02*
D03*
X7968300Y8470100D02*
D03*
X7910800Y8142601D02*
D03*
X7565800Y7840100D02*
D03*
X7555800Y8462600D02*
D03*
X10053300Y8712600D02*
D03*
X10103300Y8647600D02*
D03*
D54*
X10588300D02*
D03*
X10460799Y8305100D02*
D03*
X10845800D02*
D03*
%TF.MD5,9823bad7b9e86d3e5cc18113917b5fe3*%
M02*
