%TF.GenerationSoftware,Altium Limited,Altium Designer,24.1.2 (44)*%
G04 Layer_Color=8421504*
%FSLAX45Y45*%
%MOMM*%
%TF.SameCoordinates,480B7A5E-9FD5-4732-A4F6-FD879BEA9CF3*%
%TF.FilePolarity,Positive*%
%TF.FileFunction,Paste,Top*%
%TF.Part,Single*%
G01*
G75*
%TA.AperFunction,SMDPad,CuDef*%
%ADD11C,0.45000*%
%TA.AperFunction,BGAPad,CuDef*%
%ADD12R,0.50000X0.50000*%
%TA.AperFunction,SMDPad,CuDef*%
%ADD13R,0.65000X0.25000*%
%ADD14R,1.27000X2.10000*%
%ADD15R,1.20000X1.70000*%
G04:AMPARAMS|DCode=16|XSize=0.8mm|YSize=1mm|CornerRadius=0.1mm|HoleSize=0mm|Usage=FLASHONLY|Rotation=270.000|XOffset=0mm|YOffset=0mm|HoleType=Round|Shape=RoundedRectangle|*
%AMROUNDEDRECTD16*
21,1,0.80000,0.80000,0,0,270.0*
21,1,0.60000,1.00000,0,0,270.0*
1,1,0.20000,-0.40000,-0.30000*
1,1,0.20000,-0.40000,0.30000*
1,1,0.20000,0.40000,0.30000*
1,1,0.20000,0.40000,-0.30000*
%
%ADD16ROUNDEDRECTD16*%
G04:AMPARAMS|DCode=17|XSize=0.8mm|YSize=1mm|CornerRadius=0.1mm|HoleSize=0mm|Usage=FLASHONLY|Rotation=180.000|XOffset=0mm|YOffset=0mm|HoleType=Round|Shape=RoundedRectangle|*
%AMROUNDEDRECTD17*
21,1,0.80000,0.80000,0,0,180.0*
21,1,0.60000,1.00000,0,0,180.0*
1,1,0.20000,-0.30000,0.40000*
1,1,0.20000,0.30000,0.40000*
1,1,0.20000,0.30000,-0.40000*
1,1,0.20000,-0.30000,-0.40000*
%
%ADD17ROUNDEDRECTD17*%
%ADD18R,0.60000X1.55000*%
%ADD19R,1.20000X1.80000*%
%ADD20O,1.55000X0.25000*%
%ADD21O,0.25000X1.55000*%
%ADD22R,1.10000X1.00000*%
%ADD23R,1.10000X3.18213*%
%ADD24R,1.98000X0.53000*%
%ADD25R,0.84000X0.84000*%
%ADD26R,0.84000X0.90000*%
G04:AMPARAMS|DCode=27|XSize=1.3mm|YSize=1.1mm|CornerRadius=0.055mm|HoleSize=0mm|Usage=FLASHONLY|Rotation=0.000|XOffset=0mm|YOffset=0mm|HoleType=Round|Shape=RoundedRectangle|*
%AMROUNDEDRECTD27*
21,1,1.30000,0.99000,0,0,0.0*
21,1,1.19000,1.10000,0,0,0.0*
1,1,0.11000,0.59500,-0.49500*
1,1,0.11000,-0.59500,-0.49500*
1,1,0.11000,-0.59500,0.49500*
1,1,0.11000,0.59500,0.49500*
%
%ADD27ROUNDEDRECTD27*%
%TA.AperFunction,ConnectorPad*%
G04:AMPARAMS|DCode=28|XSize=0.8mm|YSize=1mm|CornerRadius=0.1mm|HoleSize=0mm|Usage=FLASHONLY|Rotation=90.000|XOffset=0mm|YOffset=0mm|HoleType=Round|Shape=RoundedRectangle|*
%AMROUNDEDRECTD28*
21,1,0.80000,0.80000,0,0,90.0*
21,1,0.60000,1.00000,0,0,90.0*
1,1,0.20000,0.40000,0.30000*
1,1,0.20000,0.40000,-0.30000*
1,1,0.20000,-0.40000,-0.30000*
1,1,0.20000,-0.40000,0.30000*
%
%ADD28ROUNDEDRECTD28*%
G36*
X9989800Y8213100D02*
X9981800D01*
Y8188100D01*
X9931800D01*
Y8238100D01*
X9989800D01*
Y8213100D01*
D02*
G37*
D11*
X9956800D02*
D03*
D12*
Y8293100D02*
D03*
X9636800D02*
D03*
X9956800Y8373100D02*
D03*
X9876800D02*
D03*
X9796800D02*
D03*
X9716800D02*
D03*
X9636800D02*
D03*
Y8213100D02*
D03*
X9716800D02*
D03*
X9796800D02*
D03*
X9876800D02*
D03*
D13*
X9020300Y8914600D02*
D03*
Y8864600D02*
D03*
Y8814600D02*
D03*
X9115300D02*
D03*
Y8864600D02*
D03*
Y8914600D02*
D03*
D14*
X9402700Y9080500D02*
D03*
X9799700D02*
D03*
D15*
X7928300Y7610100D02*
D03*
X8348300D02*
D03*
D16*
X8075800Y8317600D02*
D03*
Y8467600D02*
D03*
X8255800Y8320100D02*
D03*
Y8470100D02*
D03*
X11128300Y8367600D02*
D03*
Y8517600D02*
D03*
Y8217600D02*
D03*
Y8067600D02*
D03*
X9493300Y7815100D02*
D03*
Y7665100D02*
D03*
X9658300Y7815100D02*
D03*
Y7665100D02*
D03*
X10178300Y8187600D02*
D03*
Y8037600D02*
D03*
X10178300Y8340100D02*
D03*
Y8490100D02*
D03*
X10515600Y8978900D02*
D03*
Y9128900D02*
D03*
X10875600Y8978900D02*
D03*
Y9128900D02*
D03*
X9893300Y8522600D02*
D03*
Y8672600D02*
D03*
X9730800Y8520100D02*
D03*
Y8670100D02*
D03*
X9825800Y7815100D02*
D03*
Y7665100D02*
D03*
X9338300Y7175100D02*
D03*
Y7325100D02*
D03*
Y7627600D02*
D03*
Y7477600D02*
D03*
X10648100Y8976400D02*
D03*
Y9126400D02*
D03*
X11005600Y8976400D02*
D03*
Y9126400D02*
D03*
X11330600Y8978900D02*
D03*
Y9128900D02*
D03*
D17*
X8075800Y7235100D02*
D03*
X8225800D02*
D03*
X10643300Y7892600D02*
D03*
X10793300D02*
D03*
X10490800D02*
D03*
X10340801D02*
D03*
X9480800Y7177600D02*
D03*
X9630800D02*
D03*
X8478300Y8597600D02*
D03*
X8328300D02*
D03*
X9315800Y8622600D02*
D03*
X9465800D02*
D03*
X8403300Y7820100D02*
D03*
X8253300D02*
D03*
X8480800Y8742600D02*
D03*
X8330800D02*
D03*
X9868300Y8045100D02*
D03*
X10018299D02*
D03*
X9715800D02*
D03*
X9565800D02*
D03*
X8228300Y7380100D02*
D03*
X8378300D02*
D03*
X8075800Y7380100D02*
D03*
X7925800D02*
D03*
D18*
X10410800Y7565100D02*
D03*
X10310800D02*
D03*
X10210800D02*
D03*
X10110800D02*
D03*
X11178300D02*
D03*
X11078300D02*
D03*
X10978300D02*
D03*
X10878300D02*
D03*
D19*
X9980800Y7177600D02*
D03*
X10540800D02*
D03*
X10748300D02*
D03*
X11308300D02*
D03*
D20*
X8495800Y8495100D02*
D03*
Y8445100D02*
D03*
Y8395100D02*
D03*
Y8345100D02*
D03*
Y8295100D02*
D03*
Y8245100D02*
D03*
Y8195100D02*
D03*
Y8145100D02*
D03*
Y8095100D02*
D03*
Y8045100D02*
D03*
Y7995100D02*
D03*
Y7945100D02*
D03*
X9300800D02*
D03*
Y7995100D02*
D03*
Y8045100D02*
D03*
Y8095100D02*
D03*
Y8145100D02*
D03*
Y8195100D02*
D03*
Y8245100D02*
D03*
Y8295100D02*
D03*
Y8345100D02*
D03*
Y8395100D02*
D03*
Y8445100D02*
D03*
Y8495100D02*
D03*
D21*
X8623300Y7817600D02*
D03*
X8673300D02*
D03*
X8723300D02*
D03*
X8773300D02*
D03*
X8823300D02*
D03*
X8873300D02*
D03*
X8923300D02*
D03*
X8973300D02*
D03*
X9023300D02*
D03*
X9073300D02*
D03*
X9123300D02*
D03*
X9173300D02*
D03*
Y8622600D02*
D03*
X9123300D02*
D03*
X9073300D02*
D03*
X9023300D02*
D03*
X8973300D02*
D03*
X8923300D02*
D03*
X8873300D02*
D03*
X8823300D02*
D03*
X8773300D02*
D03*
X8723300D02*
D03*
X8673300D02*
D03*
X8623300D02*
D03*
D22*
X10328800Y8534100D02*
D03*
X10328800Y8305100D02*
D03*
Y8076100D02*
D03*
D23*
X10987800Y8305100D02*
D03*
D24*
X8639300Y7578100D02*
D03*
Y7451100D02*
D03*
Y7324100D02*
D03*
Y7197100D02*
D03*
X9132300D02*
D03*
Y7324100D02*
D03*
Y7451100D02*
D03*
Y7578100D02*
D03*
D25*
X9685840Y7325934D02*
D03*
X9485840Y7419934D02*
D03*
D26*
X9685840Y7513934D02*
D03*
D27*
X8015800Y8147599D02*
D03*
Y7957599D02*
D03*
X8245800Y8147599D02*
D03*
Y7957599D02*
D03*
D28*
X11195500Y9128700D02*
D03*
Y8978700D02*
D03*
%TF.MD5,70a086b119b948788877c8db09c0050d*%
M02*
