%TF.GenerationSoftware,Altium Limited,Altium Designer,24.1.2 (44)*%
G04 Layer_Physical_Order=1*
G04 Layer_Color=255*
%FSLAX45Y45*%
%MOMM*%
%TF.SameCoordinates,480B7A5E-9FD5-4732-A4F6-FD879BEA9CF3*%
%TF.FilePolarity,Positive*%
%TF.FileFunction,Copper,L1,Top,Signal*%
%TF.Part,Single*%
G01*
G75*
%TA.AperFunction,Conductor*%
%ADD10C,0.25400*%
%TA.AperFunction,SMDPad,CuDef*%
%ADD11C,0.45000*%
%TA.AperFunction,BGAPad,CuDef*%
%ADD12R,0.50000X0.50000*%
%TA.AperFunction,SMDPad,CuDef*%
%ADD13R,0.65000X0.25000*%
%ADD14R,1.27000X2.10000*%
%ADD15R,1.20000X1.70000*%
G04:AMPARAMS|DCode=16|XSize=0.8mm|YSize=1mm|CornerRadius=0.1mm|HoleSize=0mm|Usage=FLASHONLY|Rotation=270.000|XOffset=0mm|YOffset=0mm|HoleType=Round|Shape=RoundedRectangle|*
%AMROUNDEDRECTD16*
21,1,0.80000,0.80000,0,0,270.0*
21,1,0.60000,1.00000,0,0,270.0*
1,1,0.20000,-0.40000,-0.30000*
1,1,0.20000,-0.40000,0.30000*
1,1,0.20000,0.40000,0.30000*
1,1,0.20000,0.40000,-0.30000*
%
%ADD16ROUNDEDRECTD16*%
G04:AMPARAMS|DCode=17|XSize=0.8mm|YSize=1mm|CornerRadius=0.1mm|HoleSize=0mm|Usage=FLASHONLY|Rotation=180.000|XOffset=0mm|YOffset=0mm|HoleType=Round|Shape=RoundedRectangle|*
%AMROUNDEDRECTD17*
21,1,0.80000,0.80000,0,0,180.0*
21,1,0.60000,1.00000,0,0,180.0*
1,1,0.20000,-0.30000,0.40000*
1,1,0.20000,0.30000,0.40000*
1,1,0.20000,0.30000,-0.40000*
1,1,0.20000,-0.30000,-0.40000*
%
%ADD17ROUNDEDRECTD17*%
%ADD18R,0.60000X1.55000*%
%ADD19R,1.20000X1.80000*%
%ADD20O,1.55000X0.25000*%
%ADD21O,0.25000X1.55000*%
%ADD22R,1.10000X1.00000*%
%ADD23R,1.10000X3.18213*%
%ADD24R,1.98000X0.53000*%
%ADD25R,0.84000X0.84000*%
%ADD26R,0.84000X0.90000*%
G04:AMPARAMS|DCode=27|XSize=1.3mm|YSize=1.1mm|CornerRadius=0.055mm|HoleSize=0mm|Usage=FLASHONLY|Rotation=0.000|XOffset=0mm|YOffset=0mm|HoleType=Round|Shape=RoundedRectangle|*
%AMROUNDEDRECTD27*
21,1,1.30000,0.99000,0,0,0.0*
21,1,1.19000,1.10000,0,0,0.0*
1,1,0.11000,0.59500,-0.49500*
1,1,0.11000,-0.59500,-0.49500*
1,1,0.11000,-0.59500,0.49500*
1,1,0.11000,0.59500,0.49500*
%
%ADD27ROUNDEDRECTD27*%
%TA.AperFunction,ConnectorPad*%
G04:AMPARAMS|DCode=28|XSize=0.8mm|YSize=1mm|CornerRadius=0.1mm|HoleSize=0mm|Usage=FLASHONLY|Rotation=90.000|XOffset=0mm|YOffset=0mm|HoleType=Round|Shape=RoundedRectangle|*
%AMROUNDEDRECTD28*
21,1,0.80000,0.80000,0,0,90.0*
21,1,0.60000,1.00000,0,0,90.0*
1,1,0.20000,0.40000,0.30000*
1,1,0.20000,0.40000,-0.30000*
1,1,0.20000,-0.40000,-0.30000*
1,1,0.20000,-0.40000,0.30000*
%
%ADD28ROUNDEDRECTD28*%
%TA.AperFunction,Conductor*%
%ADD29C,0.25000*%
%ADD30C,0.38100*%
%ADD31C,0.30000*%
%ADD32C,1.00000*%
%ADD33C,0.50000*%
%ADD34C,0.60000*%
%ADD35C,0.75000*%
%TA.AperFunction,ViaPad*%
%ADD36C,5.00000*%
%TA.AperFunction,ComponentPad*%
%ADD37R,1.60000X1.60000*%
%ADD38C,1.60000*%
%TA.AperFunction,ViaPad*%
%ADD39C,0.60000*%
%ADD40C,0.80000*%
G36*
X8216900Y9258300D02*
Y8966200D01*
X8356600Y8826500D01*
Y8458200D01*
X8331200Y8432800D01*
X8013700D01*
X7975600Y8394700D01*
Y8293100D01*
X8001000Y8267700D01*
Y8255000D01*
X8039100D01*
X8089900Y8204200D01*
Y8089900D01*
X8064500Y8064500D01*
X7843716D01*
X7839332Y8048139D01*
X7820463Y8002585D01*
X7795809Y7959884D01*
X7765792Y7920765D01*
X7730927Y7885900D01*
X7691809Y7855884D01*
X7649108Y7831230D01*
X7603553Y7812361D01*
X7555926Y7799599D01*
X7507041Y7793163D01*
X7457734D01*
X7408848Y7799599D01*
X7361221Y7812361D01*
X7315667Y7831230D01*
X7272966Y7855884D01*
X7233847Y7885900D01*
X7198982Y7920765D01*
X7168966Y7959884D01*
X7144312Y8002585D01*
X7125443Y8048139D01*
X7112681Y8095766D01*
X7106245Y8144652D01*
Y8169305D01*
Y8193959D01*
X7112681Y8242845D01*
X7125443Y8290472D01*
X7144312Y8336026D01*
X7168966Y8378727D01*
X7198982Y8417845D01*
X7233847Y8452711D01*
X7272966Y8482727D01*
X7315667Y8507381D01*
X7361221Y8526250D01*
X7408848Y8539011D01*
X7457734Y8545447D01*
X7469972D01*
X7470417Y8546369D01*
X7548847Y8552065D01*
X7639768Y8551418D01*
X7819993Y8552065D01*
X7814243Y8605733D01*
X7818073Y9271000D01*
X8204200D01*
X8216900Y9258300D01*
D02*
G37*
G36*
X9989800Y8213100D02*
X9981800D01*
Y8188100D01*
X9931800D01*
Y8238100D01*
X9989800D01*
Y8213100D01*
D02*
G37*
G36*
X10238300Y8377600D02*
Y8310100D01*
X10228300Y8300100D01*
X10218300D01*
X10198300Y8277600D01*
Y8255100D01*
X10213300Y8240100D01*
X10220799D01*
X10265800Y8285100D01*
Y8357600D01*
X10273300Y8365100D01*
X10388300D01*
X10403300Y8350100D01*
Y8260100D01*
X10383300Y8240100D01*
X10289299Y8146100D01*
X10253800D01*
Y8142600D01*
X10136781D01*
X10134773D01*
X10132803Y8142992D01*
X10125408D01*
X10113300Y8155100D01*
Y8375100D01*
X10128300Y8390100D01*
X10225800D01*
X10238300Y8377600D01*
D02*
G37*
G36*
X11607367Y8572130D02*
X11843420Y8566937D01*
X12062800Y8555100D01*
X12075305Y8542595D01*
X12102526Y8539011D01*
X12150153Y8526250D01*
X12195708Y8507381D01*
X12238409Y8482727D01*
X12277527Y8452711D01*
X12312392Y8417845D01*
X12342409Y8378727D01*
X12367063Y8336026D01*
X12385932Y8290472D01*
X12398693Y8242845D01*
X12402277Y8215623D01*
X12410800Y8207100D01*
X12404260Y8200560D01*
X12405129Y8193959D01*
Y8169305D01*
Y8144652D01*
X12398693Y8095766D01*
X12385932Y8048139D01*
X12367063Y8002585D01*
X12342409Y7959884D01*
X12312392Y7920765D01*
X12277527Y7885900D01*
X12238409Y7855884D01*
X12195708Y7831230D01*
X12150153Y7812361D01*
X12102526Y7799599D01*
X12053641Y7793163D01*
X12004334D01*
X11997732Y7794032D01*
X11980433Y7776733D01*
X11605800D01*
Y7382600D01*
X11590800Y7367600D01*
X11223300D01*
X11148300Y7442600D01*
Y7652600D01*
X11108300Y7692600D01*
X10770800D01*
X10725800Y7737600D01*
X10725800Y7952600D01*
X10765800Y7992600D01*
X10975800D01*
X10998300Y8015100D01*
Y8087600D01*
X11036693Y8125993D01*
X11062800D01*
Y8130100D01*
X11255800D01*
X11288300Y8162600D01*
Y8385100D01*
X11228300Y8445100D01*
X11093300D01*
X11062800Y8475600D01*
Y8484206D01*
X11054194D01*
X11043300Y8495100D01*
Y8612600D01*
X11088300Y8657600D01*
X11528300D01*
X11607367Y8572130D01*
D02*
G37*
G36*
X10132803Y8122600D02*
X10134773Y8122208D01*
X10216192D01*
X10243300Y8095100D01*
Y8022600D01*
X10253800Y8012100D01*
Y8006100D01*
X10259800D01*
X10263300Y8002600D01*
X10360800D01*
X10403300Y7960100D01*
Y7830100D01*
X10378300Y7805100D01*
X10105800D01*
X9900800Y7600100D01*
X9443300D01*
X9408300Y7565100D01*
X9278300D01*
X9265800Y7577600D01*
Y7790100D01*
X9308300Y7832600D01*
X9385800D01*
X9405800Y7815100D01*
Y7780100D01*
X9440800Y7745100D01*
X9878300D01*
X9973300Y7840100D01*
Y8084243D01*
X10011657Y8122600D01*
X10130794D01*
X10132803D01*
D02*
G37*
G36*
X8325800Y8005100D02*
Y7746000D01*
X8364200Y7707600D01*
X8408300D01*
Y7507600D01*
X8245800D01*
X8103300Y7650100D01*
Y7852600D01*
X8165800Y7915100D01*
Y8010100D01*
X8180800Y8025100D01*
X8305800D01*
X8325800Y8005100D01*
D02*
G37*
D10*
X12405129Y8169305D02*
G03*
X12405129Y8169305I-376142J0D01*
G01*
X7858529D02*
G03*
X7858529Y8169305I-376142J0D01*
G01*
X9883100Y8278917D02*
Y8285537D01*
X9873300Y8207600D02*
Y8285100D01*
X9883100Y8285537D02*
X9886662Y8289100D01*
X9792050Y8206350D02*
Y8283850D01*
X9709550Y8206350D02*
Y8283850D01*
X9790800Y8205100D02*
X9870800D01*
X9710800D02*
X9790800D01*
X9709550Y8206350D02*
X9710800Y8205100D01*
X9630800Y8285100D02*
X9708300D01*
X8865760Y8709063D02*
X8868500Y8706322D01*
Y8705240D02*
Y8706322D01*
X8873100Y8622800D02*
Y8700640D01*
X8923500Y8726178D02*
X8928459Y8731138D01*
X8868500Y8705240D02*
X8873100Y8700640D01*
X8865760Y8709063D02*
Y8773962D01*
X8862559Y8777163D02*
X8865760Y8773962D01*
X8923500Y8622800D02*
Y8726178D01*
X8648700Y8826500D02*
X8655320Y8819880D01*
Y8769502D02*
Y8819880D01*
Y8769502D02*
X8723100Y8701722D01*
X9189951Y8814600D02*
X9258948Y8745603D01*
Y8744760D02*
Y8745603D01*
X9115300Y8814600D02*
X9189951D01*
X8686800Y9093200D02*
X8712555Y9067445D01*
Y9016645D02*
Y9067445D01*
Y9016645D02*
X8914600Y8814600D01*
X9020300D01*
X8923300Y8622600D02*
X8923500Y8622800D01*
X8873100D02*
X8873300Y8622600D01*
X8723100Y8687400D02*
Y8701722D01*
X9039900Y8814600D02*
X9040100Y8814400D01*
Y8798556D02*
X9088517Y8750139D01*
X9124683D01*
X9040100Y8798556D02*
Y8814400D01*
X9020300Y8814600D02*
X9039900D01*
X9173100Y8622800D02*
Y8701722D01*
X9124683Y8750139D02*
X9173100Y8701722D01*
Y8622800D02*
X9173300Y8622600D01*
X8673500Y8497400D02*
X8675800Y8495100D01*
X8673500Y8497400D02*
Y8622400D01*
X8673300Y8622600D02*
X8673500Y8622400D01*
X9629550Y8363850D02*
X9630800Y8365100D01*
X9562350Y8362600D02*
X9563600Y8363850D01*
X9629550D01*
X9300800Y8345100D02*
X9301000Y8345300D01*
X9300800Y8295100D02*
X9301000Y8294900D01*
X9568300Y8225100D02*
X9577663D01*
X9618500Y8217400D02*
X9630800Y8205100D01*
X9577663Y8225100D02*
X9585363Y8217400D01*
X9618500D01*
X9567050Y7958850D02*
Y8043850D01*
Y7958850D02*
X9568300Y7957600D01*
X9565800Y8045100D02*
X9567050Y8043850D01*
X9872050Y8431350D02*
X9873300Y8432600D01*
X9784180Y8439220D02*
X9790800Y8432600D01*
X9748300Y8512600D02*
X9768100Y8492800D01*
X9784180Y8439220D02*
Y8469221D01*
X9768100Y8485300D02*
X9784180Y8469221D01*
X9740800Y8512600D02*
X9748300D01*
X9768100Y8485300D02*
Y8492800D01*
X9790800Y8365100D02*
Y8432600D01*
X9873300Y8495300D02*
X9890600Y8512600D01*
X9873300Y8432600D02*
Y8495300D01*
X9792050Y8283850D02*
X9793300Y8285100D01*
X9790800Y8205100D02*
X9792050Y8206350D01*
X9870800Y8205100D02*
X9873300Y8207600D01*
X9790800Y8130100D02*
Y8205100D01*
X9708300Y8285100D02*
X9709550Y8283850D01*
X9387446Y8345300D02*
X9414746Y8372600D01*
X9424109D01*
X9301000Y8294900D02*
X9421950D01*
X9424250Y8292600D01*
X9301000Y8345300D02*
X9387446D01*
X9409832Y8445300D02*
X9418170Y8453638D01*
X9300800Y8445100D02*
X9301000Y8445300D01*
X9418170Y8453638D02*
X9427533D01*
X9301000Y8445300D02*
X9409832D01*
X9168300Y8442600D02*
X9215600Y8395300D01*
X9236000D01*
X9465800Y8622600D02*
X9467131Y8621269D01*
Y8528740D02*
X9468462Y8527409D01*
X9467131Y8528740D02*
Y8621269D01*
X9890600Y8512600D02*
X9895800D01*
X9872050Y8366350D02*
Y8431350D01*
X9870800Y8365100D02*
X9872050Y8366350D01*
X8725600Y7464900D02*
Y7491063D01*
X8712385Y7451685D02*
X8725600Y7464900D01*
X9000600Y7627253D02*
Y7627902D01*
X8835527Y7462181D02*
X9000600Y7627253D01*
X8734378Y7210900D02*
X8835527Y7312049D01*
X8639300Y7197100D02*
X8653100Y7210900D01*
X8835527Y7312049D02*
Y7462181D01*
X8653100Y7210900D02*
X8734378D01*
X8729725Y7337900D02*
X8780800Y7388974D01*
X8639300Y7324100D02*
X8653100Y7337900D01*
X8729725D01*
X8780800Y7388974D02*
Y7472308D01*
X8725600Y7491063D02*
X8923300Y7688763D01*
X9023300Y7752815D02*
Y7817600D01*
X8780800Y7472308D02*
X8973300Y7664808D01*
X8923300Y7688763D02*
Y7817600D01*
X9023285Y7650588D02*
Y7752800D01*
X8973300Y7664808D02*
Y7752600D01*
X9000600Y7627902D02*
X9023285Y7650588D01*
Y7752800D02*
X9023300Y7752815D01*
X9073300Y7694463D02*
X9095800Y7671963D01*
Y7662600D02*
Y7671963D01*
X9073300Y7694463D02*
Y7817600D01*
X8823300Y8622600D02*
X8823500Y8622400D01*
X9154962Y8167600D02*
X9157700D01*
X9185200Y8195100D02*
X9300800D01*
X9157700Y8167600D02*
X9185200Y8195100D01*
X9082108Y8197600D02*
X9129608Y8245100D01*
X9080800Y8197600D02*
X9082108D01*
X9129608Y8245100D02*
X9300800D01*
X9050257Y8316720D02*
X9086680D01*
X9093300Y8310100D01*
X8823500Y8543478D02*
X9050257Y8316720D01*
X8823500Y8543478D02*
Y8622400D01*
X9823912Y7816988D02*
X9825800Y7815100D01*
X9823912Y7816988D02*
Y7900122D01*
X8574922Y8144900D02*
X8617222Y8102600D01*
X8495800Y8145100D02*
X8496000Y8144900D01*
X8617222Y8102600D02*
X8625800D01*
X8496000Y8144900D02*
X8574922D01*
X8633300Y8195100D02*
X8690800Y8137600D01*
X8495800Y8195100D02*
X8633300D01*
X8690800Y8047600D02*
Y8137600D01*
X8635800Y7992600D02*
X8690800Y8047600D01*
D11*
X9956800Y8213100D02*
D03*
D12*
Y8293100D02*
D03*
X9636800D02*
D03*
X9956800Y8373100D02*
D03*
X9876800D02*
D03*
X9796800D02*
D03*
X9716800D02*
D03*
X9636800D02*
D03*
Y8213100D02*
D03*
X9716800D02*
D03*
X9796800D02*
D03*
X9876800D02*
D03*
D13*
X9020300Y8914600D02*
D03*
Y8864600D02*
D03*
Y8814600D02*
D03*
X9115300D02*
D03*
Y8864600D02*
D03*
Y8914600D02*
D03*
D14*
X9402700Y9080500D02*
D03*
X9799700D02*
D03*
D15*
X7928300Y7610100D02*
D03*
X8348300D02*
D03*
D16*
X8075800Y8317600D02*
D03*
Y8467600D02*
D03*
X8255800Y8320100D02*
D03*
Y8470100D02*
D03*
X11128300Y8367600D02*
D03*
Y8517600D02*
D03*
Y8217600D02*
D03*
Y8067600D02*
D03*
X9493300Y7815100D02*
D03*
Y7665100D02*
D03*
X9658300Y7815100D02*
D03*
Y7665100D02*
D03*
X10178300Y8187600D02*
D03*
Y8037600D02*
D03*
X10178300Y8340100D02*
D03*
Y8490100D02*
D03*
X10515600Y8978900D02*
D03*
Y9128900D02*
D03*
X10875600Y8978900D02*
D03*
Y9128900D02*
D03*
X9893300Y8522600D02*
D03*
Y8672600D02*
D03*
X9730800Y8520100D02*
D03*
Y8670100D02*
D03*
X9825800Y7815100D02*
D03*
Y7665100D02*
D03*
X9338300Y7175100D02*
D03*
Y7325100D02*
D03*
Y7627600D02*
D03*
Y7477600D02*
D03*
X10648100Y8976400D02*
D03*
Y9126400D02*
D03*
X11005600Y8976400D02*
D03*
Y9126400D02*
D03*
X11330600Y8978900D02*
D03*
Y9128900D02*
D03*
D17*
X8075800Y7235100D02*
D03*
X8225800D02*
D03*
X10643300Y7892600D02*
D03*
X10793300D02*
D03*
X10490800D02*
D03*
X10340801D02*
D03*
X9480800Y7177600D02*
D03*
X9630800D02*
D03*
X8478300Y8597600D02*
D03*
X8328300D02*
D03*
X9315800Y8622600D02*
D03*
X9465800D02*
D03*
X8403300Y7820100D02*
D03*
X8253300D02*
D03*
X8480800Y8742600D02*
D03*
X8330800D02*
D03*
X9868300Y8045100D02*
D03*
X10018299D02*
D03*
X9715800D02*
D03*
X9565800D02*
D03*
X8228300Y7380100D02*
D03*
X8378300D02*
D03*
X8075800Y7380100D02*
D03*
X7925800D02*
D03*
D18*
X10410800Y7565100D02*
D03*
X10310800D02*
D03*
X10210800D02*
D03*
X10110800D02*
D03*
X11178300D02*
D03*
X11078300D02*
D03*
X10978300D02*
D03*
X10878300D02*
D03*
D19*
X9980800Y7177600D02*
D03*
X10540800D02*
D03*
X10748300D02*
D03*
X11308300D02*
D03*
D20*
X8495800Y8495100D02*
D03*
Y8445100D02*
D03*
Y8395100D02*
D03*
Y8345100D02*
D03*
Y8295100D02*
D03*
Y8245100D02*
D03*
Y8195100D02*
D03*
Y8145100D02*
D03*
Y8095100D02*
D03*
Y8045100D02*
D03*
Y7995100D02*
D03*
Y7945100D02*
D03*
X9300800D02*
D03*
Y7995100D02*
D03*
Y8045100D02*
D03*
Y8095100D02*
D03*
Y8145100D02*
D03*
Y8195100D02*
D03*
Y8245100D02*
D03*
Y8295100D02*
D03*
Y8345100D02*
D03*
Y8395100D02*
D03*
Y8445100D02*
D03*
Y8495100D02*
D03*
D21*
X8623300Y7817600D02*
D03*
X8673300D02*
D03*
X8723300D02*
D03*
X8773300D02*
D03*
X8823300D02*
D03*
X8873300D02*
D03*
X8923300D02*
D03*
X8973300D02*
D03*
X9023300D02*
D03*
X9073300D02*
D03*
X9123300D02*
D03*
X9173300D02*
D03*
Y8622600D02*
D03*
X9123300D02*
D03*
X9073300D02*
D03*
X9023300D02*
D03*
X8973300D02*
D03*
X8923300D02*
D03*
X8873300D02*
D03*
X8823300D02*
D03*
X8773300D02*
D03*
X8723300D02*
D03*
X8673300D02*
D03*
X8623300D02*
D03*
D22*
X10328800Y8534100D02*
D03*
X10328800Y8305100D02*
D03*
Y8076100D02*
D03*
D23*
X10987800Y8305100D02*
D03*
D24*
X8639300Y7578100D02*
D03*
Y7451100D02*
D03*
Y7324100D02*
D03*
Y7197100D02*
D03*
X9132300D02*
D03*
Y7324100D02*
D03*
Y7451100D02*
D03*
Y7578100D02*
D03*
D25*
X9685840Y7325934D02*
D03*
X9485840Y7419934D02*
D03*
D26*
X9685840Y7513934D02*
D03*
D27*
X8015800Y8147599D02*
D03*
Y7957599D02*
D03*
X8245800Y8147599D02*
D03*
Y7957599D02*
D03*
D28*
X11195500Y9128700D02*
D03*
Y8978700D02*
D03*
D29*
X9886662Y8289100D02*
X9952800D01*
X9877300D02*
X9886662D01*
X9952800D02*
X9956800Y8293100D01*
X9873300Y8285100D02*
X9877300Y8289100D01*
X8839616Y8980779D02*
Y8987108D01*
Y8978484D02*
Y8980779D01*
X8813800Y9012923D02*
X8839616Y8987108D01*
X8813800Y9012923D02*
Y9207500D01*
X8178800Y9232900D02*
X8788400D01*
X8813800Y9207500D01*
X8839616Y8978484D02*
X8953500Y8864600D01*
X9020300D01*
D30*
X10025406Y8215606D02*
Y8344832D01*
X9962750Y8367150D02*
X10003088D01*
X9956800Y8373100D02*
X9962750Y8367150D01*
X10003088D02*
X10025406Y8344832D01*
X10020850Y8211050D02*
X10025406Y8215606D01*
X9960750Y8211050D02*
X10020850D01*
X10178300Y8187600D02*
X10199250Y8208550D01*
X10225643D01*
X10178300Y8187600D02*
Y8340100D01*
X10178300Y8340100D01*
X9315800Y8622600D02*
X9326432Y8633232D01*
X9315800Y8501650D02*
Y8622600D01*
X9658300Y7815100D02*
Y7920100D01*
X9700800Y7962600D01*
Y8030100D02*
X9715800Y8045100D01*
X9700800Y7962600D02*
Y8030100D01*
X9715800Y8045100D02*
X9868300D01*
Y8055100D01*
X9954410Y8141210D01*
X10515600Y8978900D02*
X10516850Y8977650D01*
X10646850D02*
X10648100Y8976400D01*
X10516850Y8977650D02*
X10646850D01*
X11004350Y8977650D02*
X11005600Y8976400D01*
X10875600Y8978900D02*
X10876850Y8977650D01*
X11004350D01*
X11200600Y8978900D02*
X11330600D01*
X11200600Y9128900D02*
X11203100Y9131400D01*
X11200600Y9133900D02*
Y9179081D01*
X11170781Y9208900D02*
X11200600Y9179081D01*
X10515600Y9186582D02*
X10537918Y9208900D01*
X10515600Y9128900D02*
Y9186582D01*
X11017089Y8367600D02*
X11128300D01*
X10987800Y8305100D02*
Y8338310D01*
X11017089Y8367600D01*
X11128300Y8217600D02*
Y8367600D01*
X9493300Y8155100D02*
Y8432600D01*
X9461923Y7858369D02*
X9462350Y7857942D01*
X9461923Y8123723D02*
X9493300Y8155100D01*
X9462350Y7836050D02*
X9483300Y7815100D01*
X9462350Y7836050D02*
Y7857942D01*
X9483300Y7815100D02*
X9493300D01*
X9658300D01*
X9461923Y7936223D02*
Y8123723D01*
X9400800Y7875100D02*
X9461923Y7936223D01*
X9303300Y7875100D02*
X9400800D01*
X9461923Y7858369D02*
Y7936223D01*
X9954800Y8205100D02*
X9960750Y8211050D01*
X9326432Y8633232D02*
Y8666982D01*
X9493300Y8432600D02*
X9511666Y8450966D01*
X10413100Y9128900D02*
X10515600D01*
X11170850Y8238550D02*
X11219900Y8287600D01*
X11225800D01*
X11149250Y8238550D02*
X11170850D01*
X11128300Y8217600D02*
X11149250Y8238550D01*
X10408100Y9123900D02*
X10410600Y9126400D01*
X10413100Y9128900D01*
X9954410Y8141210D02*
Y8205100D01*
X11200600Y9133900D02*
X11203100Y9131400D01*
X10875600Y9128900D02*
Y9206400D01*
X10878100Y9208900D01*
X10537918D02*
X10875600D01*
X11170781D01*
D31*
X10329152Y8534452D02*
X10330800Y8532803D01*
X7910800Y8142601D02*
X8020800D01*
X8429325Y8804075D02*
X8480800Y8752600D01*
X8423584Y8820790D02*
X8429325Y8815050D01*
Y8804075D02*
Y8815050D01*
X8480800Y8742600D02*
Y8752600D01*
X8773300Y8622600D02*
Y8727300D01*
X8736421Y8764179D02*
Y8827803D01*
Y8764179D02*
X8773300Y8727300D01*
X10053300Y8712600D02*
X10116400Y8775700D01*
X10993700D02*
X11093900Y8875900D01*
X10116400Y8775700D02*
X10993700D01*
X10180600Y8724900D02*
X11290300D01*
X10103300Y8647600D02*
X10180600Y8724900D01*
X11290300D02*
X11425600Y8860200D01*
Y9043900D01*
X11093900Y8875900D02*
Y9048100D01*
X11015600Y9126400D02*
X11093900Y9048100D01*
X9695524Y7504250D02*
X9966650D01*
X10103300Y7367600D01*
X9685840Y7513934D02*
X9695524Y7504250D01*
X9390874Y7505365D02*
X9685840D01*
X9486173Y7420267D02*
X9579267D01*
X9579600Y7420600D01*
X9485840Y7419934D02*
X9486173Y7420267D01*
X9388109Y7502600D02*
X9390874Y7505365D01*
X9339078Y7476821D02*
X9364857Y7502600D01*
X9388109D01*
X9518000Y7326100D02*
X10044800D01*
X9517500Y7325600D02*
X9518000Y7326100D01*
X9338800Y7325600D02*
X9517500D01*
X9337800Y7324600D02*
X9338300Y7325100D01*
X8075800Y7245100D02*
X8175800Y7345100D01*
X8203300D01*
X8075800Y7235100D02*
Y7245100D01*
X8203300Y7345100D02*
X8228300Y7370100D01*
Y7380100D01*
X7970800Y7227600D02*
X7976540Y7233340D01*
Y7270840D02*
X8075800Y7370100D01*
X7976540Y7233340D02*
Y7270840D01*
X8075800Y7370100D02*
Y7380100D01*
X8255800Y8320100D02*
X8280800Y8345100D01*
X8495800D01*
X8110800Y8342600D02*
Y8352600D01*
X8153300Y8395100D01*
X8495800D01*
X8085800Y8317600D02*
X8110800Y8342600D01*
X8085800Y8317600D02*
X8110800Y8292600D01*
X8075800Y8317600D02*
X8085800D01*
X8110800Y8282600D02*
X8130800Y8262600D01*
X8110800Y8282600D02*
Y8292600D01*
X8070802Y7992601D02*
X8130800Y8052599D01*
X8020800Y7952601D02*
X8060800Y7992601D01*
X8130800Y8052599D02*
Y8262600D01*
X8060800Y7992601D02*
X8070802D01*
X8410873Y8095100D02*
X8495800D01*
X8250800Y8142601D02*
X8255800Y8147600D01*
Y8320100D01*
X8479550Y8741350D02*
X8480800Y8742600D01*
X8479550Y8598850D02*
Y8741350D01*
X8478300Y8597600D02*
X8479550Y8598850D01*
X8478300Y8597600D02*
X8620800D01*
X8478300D02*
X8497877Y8578023D01*
Y8497600D02*
Y8578023D01*
X9132300Y7324100D02*
X9132800Y7324600D01*
X9337800D01*
X9317695Y7456995D02*
X9348300Y7487600D01*
X9132300Y7451100D02*
X9138195Y7456995D01*
X9317695D01*
X10044800Y7326100D02*
X10085800Y7285100D01*
X10210800D02*
X10213300Y7287600D01*
X10085800Y7285100D02*
X10210800D01*
X10103300Y7367600D02*
X10268300D01*
X10310800Y7410100D01*
Y7565100D01*
X10210800Y7432600D02*
Y7565100D01*
X9338300Y7175100D02*
X9339550Y7176350D01*
X9479550D02*
X9480800Y7177600D01*
X9339550Y7176350D02*
X9479550D01*
X9266300Y7237100D02*
Y7238097D01*
Y7237100D02*
X9328300Y7175100D01*
X9338300D01*
X11005600Y9126400D02*
X11015600D01*
X11340600Y9128900D02*
X11425600Y9043900D01*
X11330600Y9128900D02*
X11340600D01*
X9727050Y7178850D02*
X9728300Y7180100D01*
X9630800Y7177600D02*
X9632050Y7178850D01*
X9727050D01*
X9123300Y7817600D02*
Y7930100D01*
X10329152Y8534452D02*
X10425375D01*
X10178300Y8490100D02*
X10179497Y8491296D01*
Y8581787D02*
X10180693Y8582984D01*
X10179497Y8491296D02*
Y8581787D01*
X10978300Y7445100D02*
Y7565100D01*
X11078300Y7425100D02*
Y7565100D01*
X10955800Y7422600D02*
X10978300Y7445100D01*
X11005800Y7352600D02*
X11078300Y7425100D01*
X10665800Y7352600D02*
X11005800D01*
X10613300Y7405100D02*
X10665800Y7352600D01*
X9173300Y7589600D02*
Y7817600D01*
X9161800Y7578100D02*
X9173300Y7589600D01*
X9175800Y7875100D02*
X9303300D01*
X9173300Y7817600D02*
Y7872600D01*
X9175800Y7875100D01*
X9132300Y7578100D02*
X9161800D01*
X8698300Y7662600D02*
X8705800D01*
Y7591900D02*
Y7655100D01*
X8639300Y7578100D02*
X8692000D01*
X8705800Y7591900D01*
X8698300Y7662600D02*
X8705800Y7655100D01*
X10330800Y8442600D02*
Y8532803D01*
X10658300Y7480100D02*
X10715800Y7422600D01*
X10955800D01*
X10658300Y7480100D02*
Y7495100D01*
X9018802Y7262600D02*
X9241797D01*
X9266300Y7238097D01*
X8988551Y7292851D02*
X9018802Y7262600D01*
X8403300Y7822600D02*
Y7832600D01*
X8378300Y7857600D02*
X8403300Y7832600D01*
X8377894Y7875174D02*
X8378300Y7874768D01*
X8377894Y8062120D02*
X8410873Y8095100D01*
X8377894Y7875174D02*
Y8062120D01*
X8378300Y7857600D02*
Y7874768D01*
X8225800Y7145100D02*
Y7235100D01*
X8225800Y7235100D02*
X8225800Y7235100D01*
X8374040Y8223147D02*
X8377894Y8219293D01*
Y8062120D02*
Y8219293D01*
X8363300Y8236982D02*
X8374040Y8226242D01*
Y8223147D02*
Y8226242D01*
X8363300Y8236982D02*
Y8245100D01*
D32*
X9396350Y9045350D02*
X9539000Y8902700D01*
X9396350Y9045350D02*
Y9086850D01*
X9539000Y8902700D02*
X10185400D01*
X8940800Y9093200D02*
X8947150Y9086850D01*
X9396350D01*
D33*
X9799700Y9042800D02*
Y9080500D01*
Y9042800D02*
X9838200Y9004300D01*
X9918700D01*
X9799700Y9080500D02*
X9918700D01*
X9799700Y9118200D02*
X9838200Y9156700D01*
X9918700D01*
X9799700Y9080500D02*
Y9118200D01*
X10297192Y8280100D02*
X10303800D01*
X10328800Y8305100D01*
X10225643Y8208550D02*
X10297192Y8280100D01*
X9958300Y8662600D02*
X10058300Y8562600D01*
X9903300Y8662600D02*
X9958300D01*
X9893300Y8672600D02*
X9903300Y8662600D01*
X9730800Y8670100D02*
X9732050Y8671350D01*
X9892050D02*
X9893300Y8672600D01*
X9732050Y8671350D02*
X9892050D01*
X9715864Y8655165D02*
X9730800Y8670100D01*
X9540211Y8724896D02*
X9610403Y8654703D01*
X9350595Y8724896D02*
X9540211D01*
X9326432Y8700732D02*
X9350595Y8724896D01*
X9326432Y8666982D02*
Y8700732D01*
X9610864Y8550165D02*
Y8654703D01*
Y8655165D02*
X9715864D01*
X9511666Y8450966D02*
X9610864Y8550165D01*
X10058300Y8425935D02*
Y8562600D01*
Y8425935D02*
X10129135Y8355100D01*
X10163300D01*
X10178300Y8340100D01*
X10328800Y8305100D02*
X10460799D01*
X10649350Y9127650D02*
X10749350D01*
X10648100Y9126400D02*
X10649350Y9127650D01*
X10749350D02*
X10750600Y9128900D01*
X9059800Y7578100D02*
X9132300D01*
X8988300Y7506600D02*
X9059800Y7578100D01*
X8988300Y7265100D02*
Y7506600D01*
X8838300Y7115100D02*
X8988300Y7265100D01*
X8478300Y7115100D02*
X8838300D01*
X8418300Y7797600D02*
X8428300D01*
X8403300Y7812600D02*
X8418300Y7797600D01*
X8388300Y7205100D02*
X8478300Y7115100D01*
X8378300Y7380100D02*
X8388300Y7370100D01*
Y7205100D02*
Y7370100D01*
X8428300Y7797600D02*
X8474189Y7751711D01*
X8400016Y7405101D02*
X8474189Y7479273D01*
Y7751711D01*
X7927050Y7381350D02*
Y7608850D01*
X7925800Y7380100D02*
X7927050Y7381350D01*
Y7608850D02*
X7928300Y7610100D01*
X9140800Y7120100D02*
Y7195600D01*
X9132300Y7197100D02*
X9139300D01*
X9140800Y7195600D01*
X10410800Y7432600D02*
Y7565100D01*
X11183300Y7577600D02*
X11263300D01*
X11178300Y7565100D02*
Y7572600D01*
X11183300Y7577600D01*
X10794550Y7891350D02*
X10892050D01*
X10793300Y7892600D02*
X10794550Y7891350D01*
X10892050D02*
X10893300Y7890100D01*
X11229550Y8066350D02*
X11230800Y8065100D01*
X11128300Y8067600D02*
X11129549Y8066350D01*
X11229550D01*
X10178300Y7950100D02*
Y8037600D01*
X10249550Y7893850D02*
X10339550D01*
X10340801Y7892600D01*
X10248300Y7895100D02*
X10249550Y7893850D01*
X8403300Y7812600D02*
Y7820100D01*
Y7822600D01*
D34*
X10110800Y7671338D02*
X10159561Y7720100D01*
X10110800Y7565100D02*
Y7671338D01*
X10642984Y7892284D02*
X10643300Y7892600D01*
X10490800D02*
X10643300D01*
X10457300Y8076100D02*
X10490800Y8042600D01*
Y7892600D02*
Y8042600D01*
X10642984Y7720100D02*
Y7892284D01*
X10159561Y7720100D02*
X10642984D01*
X10878300Y7565100D02*
Y7575100D01*
X10642984Y7650234D02*
Y7720100D01*
X10718118Y7575100D02*
X10878300D01*
X10642984Y7650234D02*
X10718118Y7575100D01*
X10328800Y8076100D02*
X10457300D01*
X10484300D01*
X10588300Y8180100D01*
Y8647600D01*
D35*
X10845800Y8305100D02*
X10987800D01*
D36*
X11988800Y8181000D02*
D03*
X7475961Y8181039D02*
D03*
D37*
X8178800Y9093200D02*
D03*
D38*
X8432800D02*
D03*
X8686800D02*
D03*
X8940800D02*
D03*
D39*
X8423584Y8820790D02*
D03*
X8736421Y8827803D02*
D03*
X8862559Y8777163D02*
D03*
X8928459Y8731138D02*
D03*
X8648700Y8826500D02*
D03*
X10185400Y8902700D02*
D03*
X9258948Y8744760D02*
D03*
X8839616Y8980779D02*
D03*
X9918700Y9004300D02*
D03*
Y9080500D02*
D03*
Y9156700D02*
D03*
X9579600Y7420600D02*
D03*
X10210800Y7432600D02*
D03*
X10213300Y7287600D02*
D03*
X8155800Y7815100D02*
D03*
X10410800Y7432600D02*
D03*
X10025800Y7945100D02*
D03*
X9928300Y7700100D02*
D03*
X9335800Y7717600D02*
D03*
X10180693Y8582984D02*
D03*
X10425375Y8534452D02*
D03*
X10750600Y9128900D02*
D03*
X11228300Y8522600D02*
D03*
X11230800Y8065100D02*
D03*
X10893300Y7890100D02*
D03*
X11263300Y7577600D02*
D03*
X9728300Y7180100D02*
D03*
X8163300Y7677600D02*
D03*
X8190800Y7612600D02*
D03*
X9123300Y7930100D02*
D03*
X8675800Y8495100D02*
D03*
X9562350Y8362600D02*
D03*
X9568300Y8225100D02*
D03*
Y7957600D02*
D03*
X9790800Y8432600D02*
D03*
X9873300Y8285100D02*
D03*
X9708300D02*
D03*
X9790800Y8130100D02*
D03*
X9793300Y8285100D02*
D03*
X10003300Y7767600D02*
D03*
X10028300Y7852600D02*
D03*
X9424250Y8292600D02*
D03*
X9424109Y8372600D02*
D03*
X9427533Y8453638D02*
D03*
X9168300Y8442600D02*
D03*
X9468462Y8527409D02*
D03*
X9873300Y8432600D02*
D03*
X9095800Y7662600D02*
D03*
X8705800D02*
D03*
X10330800Y8442600D02*
D03*
X10178300Y7950100D02*
D03*
X10248300Y7895100D02*
D03*
X9338300Y7797600D02*
D03*
X10608300Y7410100D02*
D03*
X10655800Y7487600D02*
D03*
X9080800Y8197600D02*
D03*
X9578300Y7670100D02*
D03*
X9154962Y8167600D02*
D03*
X9093300Y8310100D02*
D03*
X9823912Y7900122D02*
D03*
X8225800Y7145100D02*
D03*
X8363300Y8245100D02*
D03*
X8625800Y8102600D02*
D03*
X8635800Y7992600D02*
D03*
X7970800Y7227600D02*
D03*
X10410600Y9126400D02*
D03*
X11225800Y8287600D02*
D03*
X9140800Y7120100D02*
D03*
X8240800Y8742600D02*
D03*
X8238300Y8600100D02*
D03*
X7968300Y8470100D02*
D03*
X7910800Y8142601D02*
D03*
X7565800Y7840100D02*
D03*
X7555800Y8462600D02*
D03*
X10053300Y8712600D02*
D03*
X10103300Y8647600D02*
D03*
D40*
X10588300D02*
D03*
X10460799Y8305100D02*
D03*
X10845800D02*
D03*
%TF.MD5,46f8180ce6c7b6ce2fc403edb2aacf34*%
M02*
