M48
;Layer_Color=9474304
;FILE_FORMAT=4:4
METRIC,LZ
;TYPE=PLATED
T01F00S00C0.3000
T02F00S00C0.4000
T03F00S00C1.1000
T04F00S00C3.1000
%
T01
X0079708Y0072276
X0082258Y0071451
X0081908Y0076126
X0081633Y0076776
X0081558Y0078151
X0087058Y0076626
X0090958
X0091233Y0079301
X0093383Y0077976
X0093358Y0077176
X0095783Y0076701
X0095796Y0074206
X0097283Y0071801
X0102133Y0072876
X0102108Y0074326
X0104108
X0106083Y0074101
X0106558Y0074876
X0108933Y0078901
X0102483Y0078951
X0100283Y0078526
X0100033Y0077676
X0099283Y0077001
X00982391Y00790012
X0091408Y0071201
X0112633Y0075776
X0075658Y0078401
X0075558Y0084626
X0079108Y0081426
X0079683Y0084701
X0082383Y0086001
X0082408Y0087426
X00842358Y00882079
X0086487Y0088265
X00873642Y0088278
X00886256Y00877716
X00892846Y00873114
X00883962Y00898078
X0086758Y0084951
X0086258Y0081026
X0086358Y0079926
X0083633Y0082451
X0090808Y0081976
X00915496Y0081676
X0090933Y0083101
X0091683Y0084426
X00942753Y00845364
X00942411Y0083726
X00942425Y0082926
X00956235Y0083626
X0095683Y0082251
X0097083Y0082851
X0097933
X0098733
Y0084326
X0097908
Y0081301
X0095683Y0079576
X0100258Y0079451
X0101783Y0079501
X01018069Y00858298
X0101033Y0086476
X0100533Y0087126
X0101854Y0089027
X0099187Y0090043
Y0090805
Y0091567
X0104106Y0091264
X0107506Y0091289
X01042538Y00853445
X0103308Y0084426
X00946846Y00852741
X00925895Y00874476
X0112283Y0085226
X0112258Y0082876
X0112308Y0080651
T02
X0104608Y0083051
X0108458
X0105883Y0086476
T03
X0081788Y0090932
X0084328
X0086868
X0089408
T04
X00747596Y00818104
X0119888Y008181
M30
