%TF.GenerationSoftware,Altium Limited,Altium Designer,24.1.2 (44)*%
G04 Layer_Physical_Order=1*
G04 Layer_Color=255*
%FSLAX45Y45*%
%MOMM*%
%TF.SameCoordinates,DF2DA703-92E4-466D-A55C-C96BEC28C730*%
%TF.FilePolarity,Positive*%
%TF.FileFunction,Copper,L1,Top,Signal*%
%TF.Part,Single*%
G01*
G75*
%TA.AperFunction,SMDPad,CuDef*%
%ADD10R,2.10000X1.27000*%
%ADD11R,0.25000X0.65000*%
%ADD12R,0.54000X0.58000*%
G04:AMPARAMS|DCode=13|XSize=0.8mm|YSize=1mm|CornerRadius=0.1mm|HoleSize=0mm|Usage=FLASHONLY|Rotation=270.000|XOffset=0mm|YOffset=0mm|HoleType=Round|Shape=RoundedRectangle|*
%AMROUNDEDRECTD13*
21,1,0.80000,0.80000,0,0,270.0*
21,1,0.60000,1.00000,0,0,270.0*
1,1,0.20000,-0.40000,-0.30000*
1,1,0.20000,-0.40000,0.30000*
1,1,0.20000,0.40000,0.30000*
1,1,0.20000,0.40000,-0.30000*
%
%ADD13ROUNDEDRECTD13*%
%ADD14C,0.02540*%
%ADD15C,0.11400*%
%ADD16R,2.62000X3.51000*%
%ADD17R,0.58000X0.54000*%
%ADD18R,1.10000X1.00000*%
G04:AMPARAMS|DCode=19|XSize=0.8mm|YSize=1mm|CornerRadius=0.1mm|HoleSize=0mm|Usage=FLASHONLY|Rotation=0.000|XOffset=0mm|YOffset=0mm|HoleType=Round|Shape=RoundedRectangle|*
%AMROUNDEDRECTD19*
21,1,0.80000,0.80000,0,0,0.0*
21,1,0.60000,1.00000,0,0,0.0*
1,1,0.20000,0.30000,-0.40000*
1,1,0.20000,-0.30000,-0.40000*
1,1,0.20000,-0.30000,0.40000*
1,1,0.20000,0.30000,0.40000*
%
%ADD19ROUNDEDRECTD19*%
%ADD20R,2.65000X1.75000*%
%ADD21R,2.20000X1.75000*%
%ADD22R,1.20000X1.80000*%
%ADD23R,0.60000X1.55000*%
%ADD24R,0.60000X0.50000*%
%ADD25R,0.60000X0.60000*%
G04:AMPARAMS|DCode=26|XSize=0.6mm|YSize=0.7mm|CornerRadius=0.075mm|HoleSize=0mm|Usage=FLASHONLY|Rotation=0.000|XOffset=0mm|YOffset=0mm|HoleType=Round|Shape=RoundedRectangle|*
%AMROUNDEDRECTD26*
21,1,0.60000,0.55000,0,0,0.0*
21,1,0.45000,0.70000,0,0,0.0*
1,1,0.15000,0.22500,-0.27500*
1,1,0.15000,-0.22500,-0.27500*
1,1,0.15000,-0.22500,0.27500*
1,1,0.15000,0.22500,0.27500*
%
%ADD26ROUNDEDRECTD26*%
%ADD27R,3.00000X2.00000*%
%ADD28R,0.84000X0.84000*%
%ADD29R,0.90000X0.84000*%
%ADD30R,1.98000X0.53000*%
%ADD31R,1.14300X3.55600*%
%ADD32R,1.14300X0.88900*%
%ADD33R,1.01600X0.88900*%
%ADD34R,1.00429X0.87213*%
%ADD35R,1.60000X0.61000*%
%ADD36R,0.27940X0.71120*%
%ADD37R,0.45720X0.25400*%
%ADD38R,1.20000X0.80000*%
%TA.AperFunction,TestPad*%
G04:AMPARAMS|DCode=39|XSize=0.75mm|YSize=0.8mm|CornerRadius=0.09375mm|HoleSize=0mm|Usage=FLASHONLY|Rotation=180.000|XOffset=0mm|YOffset=0mm|HoleType=Round|Shape=RoundedRectangle|*
%AMROUNDEDRECTD39*
21,1,0.75000,0.61250,0,0,180.0*
21,1,0.56250,0.80000,0,0,180.0*
1,1,0.18750,-0.28125,0.30625*
1,1,0.18750,0.28125,0.30625*
1,1,0.18750,0.28125,-0.30625*
1,1,0.18750,-0.28125,-0.30625*
%
%ADD39ROUNDEDRECTD39*%
%TA.AperFunction,SMDPad,CuDef*%
%ADD40R,0.30000X0.55000*%
%ADD41R,0.55000X0.30000*%
%ADD42R,5.60000X5.60000*%
%ADD43R,0.85000X0.75000*%
%TA.AperFunction,Conductor*%
%ADD44C,0.50000*%
%ADD45C,0.25430*%
%ADD46C,0.30000*%
%ADD47C,0.25400*%
%ADD48C,0.40000*%
%ADD49C,0.60000*%
%ADD50C,0.20000*%
%ADD51C,0.20320*%
%ADD52C,0.45720*%
%ADD53C,0.26000*%
%ADD54C,0.90000*%
%ADD55C,0.75000*%
%ADD56C,1.00000*%
%TA.AperFunction,ComponentPad*%
%ADD57C,5.20000*%
%ADD58O,1.90000X3.00000*%
%ADD59R,1.60000X1.60000*%
%ADD60C,1.60000*%
%TA.AperFunction,ViaPad*%
%ADD61C,1.52400*%
%ADD62C,0.60000*%
%ADD63C,0.80000*%
G36*
X12346647Y8445872D02*
X12333947Y8440612D01*
X12314743Y8459815D01*
X12285262Y8479514D01*
X12252504Y8493083D01*
X12217728Y8500000D01*
X12182272D01*
X12147496Y8493083D01*
X12114738Y8479514D01*
X12085257Y8459815D01*
X12060185Y8434743D01*
X12040486Y8405262D01*
X12026917Y8372504D01*
X12020000Y8337728D01*
Y8302271D01*
X12026917Y8267496D01*
X12040486Y8234738D01*
X12060185Y8205257D01*
X12085257Y8180185D01*
X12114738Y8160486D01*
X12147496Y8146917D01*
X12182272Y8140000D01*
X12217728D01*
X12252504Y8146917D01*
X12285262Y8160486D01*
X12314743Y8180185D01*
X12333947Y8199388D01*
X12346647Y8194128D01*
Y7321743D01*
X12424192D01*
Y7186607D01*
X12346647D01*
Y7106703D01*
X12425828D01*
Y6987413D01*
X12346647D01*
Y6952261D01*
X12305900D01*
Y6971757D01*
X12237960D01*
Y6937959D01*
X12237313Y6925527D01*
X12229884Y6925526D01*
X12183980D01*
Y6971757D01*
X12116040D01*
Y6968000D01*
X12023001D01*
X12023000Y6968000D01*
Y6968000D01*
X12010300Y6967021D01*
X12008230Y6968404D01*
X11997500Y6970539D01*
X11952500D01*
X11941770Y6968404D01*
X11932674Y6962326D01*
X11932637Y6962271D01*
X11917363D01*
X11917326Y6962326D01*
X11908230Y6968404D01*
X11897500Y6970539D01*
X11852500D01*
X11841770Y6968404D01*
X11840659Y6967661D01*
X11829499Y6963000D01*
X11829500Y6963000D01*
X11829499Y6963000D01*
X11735500D01*
Y6950686D01*
X11630000D01*
X11626553Y6950000D01*
X11582501D01*
Y6850000D01*
X11582500D01*
Y6730000D01*
Y6630000D01*
Y6500000D01*
X11002500D01*
Y6630000D01*
Y6730000D01*
Y6850000D01*
X11002500D01*
Y6980000D01*
X11002500D01*
Y7080000D01*
X11202500D01*
Y7175000D01*
X11194978D01*
X11193459Y7182635D01*
X11186829Y7192558D01*
X11186828Y7192559D01*
X11165769Y7213618D01*
X11165000Y7226000D01*
X11165000D01*
Y7271335D01*
X11177700Y7281758D01*
X11179200Y7281460D01*
X11208000D01*
Y7249500D01*
X11234160D01*
Y7175000D01*
X11232500D01*
Y7080000D01*
X11582500D01*
Y6980000D01*
X11677500D01*
Y6983959D01*
X11682671D01*
X11695429Y6986497D01*
X11706246Y6993725D01*
X11740021Y7027500D01*
X11754946D01*
X11773323Y7035112D01*
X11787388Y7049177D01*
X11795000Y7067554D01*
Y7068359D01*
X11806700D01*
X11809920Y7069000D01*
X11870000D01*
Y7159000D01*
Y7253000D01*
X11880629Y7258000D01*
X11952500D01*
Y7257500D01*
X12052500D01*
Y7357500D01*
X12052499D01*
Y7455000D01*
X12038185D01*
Y7490001D01*
X12035469Y7503657D01*
X12027733Y7515234D01*
X11873186Y7669781D01*
Y8090000D01*
X11870469Y8103656D01*
X11862734Y8115234D01*
X11837734Y8140234D01*
X11826156Y8147969D01*
X11812500Y8150686D01*
X11792951D01*
X11790759Y8161706D01*
X11784129Y8171629D01*
X11774205Y8178260D01*
X11770686Y8178960D01*
Y8187426D01*
X11767969Y8201083D01*
X11760234Y8212660D01*
X11742660Y8230234D01*
X11731082Y8237969D01*
X11717426Y8240686D01*
X11300000D01*
X11286343Y8237969D01*
X11280621Y8234146D01*
X11271156Y8240469D01*
X11257500Y8243186D01*
X10872500D01*
X10858844Y8240469D01*
X10847266Y8232734D01*
X10819766Y8205234D01*
X10812031Y8193656D01*
X10809314Y8180000D01*
Y8174954D01*
X10800795Y8173260D01*
X10790871Y8166629D01*
X10784241Y8156706D01*
X10781912Y8145000D01*
Y8085828D01*
X10765787Y8069703D01*
X10753087Y8074964D01*
Y8145000D01*
X10750759Y8156706D01*
X10744129Y8166629D01*
X10734205Y8173260D01*
X10722500Y8175588D01*
X10662500D01*
X10650795Y8173260D01*
X10640871Y8166629D01*
X10634241Y8156706D01*
X10631912Y8145000D01*
Y8065001D01*
X10634241Y8053295D01*
X10640871Y8043372D01*
X10646618Y8039532D01*
Y7987969D01*
X10640871Y7984129D01*
X10634241Y7974206D01*
X10631912Y7962500D01*
Y7882501D01*
X10634241Y7870795D01*
X10640871Y7860872D01*
X10650795Y7854241D01*
X10662500Y7851913D01*
X10722500D01*
X10731814Y7844269D01*
Y7387500D01*
X10734531Y7373844D01*
X10742266Y7362266D01*
X10846814Y7257719D01*
Y7220025D01*
X10840112Y7213323D01*
X10832500Y7194946D01*
Y7175054D01*
X10836474Y7165461D01*
X10827988Y7152760D01*
X10786890D01*
X10583341Y7356310D01*
Y8185000D01*
X10580803Y8197759D01*
X10573576Y8208575D01*
X10433575Y8348575D01*
X10422759Y8355803D01*
X10410000Y8358341D01*
X10312316D01*
X10303268Y8367388D01*
X10284891Y8375000D01*
X10265000D01*
X10246623Y8367388D01*
X10232558Y8353323D01*
X10224946Y8334946D01*
X10213000Y8336766D01*
Y8424500D01*
X9975000D01*
Y8383049D01*
X9921425Y8329474D01*
X9914197Y8318658D01*
X9911659Y8305899D01*
Y7950000D01*
X9914197Y7937241D01*
X9921425Y7926425D01*
X9958208Y7889642D01*
X9957323Y7877395D01*
X9946281Y7872654D01*
X9938586Y7877796D01*
X9927125Y7880075D01*
X9916392D01*
X9840234Y7956233D01*
X9828657Y7963969D01*
X9827502Y7964198D01*
X9823425Y7977958D01*
X9862734Y8017266D01*
X9870469Y8028844D01*
X9873186Y8042500D01*
Y8392500D01*
X9870469Y8406156D01*
X9862734Y8417733D01*
X9790233Y8490234D01*
X9778656Y8497969D01*
X9765000Y8500686D01*
X9457500D01*
X9443843Y8497969D01*
X9432266Y8490234D01*
X9405120Y8463088D01*
X9345000D01*
X9333295Y8460759D01*
X9323371Y8454129D01*
X9316741Y8444205D01*
X9314412Y8432500D01*
Y8372500D01*
X9316741Y8360795D01*
X9323371Y8350871D01*
X9333295Y8344241D01*
X9345000Y8341912D01*
X9425000D01*
X9436705Y8344241D01*
X9446629Y8350871D01*
X9453259Y8360795D01*
X9455587Y8372500D01*
Y8412620D01*
X9472281Y8429314D01*
X9750218D01*
X9801814Y8377718D01*
Y8057282D01*
X9778719Y8034186D01*
X9720000D01*
Y8043500D01*
X9482000D01*
Y7950500D01*
X9548984D01*
X9554183Y7938674D01*
X9547854Y7930686D01*
X9427500D01*
X9413843Y7927969D01*
X9402266Y7920234D01*
X9379533Y7897500D01*
X9280000D01*
Y7863186D01*
X9262500D01*
X9248844Y7860470D01*
X9237267Y7852734D01*
X8845218Y7460686D01*
X8615000D01*
X8601344Y7457969D01*
X8589766Y7450234D01*
X8494766Y7355233D01*
X8487031Y7343656D01*
X8484314Y7330000D01*
Y7198087D01*
X8480000D01*
X8468295Y7195759D01*
X8458371Y7189129D01*
X8451741Y7179205D01*
X8449412Y7167500D01*
Y7152380D01*
X8262266Y6965234D01*
X8254531Y6953656D01*
X8251814Y6940000D01*
Y5822500D01*
X8254531Y5808844D01*
X8262266Y5797266D01*
X8449314Y5610218D01*
Y5566127D01*
X8342573D01*
X8334102Y5578827D01*
X8340000Y5593066D01*
Y5616935D01*
X8330865Y5638987D01*
X8313987Y5655866D01*
X8291935Y5665000D01*
X8289596D01*
X8235979Y5718616D01*
Y7021384D01*
X8411048Y7196452D01*
X8422099Y7212991D01*
X8425980Y7232500D01*
Y8026384D01*
X8508616Y8109020D01*
X8859931D01*
X8864814Y8102700D01*
X8858961Y8090000D01*
X8680000D01*
Y7895000D01*
X8680000D01*
X8682535Y7882300D01*
X8682329Y7881999D01*
X8616000D01*
Y7757999D01*
X8654712D01*
X8657031Y7746344D01*
X8664766Y7734766D01*
X8707266Y7692266D01*
X8718844Y7684531D01*
X8732500Y7681814D01*
X9007500D01*
X9021156Y7684531D01*
X9032734Y7692266D01*
X9177734Y7837266D01*
X9185469Y7848844D01*
X9188186Y7862500D01*
Y8005218D01*
X9234880Y8051912D01*
X9285000D01*
X9296705Y8054241D01*
X9306629Y8060871D01*
X9313259Y8070795D01*
X9313515Y8072077D01*
X9326906Y8074305D01*
X9330871Y8068371D01*
X9340795Y8061741D01*
X9352500Y8059412D01*
X9432500D01*
X9444205Y8061741D01*
X9454129Y8068371D01*
X9460759Y8078295D01*
X9461609Y8082564D01*
X9482000D01*
Y8077500D01*
X9720000D01*
Y8170500D01*
X9482000D01*
Y8153936D01*
X9462305D01*
X9460759Y8161705D01*
X9454129Y8171629D01*
X9444205Y8178259D01*
X9432500Y8180588D01*
X9431915Y8193288D01*
X9436705Y8194241D01*
X9446629Y8200871D01*
X9453259Y8210795D01*
X9455302Y8221064D01*
X9482000D01*
Y8204500D01*
X9720000D01*
Y8297500D01*
X9482000D01*
Y8292436D01*
X9453611D01*
X9453259Y8294205D01*
X9446629Y8304129D01*
X9436705Y8310759D01*
X9425000Y8313088D01*
X9345000D01*
X9333295Y8310759D01*
X9325889Y8305811D01*
X9320241Y8305093D01*
X9310704Y8308030D01*
X9306629Y8314129D01*
X9296705Y8320759D01*
X9285000Y8323087D01*
X9205000D01*
X9193295Y8320759D01*
X9183371Y8314129D01*
X9176741Y8304205D01*
X9174412Y8292500D01*
Y8267380D01*
X9029766Y8122734D01*
X9022031Y8111156D01*
X9019314Y8097500D01*
Y7917281D01*
X8989636Y7887603D01*
X8980000Y7895927D01*
Y7987575D01*
X8980979Y7992500D01*
Y8115001D01*
X8977099Y8134510D01*
X8966048Y8151049D01*
X8921048Y8196048D01*
X8904509Y8207099D01*
X8885000Y8210980D01*
X8487500D01*
X8467991Y8207099D01*
X8451452Y8196048D01*
X8338952Y8083548D01*
X8327901Y8067009D01*
X8324020Y8047500D01*
Y7253616D01*
X8148952Y7078548D01*
X8137901Y7062009D01*
X8134020Y7042500D01*
Y5697500D01*
X8137901Y5677991D01*
X8148952Y5661452D01*
X8221882Y5588522D01*
X8225898Y5578827D01*
X8217427Y5566127D01*
X8101127D01*
Y5578865D01*
X8104129Y5580871D01*
X8110759Y5590795D01*
X8113088Y5602500D01*
Y5662500D01*
X8110759Y5674205D01*
X8104129Y5684129D01*
X8094205Y5690759D01*
X8082500Y5693087D01*
X8066081D01*
X8059468Y5695827D01*
X8042500Y5698060D01*
X7959150D01*
Y5792800D01*
X7804850D01*
Y5660561D01*
X7223000D01*
X7214563Y5659450D01*
X7145850D01*
Y5530550D01*
X7214563D01*
X7223000Y5529439D01*
X7804850D01*
Y5397200D01*
X7959150D01*
Y5566939D01*
X7971440D01*
X7977604Y5554239D01*
X7974241Y5549205D01*
X7971912Y5537500D01*
Y5477500D01*
X7974241Y5465795D01*
X7980871Y5455871D01*
X7990795Y5449241D01*
X8002500Y5446912D01*
X8082500D01*
X8092359Y5448874D01*
X8617500D01*
X8639935Y5453336D01*
X8658955Y5466045D01*
X8671664Y5485065D01*
X8674572Y5499686D01*
X9239005Y6064118D01*
X9326562D01*
X9331822Y6051418D01*
X9053952Y5773548D01*
X9042901Y5757009D01*
X9039020Y5737500D01*
Y5421116D01*
X8891384Y5273480D01*
X8321212D01*
X8299435Y5282500D01*
X8275565D01*
X8253513Y5273366D01*
X8251127Y5270980D01*
X7389224D01*
X7293215Y5366989D01*
Y5429606D01*
X7152786D01*
Y5420701D01*
X7105590D01*
X7101629Y5426629D01*
X7091705Y5433259D01*
X7080000Y5435588D01*
X7000000D01*
X6988295Y5433259D01*
X6981481Y5428706D01*
X6969129Y5429129D01*
X6959205Y5435759D01*
X6947500Y5438087D01*
X6867500D01*
X6865350Y5437660D01*
X6854861Y5447784D01*
X6856088Y5452500D01*
X6892500D01*
Y5680000D01*
X7110000D01*
Y6007108D01*
X7450000D01*
X7457803Y6008660D01*
X7464419Y6013081D01*
X7464420Y6013081D01*
X7511919Y6060581D01*
X7516340Y6067196D01*
X7517892Y6075000D01*
Y6306553D01*
X7634800Y6423461D01*
X7647500Y6418201D01*
Y6415054D01*
X7655112Y6396677D01*
X7669177Y6382612D01*
X7687554Y6375000D01*
X7699400D01*
X7703844Y6372031D01*
X7717500Y6369314D01*
X7729413D01*
Y6357500D01*
X7731741Y6345795D01*
X7738371Y6335871D01*
X7748295Y6329241D01*
X7760000Y6326912D01*
X7820000D01*
X7831705Y6329241D01*
X7841629Y6335871D01*
X7848259Y6345795D01*
X7850588Y6357500D01*
Y6437500D01*
X7848259Y6449205D01*
X7844467Y6454881D01*
X7839129Y6466589D01*
X7845759Y6476512D01*
X7848088Y6488217D01*
Y6531968D01*
X7857091Y6537984D01*
X7907095Y6587988D01*
X7912500Y6586913D01*
X7972500D01*
X7984206Y6589241D01*
X7994129Y6595871D01*
X8000759Y6605795D01*
X8003088Y6617500D01*
Y6697500D01*
X8000759Y6709206D01*
X7994129Y6719129D01*
Y6730872D01*
X8000759Y6740795D01*
X8002958Y6751848D01*
X8005307Y6753112D01*
X8015788Y6756001D01*
X8024177Y6747612D01*
X8042554Y6740000D01*
X8062445D01*
X8080823Y6747612D01*
X8094888Y6761677D01*
X8102500Y6780055D01*
Y6799946D01*
X8094888Y6818323D01*
X8080823Y6832388D01*
X8062445Y6840000D01*
X8042554D01*
X8024177Y6832388D01*
X8017630Y6825841D01*
X8003088D01*
Y6832500D01*
X8000759Y6844206D01*
X7994129Y6854129D01*
X7984206Y6860759D01*
X7972500Y6863088D01*
X7912500D01*
X7900795Y6860759D01*
X7890871Y6854129D01*
X7884241Y6844206D01*
X7881913Y6832500D01*
Y6752500D01*
X7884241Y6740795D01*
X7890871Y6730872D01*
Y6719129D01*
X7884241Y6709206D01*
X7881913Y6697500D01*
Y6660088D01*
X7870906Y6652734D01*
X7864821Y6646649D01*
X7853088Y6651509D01*
Y6697500D01*
X7850760Y6709206D01*
X7844129Y6719129D01*
X7844637Y6721212D01*
X7847824Y6731934D01*
X7851340Y6737197D01*
X7852892Y6745000D01*
Y6751515D01*
X7853088Y6752500D01*
Y6832500D01*
X7852892Y6833486D01*
Y6889013D01*
X7853088Y6890000D01*
Y6970000D01*
X7852892Y6970987D01*
Y6972499D01*
X7852892Y6972500D01*
X7851340Y6980304D01*
X7850911Y6980945D01*
X7850760Y6981706D01*
X7844129Y6991629D01*
X7838344Y6995495D01*
X7836919Y6996919D01*
X7830304Y7001340D01*
X7822500Y7002892D01*
X7495001D01*
X7495000Y7002892D01*
X7487196Y7001340D01*
X7480580Y6996919D01*
X7458081Y6974420D01*
X7453660Y6967804D01*
X7452108Y6960000D01*
Y6870000D01*
X7453660Y6862197D01*
X7458081Y6855581D01*
X7458081Y6855580D01*
X7459999Y6853662D01*
Y6852000D01*
X7461661D01*
X7474962Y6838700D01*
X7474780Y6836056D01*
X7470802Y6826000D01*
X7459999D01*
Y6725000D01*
X7561066D01*
X7565499Y6724118D01*
X7625996D01*
X7639381Y6710733D01*
X7634520Y6699000D01*
X7459999D01*
Y6598000D01*
X7463267D01*
X7465424Y6595418D01*
X7468081Y6581919D01*
X7463660Y6575304D01*
X7463003Y6572000D01*
X7459999D01*
Y6569397D01*
X7457196Y6568840D01*
X7450581Y6564419D01*
X7446160Y6557804D01*
X7444608Y6550000D01*
Y6485392D01*
X7295000D01*
X7287197Y6483840D01*
X7280581Y6479419D01*
X7276160Y6472804D01*
X7275918Y6471582D01*
X7274696Y6471340D01*
X7268081Y6466919D01*
X7263660Y6460304D01*
X7263410Y6459043D01*
X7250725Y6452945D01*
X7249610Y6452988D01*
X7249205Y6453259D01*
X7237500Y6455588D01*
X7177500D01*
X7165795Y6453259D01*
X7155871Y6446629D01*
X7149241Y6436705D01*
X7146912Y6425000D01*
Y6418382D01*
X7119005D01*
X7079086Y6458300D01*
X7080083Y6471000D01*
X7119999D01*
Y6572000D01*
X6919999D01*
Y6471000D01*
X6986618D01*
Y6440000D01*
X6990111Y6422442D01*
X7000057Y6407557D01*
X7067557Y6340057D01*
X7082442Y6330111D01*
X7100000Y6326619D01*
X7153701D01*
X7155871Y6323371D01*
X7165795Y6316741D01*
X7177500Y6314412D01*
X7237500D01*
X7249205Y6316741D01*
X7249408Y6316876D01*
X7262108Y6310088D01*
Y6260392D01*
X6975947D01*
X6904420Y6331919D01*
X6897804Y6336340D01*
X6890000Y6337892D01*
X6854947D01*
X6853696Y6350592D01*
X6856554Y6351160D01*
X6863169Y6355581D01*
X6863170Y6355581D01*
X6893169Y6385581D01*
X6897590Y6392196D01*
X6899142Y6400000D01*
X6899142Y6432500D01*
Y6571553D01*
X6914697Y6587108D01*
X7086249D01*
X7086250Y6587108D01*
X7094054Y6588660D01*
X7100670Y6593081D01*
X7105589Y6598000D01*
X7119999D01*
Y6699000D01*
X7101089D01*
X7090670Y6709419D01*
X7086358Y6712301D01*
X7087886Y6723524D01*
X7088470Y6725001D01*
X7119999D01*
Y6826000D01*
X7018933D01*
X7014499Y6826882D01*
X6943004D01*
X6875587Y6894299D01*
Y6932500D01*
X6873259Y6944206D01*
X6866629Y6954129D01*
X6856705Y6960760D01*
X6845000Y6963088D01*
X6785000D01*
X6773295Y6960760D01*
X6763371Y6954129D01*
X6756741Y6944206D01*
X6754412Y6932500D01*
Y6852500D01*
X6756741Y6840795D01*
X6763371Y6830872D01*
X6773295Y6824241D01*
X6785000Y6821913D01*
X6818201D01*
X6863863Y6776251D01*
X6856705Y6765759D01*
X6845000Y6768088D01*
X6785000D01*
X6784014Y6767892D01*
X6773750D01*
X6765947Y6766340D01*
X6759331Y6761919D01*
X6754911Y6755303D01*
X6753359Y6747500D01*
Y6554772D01*
X6751912Y6547500D01*
Y6499500D01*
X6734821Y6482409D01*
X6723087Y6487269D01*
Y6547500D01*
X6720759Y6559205D01*
X6714129Y6569129D01*
X6706876Y6573975D01*
X6712500Y6587555D01*
Y6607446D01*
X6704888Y6625823D01*
X6690823Y6639888D01*
X6672446Y6647500D01*
X6652555D01*
X6634177Y6639888D01*
X6620112Y6625823D01*
X6612500Y6607446D01*
Y6587555D01*
X6618125Y6573975D01*
X6610871Y6569129D01*
X6604241Y6559205D01*
X6601912Y6547500D01*
Y6473637D01*
X6589212Y6468376D01*
X6560392Y6497196D01*
X6560392Y7060735D01*
X6712833Y7192108D01*
X7212803D01*
X7228358Y7176553D01*
Y7120000D01*
X7229911Y7112196D01*
X7234331Y7105581D01*
X7234332Y7105580D01*
X7245000Y7094911D01*
Y7092500D01*
X7247411D01*
X7251831Y7088081D01*
X7258447Y7083660D01*
X7266250Y7082108D01*
X7518750Y7082108D01*
X7526554Y7083660D01*
X7533169Y7088080D01*
X7533170Y7088081D01*
X7537589Y7092500D01*
X7550000D01*
Y7104911D01*
X7551919Y7106830D01*
X7551919Y7106830D01*
X7556340Y7113446D01*
X7557892Y7121249D01*
Y7307813D01*
X7557608Y7309242D01*
X7557687Y7310697D01*
X7556839Y7313108D01*
X7556340Y7315616D01*
X7555530Y7316828D01*
X7555047Y7318202D01*
X7553340Y7320106D01*
X7551919Y7322232D01*
X7550708Y7323041D01*
X7549735Y7324126D01*
X7500152Y7361313D01*
X7497847Y7362419D01*
X7495720Y7363840D01*
X7494291Y7364124D01*
X7492978Y7364754D01*
X7490424Y7364893D01*
X7487917Y7365392D01*
X6504063D01*
X6500738Y7364731D01*
X6497379Y7364265D01*
X6496855Y7363958D01*
X6496259Y7363840D01*
X6493439Y7361955D01*
X6490515Y7360241D01*
X6301452Y7192184D01*
X6301086Y7191701D01*
X6300581Y7191363D01*
X6298696Y7188542D01*
X6296651Y7185840D01*
X6296498Y7185252D01*
X6296160Y7184747D01*
X6295499Y7181423D01*
X6294643Y7178141D01*
X6294727Y7177539D01*
X6294608Y7176943D01*
X6294608Y6466250D01*
X6294608Y6466249D01*
X6296160Y6458446D01*
X6300580Y6451830D01*
X6300581Y6451829D01*
X6396830Y6355581D01*
X6403445Y6351160D01*
X6411249Y6349608D01*
X6556303D01*
X6557554Y6336908D01*
X6554696Y6336340D01*
X6548081Y6331919D01*
X6523081Y6306919D01*
X6518660Y6300304D01*
X6517108Y6292500D01*
Y6107500D01*
X6345000D01*
Y5680000D01*
X6552500D01*
Y5452500D01*
X6705004D01*
Y5410473D01*
X6704413Y5407500D01*
Y5347500D01*
X6706741Y5335795D01*
X6713372Y5325871D01*
X6723295Y5319241D01*
X6735000Y5316912D01*
X6815000D01*
X6826706Y5319241D01*
X6836629Y5325871D01*
X6845871Y5325871D01*
X6855795Y5319241D01*
X6867500Y5316912D01*
X6947500D01*
X6959205Y5319241D01*
X6969129Y5325871D01*
X6978372Y5323371D01*
X6988295Y5316741D01*
X7000000Y5314412D01*
X7080000D01*
X7091705Y5316741D01*
X7094701Y5318742D01*
X7152786D01*
Y5302394D01*
X7213619D01*
X7332060Y5183952D01*
X7348599Y5172901D01*
X7368108Y5169020D01*
X8259824D01*
X8275565Y5162500D01*
X8299435D01*
X8321212Y5171521D01*
X8912500D01*
X8932009Y5175401D01*
X8948548Y5186452D01*
X9111116Y5349020D01*
X9345000D01*
X9364509Y5352901D01*
X9381048Y5363952D01*
X9418548Y5401452D01*
X9429599Y5417990D01*
X9433479Y5437500D01*
Y5477500D01*
X9541716D01*
Y5440933D01*
X9541716Y5440931D01*
X9544821Y5425324D01*
X9553661Y5412093D01*
X9577092Y5388662D01*
X9577093Y5388662D01*
X9590324Y5379821D01*
X9605931Y5376716D01*
X9753430D01*
X9753432Y5376716D01*
X9769039Y5379821D01*
X9782270Y5388662D01*
X9928021Y5534412D01*
X9970000D01*
X9981705Y5536741D01*
X9991629Y5543371D01*
X9998259Y5553295D01*
X9999012Y5557077D01*
X10012099Y5557775D01*
X10013371Y5555871D01*
X10023295Y5549241D01*
X10035000Y5546912D01*
X10115000D01*
X10126705Y5549241D01*
X10136629Y5555871D01*
X10142706Y5564967D01*
X10184500D01*
Y5557500D01*
X10422500D01*
Y5650499D01*
X10184500D01*
Y5646534D01*
X10143790D01*
X10143259Y5649205D01*
X10136629Y5659129D01*
X10132409Y5661948D01*
X10131782Y5674619D01*
X10140927Y5684618D01*
X10184500D01*
Y5684500D01*
X10422500D01*
Y5777499D01*
X10306434D01*
X10302000Y5778381D01*
X10297566Y5777499D01*
X10184500D01*
Y5776381D01*
X10137635D01*
X10134129Y5781629D01*
X10124205Y5788259D01*
X10112500Y5790588D01*
X10032500D01*
X10020795Y5788259D01*
X10013495Y5783382D01*
X9998920D01*
X9998259Y5786705D01*
X9991629Y5796629D01*
X9981705Y5803259D01*
X9970000Y5805588D01*
X9950881D01*
Y5833211D01*
X9947389Y5850769D01*
X9937443Y5865654D01*
X9908153Y5894943D01*
X9893269Y5904889D01*
X9875710Y5908382D01*
X9481790D01*
X9464231Y5904889D01*
X9449346Y5894943D01*
X9420057Y5865654D01*
X9410111Y5850769D01*
X9406618Y5833211D01*
Y5822000D01*
X9379000D01*
Y5698000D01*
X9437208D01*
Y5683250D01*
X9432499Y5672500D01*
X9332500D01*
Y5579925D01*
X9331520Y5575000D01*
Y5458616D01*
X9323884Y5450979D01*
X9140979D01*
Y5716384D01*
X9408548Y5983952D01*
X9411338Y5988127D01*
X9414888Y5991677D01*
X9416809Y5996316D01*
X9419599Y6000491D01*
X9420578Y6005415D01*
X9422500Y6010054D01*
Y6015076D01*
X9423479Y6020000D01*
X9422500Y6024924D01*
Y6029946D01*
X9420578Y6034585D01*
X9419599Y6039509D01*
X9416809Y6043683D01*
X9414888Y6048323D01*
X9411792Y6051418D01*
X9411868Y6052914D01*
X9417589Y6064118D01*
X10026619D01*
Y5939418D01*
X10020795Y5938259D01*
X10010871Y5931629D01*
X10004241Y5921705D01*
X10001912Y5910000D01*
Y5850000D01*
X10004241Y5838295D01*
X10010871Y5828371D01*
X10020795Y5821741D01*
X10032500Y5819413D01*
X10112500D01*
X10124205Y5821741D01*
X10134129Y5828371D01*
X10140759Y5838295D01*
X10143088Y5850000D01*
Y5910000D01*
X10140759Y5921705D01*
X10134129Y5931629D01*
X10124205Y5938259D01*
X10118382Y5939418D01*
Y6064118D01*
X10459119D01*
Y5524381D01*
X10305000D01*
X10300567Y5523499D01*
X10184500D01*
Y5474444D01*
X10102556Y5392500D01*
X10002500D01*
Y5252500D01*
X10152500D01*
Y5279789D01*
X10165200Y5281040D01*
X10166741Y5273294D01*
X10173371Y5263371D01*
X10183295Y5256740D01*
X10195000Y5254412D01*
X10275000D01*
X10286705Y5256740D01*
X10296629Y5263371D01*
X10298198Y5265720D01*
X10313372Y5265871D01*
X10323295Y5259241D01*
X10335000Y5256912D01*
X10415000D01*
X10426706Y5259241D01*
X10436629Y5265871D01*
X10438198Y5268220D01*
X10453372Y5268371D01*
X10463295Y5261741D01*
X10475000Y5259412D01*
X10555000D01*
X10566705Y5261741D01*
X10576629Y5268371D01*
X10583843Y5269379D01*
X10592065Y5268614D01*
X10599414Y5263704D01*
X10610875Y5261425D01*
X10667125D01*
X10678586Y5263704D01*
X10688303Y5270197D01*
X10694796Y5279914D01*
X10697076Y5291375D01*
Y5352625D01*
X10695318Y5361459D01*
X10700139Y5370386D01*
X10703339Y5374159D01*
X10766661D01*
X10769861Y5370386D01*
X10774682Y5361459D01*
X10772925Y5352625D01*
Y5291375D01*
X10775205Y5279914D01*
X10781697Y5270197D01*
X10791414Y5263704D01*
X10802241Y5261551D01*
Y5254574D01*
X10804957Y5240917D01*
X10812693Y5229340D01*
X10879766Y5162267D01*
X10881912Y5160833D01*
Y5132500D01*
X10884241Y5120795D01*
X10890871Y5110871D01*
X10900795Y5104241D01*
X10912500Y5101912D01*
X10992500D01*
X11004205Y5104241D01*
X11014129Y5110871D01*
X11020759Y5120795D01*
X11023088Y5132500D01*
Y5192500D01*
X11020759Y5204205D01*
X11014129Y5214129D01*
X11004205Y5220759D01*
X10992500Y5223088D01*
X10927994D01*
X10927500Y5223186D01*
X10919782D01*
X10901894Y5241073D01*
X10908151Y5252777D01*
X10912500Y5251912D01*
X10992500D01*
X11004205Y5254241D01*
X11014129Y5260871D01*
X11020759Y5270795D01*
X11023088Y5282500D01*
Y5342500D01*
X11020759Y5354205D01*
X11014129Y5364129D01*
X11004205Y5370759D01*
X10992500Y5373088D01*
X10984729D01*
X10983303Y5380259D01*
X10976075Y5391075D01*
X10936075Y5431075D01*
X10930318Y5434922D01*
X10934171Y5447622D01*
X10940807D01*
X10953260Y5450099D01*
X10956621Y5449541D01*
X10965960Y5444549D01*
Y5440615D01*
X10973571Y5422238D01*
X10987637Y5408173D01*
X11006014Y5400561D01*
X11025905D01*
X11034493Y5404118D01*
X11367500D01*
X11385058Y5407611D01*
X11399943Y5417557D01*
X11834943Y5852557D01*
X11844889Y5867442D01*
X11848381Y5885000D01*
Y6348495D01*
X11987443Y6487557D01*
X11997389Y6502442D01*
X12000882Y6520000D01*
Y6562500D01*
X11997389Y6580058D01*
X11990686Y6590090D01*
Y6672500D01*
X11987969Y6686156D01*
X11980234Y6697734D01*
X11949827Y6728140D01*
X11944751Y6735737D01*
X11924248Y6756240D01*
X11912671Y6763976D01*
X11904517Y6765598D01*
Y6794006D01*
X11734322D01*
Y6828764D01*
X11734323Y6828765D01*
X11731994Y6840471D01*
X11725364Y6850394D01*
X11725363Y6850395D01*
X11708177Y6867581D01*
X11713037Y6879314D01*
X11735500D01*
Y6865000D01*
X11829499D01*
X11829500Y6865000D01*
Y6864999D01*
X11829500Y6865000D01*
X11841002Y6862109D01*
X11841770Y6861596D01*
X11852500Y6859461D01*
X11897500D01*
X11908230Y6861596D01*
X11917326Y6867674D01*
X11917363Y6867728D01*
X11932637D01*
X11932674Y6867674D01*
X11941770Y6861596D01*
X11952500Y6859461D01*
X11997500D01*
X12008230Y6861596D01*
X12012578Y6864501D01*
X12023000Y6870000D01*
X12116040D01*
Y6860638D01*
X12183980D01*
Y6906180D01*
X12232046D01*
Y6906179D01*
Y6906179D01*
X12237859Y6895693D01*
X12237960Y6893747D01*
Y6860638D01*
X12305900D01*
Y6880890D01*
X12346647D01*
Y5375872D01*
X12333947Y5370612D01*
X12314743Y5389815D01*
X12285262Y5409514D01*
X12252504Y5423083D01*
X12217728Y5430000D01*
X12182272D01*
X12147496Y5423083D01*
X12114738Y5409514D01*
X12085257Y5389815D01*
X12060185Y5364743D01*
X12040486Y5335262D01*
X12026917Y5302504D01*
X12020000Y5267728D01*
Y5232271D01*
X12026917Y5197496D01*
X12040486Y5164738D01*
X12060185Y5135257D01*
X12085257Y5110185D01*
X12114738Y5090486D01*
X12147496Y5076917D01*
X12182272Y5070000D01*
X12217728D01*
X12252504Y5076917D01*
X12285262Y5090486D01*
X12314743Y5110185D01*
X12333947Y5129388D01*
X12346647Y5124128D01*
Y5048125D01*
X6356647D01*
X6257897Y5146875D01*
X6251663Y8516636D01*
X6260635Y8525625D01*
X12346647D01*
Y8445872D01*
D02*
G37*
G36*
X10437279Y8113070D02*
X10436325Y8106112D01*
X10423088Y8103063D01*
X10421075Y8106076D01*
X10387912Y8139238D01*
X10381234Y8149234D01*
X10369657Y8156969D01*
X10356000Y8159686D01*
X10213000D01*
Y8170500D01*
X9978340D01*
Y8204500D01*
X10213000D01*
Y8219159D01*
X10331190D01*
X10437279Y8113070D01*
D02*
G37*
G36*
X11221741Y8159205D02*
X11219412Y8147500D01*
Y8067501D01*
X11221741Y8055795D01*
X11228371Y8045872D01*
X11238295Y8039241D01*
X11250000Y8036913D01*
X11310000D01*
X11321705Y8039241D01*
X11331629Y8045872D01*
X11338259Y8055795D01*
X11340587Y8067501D01*
Y8147500D01*
X11338774Y8156614D01*
X11343556Y8165491D01*
X11346779Y8169314D01*
X11515213D01*
X11523228Y8156614D01*
X11521912Y8150000D01*
Y8070001D01*
X11524241Y8058295D01*
X11530871Y8048372D01*
X11536618Y8044532D01*
Y7990469D01*
X11530871Y7986629D01*
X11524241Y7976706D01*
X11521912Y7965000D01*
Y7885000D01*
X11524241Y7873295D01*
X11530871Y7863372D01*
X11540795Y7856741D01*
X11552500Y7854413D01*
X11612500D01*
X11624205Y7856741D01*
X11634129Y7863372D01*
X11640759Y7873295D01*
X11643088Y7885000D01*
Y7965000D01*
X11640759Y7976706D01*
X11634129Y7986629D01*
X11628381Y7990469D01*
Y8044532D01*
X11634129Y8048372D01*
X11640759Y8058295D01*
X11643087Y8070001D01*
Y8150000D01*
X11641772Y8156614D01*
X11649787Y8169314D01*
X11665213D01*
X11673228Y8156614D01*
X11671912Y8150000D01*
Y8070001D01*
X11674241Y8058295D01*
X11680871Y8048372D01*
X11690795Y8041741D01*
X11702500Y8039413D01*
X11762500D01*
X11774205Y8041741D01*
X11784129Y8048372D01*
X11789114Y8055833D01*
X11801778Y8053736D01*
X11801814Y8053721D01*
Y7981280D01*
X11801778Y7981265D01*
X11789114Y7979168D01*
X11784129Y7986629D01*
X11774205Y7993260D01*
X11762500Y7995588D01*
X11702500D01*
X11690795Y7993260D01*
X11680871Y7986629D01*
X11674241Y7976706D01*
X11671912Y7965000D01*
Y7885000D01*
X11674241Y7873295D01*
X11680871Y7863372D01*
X11690795Y7856741D01*
X11699159Y7855077D01*
Y7836310D01*
X11412574Y7549725D01*
X11400841Y7554585D01*
Y7892500D01*
X11398303Y7905259D01*
X11391076Y7916075D01*
X11356075Y7951075D01*
X11345259Y7958303D01*
X11340587Y7959232D01*
Y7965000D01*
X11338259Y7976706D01*
X11331629Y7986629D01*
X11321705Y7993260D01*
X11310000Y7995588D01*
X11250000D01*
X11238295Y7993260D01*
X11228371Y7986629D01*
X11221741Y7976706D01*
X11219412Y7965000D01*
Y7885000D01*
X11221741Y7873295D01*
X11228371Y7863372D01*
X11238295Y7856741D01*
X11250000Y7854413D01*
X11310000D01*
X11321705Y7856741D01*
X11334160Y7849789D01*
Y7567084D01*
X11322426Y7562224D01*
X10938575Y7946076D01*
X10927758Y7953303D01*
X10915000Y7955841D01*
X10903088D01*
Y7962500D01*
X10900759Y7974206D01*
X10894129Y7984129D01*
X10884205Y7990760D01*
X10872500Y7993088D01*
X10812500D01*
X10809069Y7995904D01*
X10808424Y8011405D01*
X10831432Y8034413D01*
X10872500D01*
X10884205Y8036741D01*
X10894129Y8043372D01*
X10900759Y8053295D01*
X10903088Y8065001D01*
Y8145000D01*
X10900759Y8156706D01*
X10899150Y8159114D01*
X10905939Y8171814D01*
X11064891D01*
X11071740Y8159205D01*
X11069412Y8147500D01*
Y8067501D01*
X11071740Y8055795D01*
X11078371Y8045872D01*
X11084118Y8042032D01*
Y7990469D01*
X11078371Y7986629D01*
X11071741Y7976706D01*
X11069412Y7965000D01*
Y7885000D01*
X11071741Y7873295D01*
X11078371Y7863372D01*
X11088295Y7856741D01*
X11100000Y7854413D01*
X11160000D01*
X11171705Y7856741D01*
X11181629Y7863372D01*
X11188259Y7873295D01*
X11190587Y7885000D01*
Y7965000D01*
X11188259Y7976706D01*
X11181629Y7986629D01*
X11175881Y7990469D01*
Y8042032D01*
X11181628Y8045872D01*
X11188259Y8055795D01*
X11190587Y8067501D01*
Y8147500D01*
X11188259Y8159205D01*
X11195108Y8171814D01*
X11214891D01*
X11221741Y8159205D01*
D02*
G37*
G36*
X10364159Y8068690D02*
Y7242500D01*
X10366697Y7229741D01*
X10373925Y7218925D01*
X10565075Y7027774D01*
X10560215Y7016041D01*
X9980776D01*
X9968017Y7013503D01*
X9957201Y7006276D01*
X9949531Y6998605D01*
X9925665Y7005000D01*
X9899335D01*
X9873902Y6998185D01*
X9851099Y6985020D01*
X9832480Y6966401D01*
X9819315Y6943599D01*
X9812500Y6918165D01*
Y6891835D01*
X9819315Y6866402D01*
X9832480Y6843599D01*
X9851099Y6824981D01*
X9873902Y6811815D01*
X9899335Y6805000D01*
X9925665D01*
X9951098Y6811815D01*
X9973901Y6824981D01*
X9992520Y6843599D01*
X10005685Y6866402D01*
X10012500Y6891835D01*
Y6918165D01*
X10007544Y6936660D01*
X10016054Y6949360D01*
X10530000D01*
Y6865000D01*
Y6770000D01*
X10595000D01*
Y6865000D01*
X10630000D01*
Y6826727D01*
X10629159Y6822500D01*
Y6769181D01*
X10631697Y6756422D01*
X10638925Y6745606D01*
X10639531Y6745000D01*
X10588271Y6693740D01*
X10003294D01*
X9992520Y6712401D01*
X9973901Y6731020D01*
X9951098Y6744185D01*
X9925665Y6751000D01*
X9899335D01*
X9873902Y6744185D01*
X9851099Y6731020D01*
X9832480Y6712401D01*
X9819315Y6689599D01*
X9812500Y6664165D01*
Y6637835D01*
X9819315Y6612402D01*
X9832480Y6589599D01*
X9851099Y6570981D01*
X9873902Y6557815D01*
X9899335Y6551000D01*
X9925665D01*
X9951098Y6557815D01*
X9973901Y6570981D01*
X9992520Y6589599D01*
X10005685Y6612402D01*
X10009613Y6627059D01*
X10421565D01*
X10429649Y6614359D01*
X10425000Y6603136D01*
Y6583245D01*
X10432612Y6564867D01*
X10446677Y6550802D01*
X10465054Y6543190D01*
X10484946D01*
X10503323Y6550802D01*
X10512370Y6559850D01*
X10785000D01*
Y6475500D01*
X10801439D01*
Y6462257D01*
X10804156Y6448601D01*
X10811892Y6437023D01*
X10831724Y6417191D01*
X10824766Y6410234D01*
X10817031Y6398656D01*
X10815905Y6393000D01*
X10808000D01*
Y6295000D01*
X10992000D01*
Y6343849D01*
X11038776Y6390625D01*
X11046003Y6401442D01*
X11046711Y6405000D01*
X11100539D01*
X11106815Y6392300D01*
X11104096Y6388230D01*
X11101962Y6377500D01*
Y6322500D01*
X11104096Y6311770D01*
X11110174Y6302674D01*
X11119270Y6296596D01*
X11130000Y6294461D01*
X11175000D01*
X11185730Y6296596D01*
X11194826Y6302674D01*
X11200904Y6311770D01*
X11203039Y6322500D01*
Y6349261D01*
X11203186Y6350000D01*
Y6405000D01*
X11284144D01*
Y6276316D01*
X11233683Y6225856D01*
X8658816D01*
X8395856Y6488817D01*
Y6640000D01*
X8540000D01*
Y6666659D01*
X8850000D01*
X8862759Y6669197D01*
X8873575Y6676425D01*
X9048810Y6851659D01*
X9152500D01*
X9165259Y6854197D01*
X9176075Y6861425D01*
X9218575Y6903924D01*
X9225802Y6914741D01*
X9228340Y6927500D01*
Y7122426D01*
X9225803Y7135185D01*
X9218575Y7146001D01*
X9201001Y7163575D01*
X9190185Y7170803D01*
X9177426Y7173340D01*
X9156926D01*
X9155759Y7179205D01*
X9149129Y7189129D01*
X9139205Y7195759D01*
X9127500Y7198088D01*
X9047500D01*
X9035795Y7195759D01*
X9025871Y7189129D01*
X9019241Y7179205D01*
X9016912Y7167500D01*
Y7107500D01*
X9019241Y7095795D01*
X9025871Y7085871D01*
X9035795Y7079241D01*
X9047500Y7076912D01*
X9127500D01*
X9139205Y7079241D01*
X9149129Y7085871D01*
X9161659Y7081765D01*
Y7043235D01*
X9149129Y7039129D01*
X9139205Y7045759D01*
X9127500Y7048088D01*
X9047500D01*
X9035795Y7045759D01*
X9025871Y7039129D01*
X9023850Y7036104D01*
X9008650D01*
X9006629Y7039129D01*
X8996705Y7045759D01*
X8985000Y7048088D01*
X8905000D01*
X8893295Y7045759D01*
X8883371Y7039129D01*
X8882637Y7038030D01*
X8867363D01*
X8866628Y7039129D01*
X8856705Y7045760D01*
X8845000Y7048088D01*
X8765000D01*
X8753294Y7045760D01*
X8743371Y7039129D01*
X8741766Y7036728D01*
X8728233D01*
X8726629Y7039129D01*
X8716705Y7045759D01*
X8705000Y7048088D01*
X8625000D01*
X8613295Y7045759D01*
X8603371Y7039129D01*
X8599556Y7033418D01*
X8599026Y7033221D01*
X8585974Y7033221D01*
X8585444Y7033418D01*
X8581629Y7039129D01*
X8571705Y7045759D01*
X8560000Y7048088D01*
X8480000D01*
X8468295Y7045759D01*
X8458371Y7039129D01*
X8451741Y7029205D01*
X8449412Y7017500D01*
Y6979243D01*
X8338914Y6868744D01*
X8335886Y6864213D01*
X8323186Y6868066D01*
Y6925219D01*
X8475729Y7077762D01*
X8480000Y7076912D01*
X8560000D01*
X8571705Y7079241D01*
X8581629Y7085871D01*
X8585444Y7091582D01*
X8585974Y7091779D01*
X8599026Y7091780D01*
X8599556Y7091582D01*
X8603371Y7085871D01*
X8613295Y7079241D01*
X8625000Y7076912D01*
X8705000D01*
X8716705Y7079241D01*
X8726629Y7085871D01*
X8733259Y7095795D01*
X8735588Y7107500D01*
Y7167500D01*
X8733259Y7179205D01*
X8726629Y7189129D01*
X8716705Y7195759D01*
X8705000Y7198088D01*
X8625000D01*
X8613295Y7195759D01*
X8603371Y7189129D01*
X8599556Y7183418D01*
X8599026Y7183221D01*
X8585974Y7183220D01*
X8585444Y7183418D01*
X8581629Y7189129D01*
X8571705Y7195759D01*
X8560000Y7198087D01*
X8555686D01*
Y7315218D01*
X8629782Y7389314D01*
X8860000D01*
X8873656Y7392031D01*
X8885233Y7399766D01*
X9267300Y7781833D01*
X9280000Y7776572D01*
Y7757501D01*
X9430000D01*
Y7847033D01*
X9442281Y7859314D01*
X9551313D01*
X9561912Y7847500D01*
Y7787500D01*
X9564241Y7775795D01*
X9570871Y7765871D01*
X9580795Y7759241D01*
X9592500Y7756912D01*
X9672500D01*
X9684205Y7759241D01*
X9688230Y7761930D01*
X9700871Y7765871D01*
X9710795Y7759241D01*
X9722500Y7756912D01*
X9772620D01*
X9789712Y7739821D01*
X9784851Y7728087D01*
X9722500D01*
X9710795Y7725759D01*
X9700871Y7719129D01*
X9688230Y7723070D01*
X9684205Y7725759D01*
X9672500Y7728088D01*
X9592500D01*
X9580795Y7725759D01*
X9571240Y7719375D01*
X9570691Y7719129D01*
X9556809D01*
X9556260Y7719375D01*
X9546705Y7725759D01*
X9535000Y7728088D01*
X9455000D01*
X9443295Y7725759D01*
X9433371Y7719129D01*
X9426741Y7709205D01*
X9424412Y7697500D01*
Y7637500D01*
X9426741Y7625795D01*
X9433371Y7615871D01*
X9443295Y7609241D01*
X9455000Y7606912D01*
X9535000D01*
X9546705Y7609241D01*
X9556260Y7615625D01*
X9556809Y7615871D01*
X9570691D01*
X9571240Y7615625D01*
X9580795Y7609241D01*
X9592500Y7606912D01*
X9672500D01*
X9684205Y7609241D01*
X9688230Y7611930D01*
X9700871Y7615871D01*
X9710795Y7609241D01*
X9722500Y7606912D01*
X9802500D01*
X9814205Y7609241D01*
X9824129Y7615871D01*
X9830759Y7625795D01*
X9833088Y7637500D01*
Y7679851D01*
X9844821Y7684712D01*
X9915442Y7614090D01*
X9927020Y7606354D01*
X9936924Y7604384D01*
Y7594875D01*
X9939204Y7583414D01*
X9945697Y7573697D01*
X9955414Y7567204D01*
X9966875Y7564924D01*
X10023125D01*
X10034586Y7567204D01*
X10044303Y7573697D01*
X10050796Y7583414D01*
X10053076Y7594875D01*
Y7656125D01*
X10052121Y7660923D01*
X10063826Y7667179D01*
X10084159Y7646845D01*
Y7247500D01*
X10086697Y7234741D01*
X10093925Y7223925D01*
X10210000Y7107849D01*
Y7095054D01*
X10217612Y7076677D01*
X10231677Y7062612D01*
X10250054Y7055000D01*
X10269946D01*
X10288323Y7062612D01*
X10302388Y7076677D01*
X10310000Y7095054D01*
Y7114946D01*
X10302388Y7133323D01*
X10288323Y7147388D01*
X10269946Y7155000D01*
X10257151D01*
X10150841Y7261310D01*
Y7608958D01*
X10163541Y7615747D01*
X10165795Y7614241D01*
X10177500Y7611912D01*
X10257500D01*
X10269205Y7614241D01*
X10279129Y7620871D01*
X10285759Y7630794D01*
X10288088Y7642500D01*
Y7702500D01*
X10285759Y7714205D01*
X10279129Y7724129D01*
X10269205Y7730759D01*
X10257500Y7733087D01*
X10208680D01*
X10207733Y7734504D01*
X10192059Y7750179D01*
X10196919Y7761912D01*
X10257500D01*
X10269205Y7764241D01*
X10279129Y7770871D01*
X10285759Y7780794D01*
X10288088Y7792500D01*
Y7852500D01*
X10285759Y7864205D01*
X10279129Y7874129D01*
X10269205Y7880759D01*
X10257500Y7883087D01*
X10218839D01*
X10217191Y7891371D01*
X10209964Y7902187D01*
X10173384Y7938767D01*
X10178244Y7950500D01*
X10213000D01*
Y7963659D01*
X10229500D01*
X10242259Y7966197D01*
X10253075Y7973425D01*
X10279651Y8000000D01*
X10282446D01*
X10300823Y8007612D01*
X10314888Y8021677D01*
X10322500Y8040054D01*
Y8059946D01*
X10316010Y8075614D01*
X10321490Y8088314D01*
X10344536D01*
X10364159Y8068690D01*
D02*
G37*
G36*
X11284759Y7505590D02*
Y7347500D01*
X11238922D01*
X11235700Y7348141D01*
X11193010D01*
X11165000Y7376151D01*
Y7419000D01*
X11065000D01*
Y7335836D01*
X11065000Y7329000D01*
X11053957Y7325000D01*
X10975500D01*
Y7322500D01*
X10888001D01*
X10888000Y7322500D01*
Y7322500D01*
X10877555Y7327912D01*
X10803186Y7402282D01*
Y7844269D01*
X10812500Y7851913D01*
X10872500D01*
X10884205Y7854241D01*
X10894129Y7860872D01*
X10900759Y7870795D01*
X10900898Y7871491D01*
X10914678Y7875671D01*
X11284759Y7505590D01*
D02*
G37*
G36*
X11801778Y7868736D02*
X11801814Y7868721D01*
Y7655000D01*
X11804531Y7641344D01*
X11812266Y7629766D01*
X11966814Y7475219D01*
Y7455000D01*
X11952500D01*
Y7356000D01*
X11863000D01*
Y7353500D01*
X11773000D01*
Y7334775D01*
X11760300Y7333524D01*
X11758503Y7342559D01*
X11751275Y7353375D01*
X11728375Y7376275D01*
X11717559Y7383503D01*
X11715000Y7384012D01*
Y7435000D01*
X11590000D01*
Y7336519D01*
X11580000Y7330000D01*
X11455000D01*
X11450841Y7340977D01*
Y7493690D01*
X11756075Y7798925D01*
X11763303Y7809741D01*
X11765841Y7822500D01*
Y7855077D01*
X11774205Y7856741D01*
X11784129Y7863372D01*
X11789114Y7870833D01*
X11801778Y7868736D01*
D02*
G37*
G36*
X7537500Y7307813D02*
Y7121249D01*
X7518750Y7102500D01*
X7266250Y7102500D01*
X7248750Y7120000D01*
Y7185000D01*
X7221250Y7212500D01*
X6705259D01*
X6540000Y7070081D01*
X6540000Y6488749D01*
X6593750Y6435000D01*
X6716250D01*
X6773750Y6492500D01*
Y6747500D01*
X6831250D01*
X6853750Y6725000D01*
X6896250D01*
X6926251Y6695000D01*
X7076251D01*
X7093750Y6677500D01*
Y6615000D01*
X7086250Y6607500D01*
X6906250D01*
X6878750Y6580000D01*
Y6432500D01*
X6878750Y6400000D01*
X6848750Y6370000D01*
X6411249D01*
X6315000Y6466249D01*
X6315000Y7176943D01*
X6504063Y7345000D01*
X7487917D01*
X7537500Y7307813D01*
D02*
G37*
G36*
X11682300Y7319360D02*
X11690990D01*
X11694360Y7315990D01*
Y7222261D01*
X11694159Y7221255D01*
Y7163810D01*
X11630350Y7100000D01*
X11602500D01*
Y7175000D01*
X11600841D01*
Y7215000D01*
X11598303Y7227759D01*
X11591075Y7238575D01*
X11580641Y7249010D01*
Y7262700D01*
X11580000Y7265921D01*
Y7313481D01*
X11590000Y7320000D01*
X11679080D01*
X11682300Y7319360D01*
D02*
G37*
G36*
X9023850Y6938896D02*
X9025871Y6935871D01*
X9033827Y6930555D01*
X9033849Y6930335D01*
X9033003Y6920969D01*
X9031909Y6917726D01*
X9022241Y6915803D01*
X9011425Y6908575D01*
X8836190Y6733340D01*
X8540000D01*
Y6760000D01*
X8395856D01*
Y6831342D01*
X8477642Y6913128D01*
X8491546Y6909071D01*
X8497163Y6900665D01*
X8541387Y6856441D01*
X8541387Y6856441D01*
X8552208Y6849210D01*
X8564973Y6846671D01*
X8564974Y6846671D01*
X8895027D01*
X8907792Y6849210D01*
X8918613Y6856441D01*
X8973586Y6911414D01*
X8980817Y6922235D01*
X8981747Y6926912D01*
X8985000D01*
X8996705Y6929241D01*
X9006629Y6935871D01*
X9008650Y6938896D01*
X9023850D01*
D02*
G37*
G36*
X7832500Y6972500D02*
Y6745000D01*
X7825000Y6737500D01*
X7757500D01*
X7750000Y6745000D01*
Y6837500D01*
X7735000Y6852500D01*
X7490000D01*
X7472500Y6870000D01*
Y6960000D01*
X7495000Y6982500D01*
X7822500D01*
X7832500Y6972500D01*
D02*
G37*
G36*
X10907500Y6731570D02*
Y6644757D01*
X10901197Y6643503D01*
X10890380Y6636275D01*
X10880636Y6626531D01*
X10632890D01*
X10630588Y6629807D01*
X10628063Y6639231D01*
X10700491Y6711659D01*
X10855819D01*
X10868578Y6714197D01*
X10879394Y6721425D01*
X10894800Y6736831D01*
X10907500Y6731570D01*
D02*
G37*
G36*
X11484160Y6221310D02*
X11154190Y5891341D01*
X10915500D01*
Y5904500D01*
X10677500D01*
Y5891341D01*
X10668000D01*
X10655241Y5888803D01*
X10644424Y5881575D01*
X10621625Y5858775D01*
X10614397Y5847959D01*
X10611859Y5835200D01*
Y5533205D01*
X10599159Y5524719D01*
X10592446Y5527500D01*
X10572554D01*
X10565025Y5524381D01*
X10550882D01*
Y6064118D01*
X10832612D01*
X10842554Y6060000D01*
X10862446D01*
X10880823Y6067612D01*
X10894888Y6081677D01*
X10902500Y6100054D01*
Y6119946D01*
X10894888Y6138323D01*
X10886767Y6146444D01*
X10892027Y6159144D01*
X11247500D01*
X11260265Y6161683D01*
X11271086Y6168914D01*
X11341086Y6238913D01*
X11341086Y6238914D01*
X11348317Y6249735D01*
X11350856Y6262500D01*
X11350856Y6262501D01*
Y6314340D01*
X11363556Y6322263D01*
X11375054Y6317500D01*
X11394946D01*
X11413323Y6325112D01*
X11427388Y6339177D01*
X11435000Y6357554D01*
Y6377446D01*
X11428847Y6392300D01*
X11434804Y6405000D01*
X11484160D01*
Y6221310D01*
D02*
G37*
G36*
X7660000Y6555000D02*
Y6477500D01*
X7497500Y6315000D01*
Y6075000D01*
X7450000Y6027500D01*
X6575000D01*
X6537500Y6065000D01*
Y6292500D01*
X6562500Y6317500D01*
X6890000D01*
X6967500Y6240000D01*
X7282500D01*
Y6452500D01*
X7295000D01*
Y6465000D01*
X7465000D01*
Y6550000D01*
X7482500D01*
Y6567500D01*
X7647500D01*
X7660000Y6555000D01*
D02*
G37*
G36*
X11589618Y6083374D02*
Y6044269D01*
X11294564Y5749215D01*
X11279583Y5752194D01*
X11276802Y5758908D01*
X11271645Y5764065D01*
X11271637Y5781987D01*
X11577885Y6088234D01*
X11589618Y6083374D01*
D02*
G37*
G36*
X11693821Y6733639D02*
X11693822Y6733638D01*
X11703745Y6727007D01*
X11715450Y6724679D01*
X11720518Y6713952D01*
Y6696006D01*
X11856308D01*
X11859755Y6695321D01*
X11884233D01*
X11889207Y6690346D01*
X11894284Y6682749D01*
X11919314Y6657718D01*
Y6590090D01*
X11912611Y6580058D01*
X11909118Y6562500D01*
Y6539005D01*
X11770057Y6399943D01*
X11760111Y6385058D01*
X11756618Y6367500D01*
Y5904005D01*
X11348495Y5495882D01*
X11041652D01*
X11039421Y5497879D01*
X11036131Y5503078D01*
X11035020Y5510532D01*
X11040000Y5522554D01*
Y5542446D01*
X11033574Y5557959D01*
X11039145Y5570659D01*
X11196500D01*
X11209259Y5573197D01*
X11220075Y5580424D01*
X11387729Y5748078D01*
X11398495Y5740884D01*
X11395000Y5732446D01*
Y5712554D01*
X11402612Y5694177D01*
X11416677Y5680112D01*
X11435054Y5672500D01*
X11454946D01*
X11473323Y5680112D01*
X11487388Y5694177D01*
X11495000Y5712554D01*
Y5725349D01*
X11713775Y5944125D01*
X11721003Y5954941D01*
X11723541Y5967700D01*
Y6543545D01*
X11721003Y6556304D01*
X11713775Y6567120D01*
X11694620Y6586275D01*
X11683804Y6593503D01*
X11677500Y6594757D01*
Y6630000D01*
Y6731999D01*
X11690200Y6737260D01*
X11693821Y6733639D01*
D02*
G37*
G36*
X9859118Y5814206D02*
Y5760000D01*
X9859412Y5758521D01*
Y5715000D01*
X9861741Y5703295D01*
X9868371Y5693371D01*
X9878295Y5686741D01*
X9890000Y5684412D01*
X9970000D01*
X9981705Y5686741D01*
X9989006Y5691619D01*
X10003580D01*
X10004241Y5688295D01*
X10010871Y5678371D01*
X10015091Y5675552D01*
X10015822Y5660767D01*
X10013371Y5659129D01*
X10006741Y5649205D01*
X10005988Y5645423D01*
X9992901Y5644726D01*
X9991629Y5646629D01*
X9981705Y5653259D01*
X9970000Y5655588D01*
X9890000D01*
X9878295Y5653259D01*
X9868371Y5646629D01*
X9861741Y5636705D01*
X9859413Y5625000D01*
Y5581157D01*
X9736538Y5458283D01*
X9623283D01*
Y5477500D01*
X9632500D01*
Y5672500D01*
X9613284D01*
Y5689607D01*
X9621676Y5698000D01*
X9693999D01*
Y5816619D01*
X9856705D01*
X9859118Y5814206D01*
D02*
G37*
G36*
X11206092Y5688197D02*
X11212805Y5685416D01*
X11215785Y5670436D01*
X11182690Y5637340D01*
X10915500D01*
Y5650499D01*
X10678540D01*
Y5684500D01*
X10915500D01*
Y5693960D01*
X11200329D01*
X11206092Y5688197D01*
D02*
G37*
G36*
X8338914Y6451414D02*
X8621413Y6168915D01*
X8621414Y6168914D01*
X8632235Y6161683D01*
X8645000Y6159144D01*
X9189692D01*
X9193544Y6146444D01*
X9187557Y6142443D01*
X8611240Y5566127D01*
X8520686D01*
Y5625000D01*
X8517969Y5638656D01*
X8510234Y5650234D01*
X8323186Y5837281D01*
Y6452093D01*
X8335886Y6455945D01*
X8338914Y6451414D01*
D02*
G37*
G36*
X10552554Y5426760D02*
X10555271Y5413103D01*
X10563007Y5401526D01*
X10571358Y5393175D01*
X10570790Y5389641D01*
X10556427Y5380303D01*
X10555000Y5380587D01*
X10475000D01*
X10463295Y5378259D01*
X10453371Y5371629D01*
X10451802Y5369280D01*
X10436629Y5369129D01*
X10426706Y5375759D01*
X10415000Y5378088D01*
X10335000D01*
X10323295Y5375759D01*
X10313372Y5369129D01*
X10311802Y5366779D01*
X10296628Y5366628D01*
X10286705Y5373259D01*
X10275000Y5375587D01*
X10204538D01*
X10199278Y5388287D01*
X10241490Y5430500D01*
X10422500D01*
Y5432618D01*
X10552554D01*
Y5426760D01*
D02*
G37*
%LPC*%
G36*
X9140000Y8490000D02*
X8980000D01*
Y8270000D01*
X9140000D01*
Y8490000D01*
D02*
G37*
G36*
X8580000D02*
X8420000D01*
Y8270000D01*
X8580000D01*
Y8490000D01*
D02*
G37*
G36*
X8172500Y8495992D02*
X8142479Y8492040D01*
X8114504Y8480452D01*
X8090481Y8462019D01*
X8072048Y8437996D01*
X8060460Y8410021D01*
X8056508Y8380000D01*
Y8270000D01*
X8060460Y8239979D01*
X8072048Y8212004D01*
X8090481Y8187981D01*
X8114504Y8169548D01*
X8142479Y8157960D01*
X8172500Y8154008D01*
X8202521Y8157960D01*
X8230496Y8169548D01*
X8254519Y8187981D01*
X8272952Y8212004D01*
X8284540Y8239979D01*
X8288492Y8270000D01*
Y8380000D01*
X8284540Y8410021D01*
X8272952Y8437996D01*
X8254519Y8462019D01*
X8230496Y8480452D01*
X8202521Y8492040D01*
X8172500Y8495992D01*
D02*
G37*
G36*
X6822500D02*
X6792479Y8492040D01*
X6764504Y8480452D01*
X6740481Y8462019D01*
X6722048Y8437996D01*
X6710460Y8410021D01*
X6706508Y8380000D01*
Y8270000D01*
X6710460Y8239979D01*
X6722048Y8212004D01*
X6740481Y8187981D01*
X6764504Y8169548D01*
X6792479Y8157960D01*
X6822500Y8154008D01*
X6852521Y8157960D01*
X6880496Y8169548D01*
X6904519Y8187981D01*
X6922952Y8212004D01*
X6934540Y8239979D01*
X6938492Y8270000D01*
Y8380000D01*
X6934540Y8410021D01*
X6922952Y8437996D01*
X6904519Y8462019D01*
X6880496Y8480452D01*
X6852521Y8492040D01*
X6822500Y8495992D01*
D02*
G37*
G36*
X6475228Y8500000D02*
X6439771D01*
X6404996Y8493083D01*
X6372238Y8479514D01*
X6342757Y8459815D01*
X6317685Y8434743D01*
X6297986Y8405262D01*
X6284417Y8372504D01*
X6277500Y8337728D01*
Y8302271D01*
X6284417Y8267496D01*
X6297986Y8234738D01*
X6317685Y8205257D01*
X6342757Y8180185D01*
X6372238Y8160486D01*
X6404996Y8146917D01*
X6439771Y8140000D01*
X6475228D01*
X6510004Y8146917D01*
X6542762Y8160486D01*
X6572243Y8180185D01*
X6597315Y8205257D01*
X6617014Y8234738D01*
X6630583Y8267496D01*
X6637500Y8302271D01*
Y8337728D01*
X6630583Y8372504D01*
X6617014Y8405262D01*
X6597315Y8434743D01*
X6572243Y8459815D01*
X6542762Y8479514D01*
X6510004Y8493083D01*
X6475228Y8500000D01*
D02*
G37*
G36*
X7627500Y8062892D02*
X7619696Y8061340D01*
X7613081Y8056919D01*
X7613080Y8056919D01*
X7545581Y7989419D01*
X7541160Y7982803D01*
X7539608Y7975000D01*
Y7437500D01*
X7541160Y7429696D01*
X7545581Y7423081D01*
X7545581Y7423080D01*
X7589608Y7379053D01*
Y7140000D01*
X7591160Y7132196D01*
X7595581Y7125580D01*
X7655580Y7065581D01*
X7662196Y7061160D01*
X7670000Y7059608D01*
X8004999D01*
X8005000Y7059608D01*
X8012804Y7061160D01*
X8019419Y7065581D01*
X8019420Y7065582D01*
X8236919Y7283081D01*
X8241340Y7289696D01*
X8242892Y7297500D01*
Y7902499D01*
X8242892Y7902500D01*
X8241340Y7910304D01*
X8236919Y7916919D01*
X8236919Y7916920D01*
X8096919Y8056919D01*
X8090304Y8061340D01*
X8082500Y8062892D01*
X7627501D01*
X7627500Y8062892D01*
D02*
G37*
G36*
X10555000Y5230587D02*
X10475000D01*
X10463295Y5228259D01*
X10453371Y5221629D01*
X10451802Y5219280D01*
X10436629Y5219129D01*
X10426706Y5225759D01*
X10415000Y5228088D01*
X10335000D01*
X10323295Y5225759D01*
X10313372Y5219129D01*
X10306741Y5209205D01*
X10304413Y5197500D01*
Y5137500D01*
X10306741Y5125795D01*
X10313372Y5115871D01*
X10323295Y5109241D01*
X10335000Y5106913D01*
X10415000D01*
X10426706Y5109241D01*
X10436629Y5115871D01*
X10438198Y5118220D01*
X10453372Y5118371D01*
X10463295Y5111741D01*
X10475000Y5109412D01*
X10555000D01*
X10566705Y5111741D01*
X10576629Y5118371D01*
X10581264Y5125308D01*
X10592333Y5128312D01*
X10596213Y5128319D01*
X10612266Y5112266D01*
X10623844Y5104531D01*
X10637500Y5101814D01*
X10676925D01*
Y5097375D01*
X10679204Y5085914D01*
X10685697Y5076197D01*
X10695414Y5069704D01*
X10706875Y5067424D01*
X10763125D01*
X10774587Y5069704D01*
X10784303Y5076197D01*
X10790796Y5085914D01*
X10793076Y5097375D01*
Y5158625D01*
X10790796Y5170086D01*
X10784303Y5179803D01*
X10774587Y5186295D01*
X10763125Y5188575D01*
X10706875D01*
X10695414Y5186295D01*
X10685697Y5179803D01*
X10681276Y5173186D01*
X10652281D01*
X10630234Y5195233D01*
X10618656Y5202969D01*
X10605000Y5205686D01*
X10584457D01*
X10583259Y5211705D01*
X10576629Y5221629D01*
X10566705Y5228259D01*
X10555000Y5230587D01*
D02*
G37*
G36*
X9892500Y5297500D02*
X9732500D01*
Y5077500D01*
X9892500D01*
Y5297500D01*
D02*
G37*
G36*
X9332499D02*
X9172500D01*
Y5077500D01*
X9332499D01*
Y5297500D01*
D02*
G37*
G36*
X6475228Y5430000D02*
X6439771D01*
X6404996Y5423083D01*
X6372238Y5409514D01*
X6342757Y5389815D01*
X6317685Y5364743D01*
X6297986Y5335262D01*
X6284417Y5302504D01*
X6277500Y5267728D01*
Y5232271D01*
X6284417Y5197496D01*
X6297986Y5164738D01*
X6317685Y5135257D01*
X6342757Y5110185D01*
X6372238Y5090486D01*
X6404996Y5076917D01*
X6439771Y5070000D01*
X6475228D01*
X6510004Y5076917D01*
X6542762Y5090486D01*
X6572243Y5110185D01*
X6597315Y5135257D01*
X6617014Y5164738D01*
X6630583Y5197496D01*
X6637500Y5232271D01*
Y5267728D01*
X6630583Y5302504D01*
X6617014Y5335262D01*
X6597315Y5364743D01*
X6572243Y5389815D01*
X6542762Y5409514D01*
X6510004Y5423083D01*
X6475228Y5430000D01*
D02*
G37*
%LPD*%
G36*
X8222500Y7902500D02*
Y7297500D01*
X8005000Y7080000D01*
X7670000D01*
X7610000Y7140000D01*
Y7387500D01*
X7560000Y7437500D01*
Y7975000D01*
X7627500Y8042500D01*
X8082500D01*
X8222500Y7902500D01*
D02*
G37*
%LPC*%
G36*
X9632500Y6690000D02*
X9382500D01*
Y6523000D01*
X9563354D01*
X9682129Y6404225D01*
X9611452Y6333548D01*
X9608663Y6329374D01*
X9605112Y6325823D01*
X9603190Y6321183D01*
X9600401Y6317009D01*
X9599421Y6312084D01*
X9597500Y6307446D01*
Y6302425D01*
X9596520Y6297500D01*
X9597500Y6292575D01*
Y6287554D01*
X9599421Y6282916D01*
X9600401Y6277991D01*
X9603190Y6273817D01*
X9605112Y6269177D01*
X9608663Y6265626D01*
X9611452Y6261452D01*
X9615626Y6258663D01*
X9619177Y6255112D01*
X9623816Y6253190D01*
X9627991Y6250401D01*
X9632916Y6249421D01*
X9637554Y6247500D01*
X9642575D01*
X9647500Y6246520D01*
X9652425Y6247500D01*
X9657446D01*
X9662084Y6249421D01*
X9667009Y6250401D01*
X9671183Y6253190D01*
X9675823Y6255112D01*
X9679374Y6258663D01*
X9683548Y6261452D01*
X9763954Y6341858D01*
X9828867D01*
X9832480Y6335599D01*
X9851099Y6316981D01*
X9873902Y6303815D01*
X9899335Y6297000D01*
X9925665D01*
X9951098Y6303815D01*
X9973901Y6316981D01*
X9992520Y6335599D01*
X10005685Y6358402D01*
X10012500Y6383835D01*
Y6410165D01*
X10005685Y6435599D01*
X9992520Y6458401D01*
X9973901Y6477020D01*
X9951098Y6490185D01*
X9925665Y6497000D01*
X9899335D01*
X9873902Y6490185D01*
X9851099Y6477020D01*
X9832480Y6458401D01*
X9824060Y6443817D01*
X9772310D01*
X9632500Y6583627D01*
Y6690000D01*
D02*
G37*
%LPD*%
D10*
X9507500Y6606500D02*
D03*
Y7003500D02*
D03*
D11*
X10562500Y6822500D02*
D03*
X10612500D02*
D03*
X10662500D02*
D03*
Y6917501D02*
D03*
X10612500D02*
D03*
X10562500D02*
D03*
D12*
X11857517Y6667006D02*
D03*
Y6745006D02*
D03*
X11255000Y7298500D02*
D03*
Y7376500D02*
D03*
X10855000Y6344000D02*
D03*
Y6266000D02*
D03*
X10945000Y6344000D02*
D03*
Y6266000D02*
D03*
X11767517Y6745006D02*
D03*
Y6667006D02*
D03*
X10935000Y7273500D02*
D03*
Y7351500D02*
D03*
X11022500Y7276000D02*
D03*
Y7354000D02*
D03*
X11910000Y7307000D02*
D03*
Y7385000D02*
D03*
X11820000Y7304500D02*
D03*
Y7382500D02*
D03*
X11782500Y6914000D02*
D03*
Y6836000D02*
D03*
X12070000Y6919000D02*
D03*
Y6841000D02*
D03*
D13*
X10217500Y7672500D02*
D03*
X8042500Y5632500D02*
D03*
X8945000Y7137500D02*
D03*
Y6987500D02*
D03*
X8042500Y5782500D02*
D03*
Y5507500D02*
D03*
Y5357500D02*
D03*
X6912009Y7150401D02*
D03*
Y7300401D02*
D03*
X7089509Y7150401D02*
D03*
Y7300401D02*
D03*
X7040000Y5375000D02*
D03*
X7040000Y5225000D02*
D03*
X6907500Y5377500D02*
D03*
X6907500Y5227500D02*
D03*
X8805000Y6987500D02*
D03*
X8805000Y7137500D02*
D03*
X8665000D02*
D03*
X8665000Y6987500D02*
D03*
X8520000Y7137500D02*
D03*
Y6987500D02*
D03*
X10075000Y5457500D02*
D03*
Y5607500D02*
D03*
X10072500Y5730000D02*
D03*
Y5880000D02*
D03*
X9930000Y5745000D02*
D03*
X9930000Y5595000D02*
D03*
X9392500Y8120000D02*
D03*
X9392500Y7970000D02*
D03*
X9385000Y8252500D02*
D03*
X9385000Y8402500D02*
D03*
X9245000Y8262500D02*
D03*
Y8112500D02*
D03*
X9762500Y7667500D02*
D03*
Y7817500D02*
D03*
X9632500Y7667500D02*
D03*
Y7817500D02*
D03*
X10515000Y5170000D02*
D03*
Y5320000D02*
D03*
X9495000Y7667500D02*
D03*
Y7817500D02*
D03*
X10952500Y5312500D02*
D03*
Y5162500D02*
D03*
X10235000Y5315000D02*
D03*
X10235000Y5165000D02*
D03*
X10217500Y7822500D02*
D03*
X6775000Y5227500D02*
D03*
X6775000Y5377500D02*
D03*
X10375000Y5167500D02*
D03*
Y5317500D02*
D03*
X9087500Y7137500D02*
D03*
Y6987500D02*
D03*
D14*
X12370000Y6917500D02*
D03*
D15*
X12382700Y7253720D02*
D03*
Y7046240D02*
D03*
D16*
X7289999Y6712000D02*
D03*
D17*
X11821000Y7206000D02*
D03*
X11899000D02*
D03*
X11821000Y7116000D02*
D03*
X11899000D02*
D03*
X10835500Y6902500D02*
D03*
X10757500D02*
D03*
X10834000Y6522500D02*
D03*
X10756000D02*
D03*
D18*
X9355000Y7827500D02*
D03*
Y7682500D02*
D03*
X10077500Y5177500D02*
D03*
Y5322500D02*
D03*
D19*
X7207500Y6385000D02*
D03*
X7357500D02*
D03*
X6815000Y6697500D02*
D03*
X6665000D02*
D03*
X7945000Y6530000D02*
D03*
X7787500Y6528217D02*
D03*
X11732500Y7925000D02*
D03*
X11582500D02*
D03*
X11280000D02*
D03*
X11130000D02*
D03*
X10842500Y7922501D02*
D03*
X10692500D02*
D03*
X11582500Y8110001D02*
D03*
X11732500D02*
D03*
X11130000Y8107500D02*
D03*
X11280000D02*
D03*
X10692500Y8105001D02*
D03*
X10842500D02*
D03*
X7792500Y6792500D02*
D03*
X7942500D02*
D03*
X7792500Y6657500D02*
D03*
X7942500D02*
D03*
X7792501Y6930000D02*
D03*
X7942500D02*
D03*
X7940000Y6397500D02*
D03*
X7790000D02*
D03*
X6665000Y6892500D02*
D03*
X6815000D02*
D03*
X6662500Y6507500D02*
D03*
X6812500D02*
D03*
D20*
X7397500Y7200000D02*
D03*
X7827500D02*
D03*
D21*
X7757500Y6142500D02*
D03*
X7327500D02*
D03*
D22*
X9812500Y5187500D02*
D03*
X9252500D02*
D03*
X8500000Y8380000D02*
D03*
X9060000D02*
D03*
D23*
X9382500Y5575000D02*
D03*
X9482500Y5575000D02*
D03*
X9582500D02*
D03*
X9682500D02*
D03*
X8930000Y7992500D02*
D03*
X8830000D02*
D03*
X8730000D02*
D03*
X8630000Y7992500D02*
D03*
D24*
X11115000Y7374000D02*
D03*
Y7271000D02*
D03*
D25*
X12002499Y7405000D02*
D03*
X12002500Y7307500D02*
D03*
D26*
X11975000Y6915000D02*
D03*
X11875000D02*
D03*
X11252500Y6350000D02*
D03*
X11152500D02*
D03*
D27*
X6722500Y5572500D02*
D03*
Y6212500D02*
D03*
D28*
X9441000Y5760000D02*
D03*
X9535000Y5960000D02*
D03*
X8775000Y7620000D02*
D03*
X8868999Y7819999D02*
D03*
D29*
X9629000Y5760000D02*
D03*
X8680999Y7819999D02*
D03*
D30*
X10303500Y5477000D02*
D03*
Y5604000D02*
D03*
Y5731000D02*
D03*
Y5858000D02*
D03*
X10796500Y5858000D02*
D03*
Y5731000D02*
D03*
Y5604000D02*
D03*
Y5476999D02*
D03*
X9601000Y7997000D02*
D03*
X9601000Y8124000D02*
D03*
X9601000Y8251000D02*
D03*
Y8378000D02*
D03*
X10094000D02*
D03*
X10094000Y8251000D02*
D03*
X10094000Y8124000D02*
D03*
X10094000Y7997000D02*
D03*
D31*
X7882000Y5595000D02*
D03*
D32*
X7223000D02*
D03*
D33*
Y5824000D02*
D03*
D34*
Y5366000D02*
D03*
D35*
X7019999Y6521500D02*
D03*
Y6648500D02*
D03*
Y6775500D02*
D03*
Y6902500D02*
D03*
X7559999D02*
D03*
Y6775500D02*
D03*
Y6648500D02*
D03*
Y6521500D02*
D03*
D36*
X12150010Y6916197D02*
D03*
X12271930D02*
D03*
D37*
X12210970Y6893337D02*
D03*
Y6939057D02*
D03*
D38*
X8460001Y6700000D02*
D03*
X9160000Y6700000D02*
D03*
D39*
X10831000Y5322000D02*
D03*
X10639000D02*
D03*
X10735000Y5128000D02*
D03*
X9995000Y7625500D02*
D03*
X9899000Y7819500D02*
D03*
X10091000D02*
D03*
D40*
X11017500Y6452500D02*
D03*
X11067500D02*
D03*
X11117500D02*
D03*
X11167500D02*
D03*
X11217500D02*
D03*
X11267500D02*
D03*
X11317500D02*
D03*
X11367500D02*
D03*
X11417500D02*
D03*
X11467500D02*
D03*
X11517500D02*
D03*
X11567500D02*
D03*
Y7127500D02*
D03*
X11517500D02*
D03*
X11467500D02*
D03*
X11417500D02*
D03*
X11367500D02*
D03*
X11317500D02*
D03*
X11267500D02*
D03*
X11217500D02*
D03*
X11167500D02*
D03*
X11117500D02*
D03*
X11067500D02*
D03*
X11017500D02*
D03*
D41*
X11630000Y6515000D02*
D03*
Y6565000D02*
D03*
Y6615000D02*
D03*
Y6665000D02*
D03*
Y6715000D02*
D03*
Y6765000D02*
D03*
Y6815000D02*
D03*
X11630000Y6865000D02*
D03*
Y6915000D02*
D03*
Y6965000D02*
D03*
X11630000Y7015000D02*
D03*
Y7065000D02*
D03*
X10955000D02*
D03*
Y7015000D02*
D03*
X10955000Y6965000D02*
D03*
Y6915000D02*
D03*
Y6865000D02*
D03*
X10955000Y6815000D02*
D03*
Y6765000D02*
D03*
Y6715000D02*
D03*
Y6665000D02*
D03*
Y6615000D02*
D03*
Y6565000D02*
D03*
Y6515000D02*
D03*
D42*
X11292500Y6790000D02*
D03*
D43*
X11652500Y7377500D02*
D03*
X11517500Y7272500D02*
D03*
X11652500D02*
D03*
X11517500Y7377500D02*
D03*
D44*
X9587500Y6563741D02*
Y6568000D01*
Y6563741D02*
X9758403Y6392838D01*
X9507500Y6606500D02*
X9549000D01*
X9587500Y6568000D01*
X9727677Y6377677D02*
X9742500Y6392500D01*
X9915000Y7168000D02*
X9951235Y7204235D01*
X9871814Y7211186D02*
Y7288374D01*
X9951235Y7204235D02*
Y7289792D01*
X9871814Y7211186D02*
X9915000Y7168000D01*
X8630000Y7992500D02*
Y8024441D01*
Y7957825D02*
Y7992500D01*
X9632500Y7667500D02*
X9632500Y7667500D01*
X9762500D01*
X10505000Y5478500D02*
X10581500D01*
X10582500Y5477500D01*
X11130000Y7925001D02*
Y8107500D01*
X11582500Y7925001D02*
X11582500Y7925000D01*
X11582500Y7925001D02*
Y8110001D01*
X11130000Y7925001D02*
X11130000Y7925000D01*
X7775000Y6902500D02*
X7792501Y6920000D01*
X7559999Y6902500D02*
X7775000D01*
X7792500Y6792500D02*
X7792501Y6792501D01*
Y6920000D01*
Y6930000D01*
X7777500Y6682500D02*
X7792500Y6667500D01*
Y6657500D02*
Y6667500D01*
X7014499Y6781000D02*
X7019999Y6775500D01*
X7014499Y6654000D02*
X7019999Y6648500D01*
X6811250Y6508750D02*
X6812500Y6507500D01*
X10692500Y7922501D02*
Y8105001D01*
Y7922501D02*
X10692500Y7922501D01*
X10855000Y6344000D02*
X10945000D01*
X7732500Y6682500D02*
X7777500D01*
X7565499Y6770000D02*
X7645000D01*
X7732500Y6682500D01*
X7559999Y6775500D02*
X7565499Y6770000D01*
X7353787Y6363787D02*
X7371354Y6381354D01*
X7022500Y6518999D02*
X7029501D01*
X7019999Y6521500D02*
X7022500Y6518999D01*
X7029501D02*
X7032500Y6516000D01*
Y6440000D02*
Y6516000D01*
Y6440000D02*
X7100000Y6372500D01*
X7212500D01*
X9453500Y5766000D02*
X9483089Y5736411D01*
Y5575589D02*
Y5736411D01*
X9453500Y5766000D02*
Y5770000D01*
X9482500Y5575000D02*
X9487500Y5570000D01*
X9537500Y5962500D02*
X9627500D01*
X9535000Y5960000D02*
X9537500Y5962500D01*
X6773750Y5226250D02*
X6775000Y5227500D01*
X6772500Y5140000D02*
X6773750Y5141250D01*
Y5226250D01*
X6907500Y5227500D02*
X6907500Y5227500D01*
Y5142500D02*
Y5227500D01*
X11802500Y6367500D02*
X11955000Y6520000D01*
Y6562500D01*
X10302000Y5732500D02*
X10303500Y5731000D01*
X10303000Y5730500D02*
X10303500Y5731000D01*
X10072500Y5730000D02*
X10073000Y5730500D01*
X10303000D01*
X9930000Y5745000D02*
X9937500Y5737500D01*
X10065000D01*
X10072500Y5730000D01*
X9920000Y5745000D02*
X9930000D01*
X9905000Y5760000D02*
X9920000Y5745000D01*
X9905000Y5760000D02*
Y5833211D01*
X9875710Y5862500D02*
X9905000Y5833211D01*
X9481790Y5862500D02*
X9875710D01*
X9452500Y5833211D02*
X9481790Y5862500D01*
X9441000Y5760000D02*
X9452500Y5771500D01*
Y5833211D01*
X10306000Y5858000D02*
X10307500Y5859500D01*
Y5927500D01*
X10303500Y5858000D02*
X10306000D01*
X10303500Y5477000D02*
X10305000Y5478500D01*
X11367500Y5450000D02*
X11802500Y5885000D01*
Y6367500D01*
X8665000Y6987500D02*
X8804999D01*
X8805000Y6987500D01*
X10305000Y5478500D02*
X10505000D01*
X11011974Y6266787D02*
X11012760Y6267573D01*
X10945787Y6266787D02*
X11011974D01*
X10945000Y6266000D02*
X10945787Y6266787D01*
X10787939Y6268479D02*
X10789179Y6267240D01*
X10853760D01*
X10855000Y6266000D01*
X10757570Y6454770D02*
X10758348Y6455547D01*
Y6516098D01*
X10759125Y6516875D01*
X11908993Y7454198D02*
X11909496Y7453695D01*
Y7385504D02*
Y7453695D01*
Y7385504D02*
X11910000Y7385000D01*
X11820888Y7454626D02*
X11821775Y7455514D01*
X11820888Y7383388D02*
Y7454626D01*
X11820000Y7382500D02*
X11820888Y7383388D01*
X10505000Y5478500D02*
Y6094899D01*
X9495000Y7667500D02*
X9632500D01*
X11899566Y7205434D02*
X11967867D01*
X11968433Y7204867D01*
X11899000Y7206000D02*
X11899566Y7205434D01*
X11899888Y7116888D02*
X11968502D01*
X11969390Y7117776D01*
X11899000Y7116000D02*
X11899888Y7116888D01*
X11653706Y7199458D02*
Y7271294D01*
Y7199458D02*
X11654912Y7198252D01*
X11652500Y7272500D02*
X11653706Y7271294D01*
X8617500Y5507500D02*
X9220000Y6110000D01*
X10072500D01*
Y5880000D02*
Y6110000D01*
X10852500D01*
X6924000Y6781000D02*
X7014499D01*
X6812500Y6885000D02*
Y6892500D01*
Y6885000D02*
X6830000Y6867500D01*
X6837500D02*
X6924000Y6781000D01*
X6830000Y6867500D02*
X6837500D01*
X6815000Y6702500D02*
X6817500Y6700000D01*
X6880000D02*
X6926000Y6654000D01*
X6817500Y6700000D02*
X6880000D01*
X7018999Y6647500D02*
X7019999Y6648500D01*
X6926000Y6654000D02*
X7014499D01*
X6810000Y6697500D02*
X6811250Y6696250D01*
X7488854Y6381354D02*
X7552790Y6445290D01*
Y6516000D02*
X7575000D01*
X7371354Y6381354D02*
X7488854D01*
X7552790Y6445290D02*
Y6516000D01*
X8629089Y8023530D02*
X8630000Y8024441D01*
X8565452Y8023530D02*
X8629089D01*
X8564114Y7952825D02*
X8625000D01*
X8630000Y7957825D01*
X7959825Y5356426D02*
X8041427D01*
X7958751Y5355353D02*
X7959825Y5356426D01*
X8041427D02*
X8042500Y5357500D01*
X11016521Y5450000D02*
X11367500D01*
X11015959Y5450561D02*
X11016521Y5450000D01*
X11518493Y7447616D02*
X11519486Y7448609D01*
X11518493Y7378493D02*
Y7447616D01*
X11517500Y7377500D02*
X11518493Y7378493D01*
D45*
X8362500Y6475000D02*
Y6845158D01*
X8477556Y6960215D02*
X8492715D01*
X8362500Y6845158D02*
X8477556Y6960215D01*
X8492715D02*
X8520000Y6987500D01*
X8645000Y6192500D02*
X11247500D01*
X8950000Y6935000D02*
Y6982500D01*
X8945000Y6987500D02*
X9087500D01*
X8945000Y6987500D02*
X8945000Y6987500D01*
X8950000Y6982500D01*
X8362500Y6475000D02*
X8645000Y6192500D01*
X11317500Y6262500D02*
Y6452500D01*
X11247500Y6192500D02*
X11317500Y6262500D01*
X8518626Y6986126D02*
X8520749Y6984003D01*
Y6924251D02*
Y6984003D01*
X8564973Y6880027D02*
X8895027D01*
X8520749Y6924251D02*
X8564973Y6880027D01*
X8895027D02*
X8950000Y6935000D01*
D46*
X10113500Y7778270D02*
Y7801000D01*
X10182500Y7697500D02*
Y7709271D01*
X10113500Y7778270D02*
X10182500Y7709271D01*
X10097000Y7817500D02*
X10113500Y7801000D01*
X10207500Y7672500D02*
X10217500D01*
X10182500Y7697500D02*
X10207500Y7672500D01*
X11769445Y6599941D02*
X11771373Y6598013D01*
X11767517Y6667006D02*
X11769445Y6665079D01*
Y6599941D02*
Y6665079D01*
X11859690Y6601307D02*
Y6664834D01*
Y6601307D02*
X11861862Y6599135D01*
X11857517Y6667006D02*
X11859690Y6664834D01*
X10743500Y6890500D02*
X10755500Y6902500D01*
X10725000Y6827500D02*
Y6835618D01*
X10755500Y6902500D02*
X10757500D01*
X10725000Y6835618D02*
X10743500Y6854118D01*
Y6890500D01*
X11767517Y6733244D02*
X11857517D01*
X11757756D02*
X11767517D01*
X11919517Y6707983D02*
X11955000Y6672500D01*
X11859755Y6731006D02*
X11899015D01*
X11919517Y6707983D02*
Y6710504D01*
X11899015Y6731006D02*
X11919517Y6710504D01*
X11857517Y6733244D02*
X11859755Y6731006D01*
X9762500Y7817500D02*
X9772500D01*
X9797500Y7782500D02*
Y7792500D01*
X9940676Y7639324D02*
X9988676D01*
X9762500Y7817500D02*
X9771096D01*
X9772500D02*
X9797500Y7792500D01*
Y7782500D02*
X9940676Y7639324D01*
X9988676D02*
X10002500Y7625500D01*
X9632500Y7817500D02*
X9772500D01*
X9815001Y7930999D02*
X9901500Y7844500D01*
X9601000Y7930999D02*
X9815001D01*
X9601000D02*
Y7997000D01*
X9565001Y7895000D02*
X9601000Y7930999D01*
X9632500Y7817500D02*
X9632500Y7817500D01*
X10637500Y5137500D02*
X10725500D01*
X10735000Y5128000D01*
X10605000Y5170000D02*
X10637500Y5137500D01*
X10515000Y5170000D02*
X10605000D01*
X10616500Y5344500D02*
X10639000Y5322000D01*
X10582500Y5477500D02*
X10588240Y5471760D01*
Y5426760D02*
X10616500Y5398500D01*
Y5344500D02*
Y5398500D01*
X10588240Y5426760D02*
Y5471760D01*
X10927500Y5187500D02*
X10952500Y5162500D01*
X10837927Y5254574D02*
X10905000Y5187500D01*
X10831000Y5322000D02*
X10837927Y5315074D01*
X10905000Y5187500D02*
X10927500D01*
X10837927Y5254574D02*
Y5315074D01*
X10376250Y5168750D02*
X10513750D01*
X10375000Y5167500D02*
X10376250Y5168750D01*
X10513750D02*
X10515000Y5170000D01*
X10235000Y5315000D02*
X10237500Y5317500D01*
X10512500D01*
X10515000Y5320000D01*
X12272960Y6916575D02*
X12369075D01*
X12070000Y6919000D02*
X12073340Y6915660D01*
X12148980D01*
X7040000Y5140000D02*
Y5225000D01*
X12214802Y6941357D02*
Y6999801D01*
X12212502Y6939057D02*
X12214802Y6941357D01*
X12210970Y6939057D02*
X12212502D01*
X12214802Y6999801D02*
X12218633Y7003632D01*
X9457500Y8465000D02*
X9765000D01*
X9395000Y8402500D02*
X9457500Y8465000D01*
X9765000D02*
X9837500Y8392500D01*
X9385000Y8402500D02*
X9395000D01*
X11837500Y7655000D02*
X12002499Y7490001D01*
Y7405000D02*
Y7490001D01*
X11977000Y6917000D02*
X12068000D01*
X12070000Y6919000D01*
X11975000Y6915000D02*
X11977000Y6917000D01*
X11783000Y6914500D02*
X11874500D01*
X11875000Y6915000D01*
X11782500Y6914000D02*
X11783000Y6914500D01*
X11781500Y6915000D02*
X11782500Y6914000D01*
X11630000Y6915000D02*
X11781500D01*
X11167500Y6430001D02*
X11167500Y6430000D01*
X11167500Y6430001D02*
Y6452500D01*
X11167500Y6350000D02*
Y6430000D01*
X11955000Y6562500D02*
Y6672500D01*
X10837125Y6462257D02*
X10874382Y6425000D01*
X10837125Y6462257D02*
Y6516875D01*
X10877500Y6425000D02*
X10882500D01*
X10850000Y6385000D02*
X10877500Y6412500D01*
X10850000Y6349000D02*
Y6385000D01*
X10874382Y6425000D02*
X10877500D01*
X10850000Y6349000D02*
X10855000Y6344000D01*
X9595250Y8118250D02*
X9601000Y8124000D01*
X9245000Y8112500D02*
X9250750Y8118250D01*
X9245000Y8262500D02*
X9250750Y8256750D01*
X9595250D02*
X9601000Y8251000D01*
X8683999Y7819999D02*
X8735000Y7871000D01*
X8680999Y7819999D02*
X8683999D01*
X8735000Y7871000D02*
Y7987500D01*
X8730000Y7992500D02*
X8735000Y7987500D01*
Y7871000D02*
X8735000Y7871000D01*
X8830000Y7858999D02*
Y7992500D01*
Y7858999D02*
X8868999Y7819999D01*
X8485000Y5510000D02*
Y5625000D01*
X7782500Y6405000D02*
X7790000Y6397500D01*
X7717500Y6405000D02*
X7782500D01*
X7697500Y6425000D02*
X7717500Y6405000D01*
X7667425Y6646293D02*
X7697500Y6616218D01*
X7559999Y6648500D02*
X7562206Y6646293D01*
X7667425D01*
X7697500Y6425000D02*
Y6616218D01*
X7787500Y6528217D02*
Y6538217D01*
X7812500Y6563217D02*
X7831857D01*
X7787500Y6538217D02*
X7812500Y6563217D01*
X7831857D02*
X7896140Y6627500D01*
X7917500D02*
X7942500Y6652500D01*
Y6657500D01*
X7896140Y6627500D02*
X7917500D01*
X10802808Y5483308D02*
X10940807D01*
X10796500Y5476999D02*
X10802808Y5483308D01*
X10940807D02*
X10990000Y5532500D01*
X9230000Y8247500D02*
X9245000Y8262500D01*
X9220000Y8087500D02*
Y8097500D01*
X9235000Y8112500D01*
X9245000D01*
X9152500Y8020000D02*
X9220000Y8087500D01*
X8690000Y7760000D02*
X8732500Y7717500D01*
X8690000Y7760000D02*
Y7810999D01*
X8680999Y7819999D02*
X8690000Y7810999D01*
X9250750Y8118250D02*
X9595250D01*
X9205000Y8247500D02*
X9230000D01*
X9390000Y8256750D02*
X9595250D01*
X9250750D02*
X9390000D01*
X9055000Y8097500D02*
X9205000Y8247500D01*
X8520000Y7330000D02*
X8615000Y7425000D01*
X8972499Y7819999D02*
X9055000Y7902500D01*
X8868999Y7819999D02*
X8972499D01*
X9055000Y7902500D02*
Y8097500D01*
X9007500Y7717500D02*
X9152500Y7862500D01*
Y8020000D01*
X8732500Y7717500D02*
X9007500D01*
X8665000Y7137500D02*
X8665000Y7137500D01*
X8520000Y7135000D02*
Y7137500D01*
Y7330000D01*
Y7137500D02*
X8665000D01*
X8287500Y6940000D02*
X8482500Y7135000D01*
X8287500Y5822500D02*
Y6940000D01*
Y5822500D02*
X8485000Y5625000D01*
X9601000Y7997000D02*
X9602500Y7998500D01*
X8615000Y7425000D02*
X8860000D01*
X9262500Y7827500D01*
X9355000D01*
X9756500Y7997500D02*
X9757500Y7998500D01*
X9602500D02*
X9757500D01*
X9427500Y7895000D02*
X9565001D01*
X9360000Y7827500D02*
X9427500Y7895000D01*
X9793500Y7998500D02*
X9837500Y8042500D01*
X9757500Y7998500D02*
X9793500D01*
X9837500Y8042500D02*
Y8392500D01*
X10767500Y7863861D02*
Y7981140D01*
X10767500Y7981141D01*
X10767500Y7387500D02*
Y7863861D01*
Y7387500D02*
X10882500Y7272500D01*
Y7266069D02*
X10927569D01*
X10842500Y8115001D02*
X10845000Y8117500D01*
Y8180000D01*
X10872500Y8207500D01*
X11257500D01*
X11280000Y8185000D01*
Y8107500D02*
Y8185000D01*
X11717426Y8205000D02*
X11735000Y8187426D01*
X11280000Y8185000D02*
X11300000Y8205000D01*
X11717426D01*
X11735000Y8112500D02*
Y8187426D01*
X11737500Y8115000D02*
X11812500D01*
X11732500Y8110001D02*
X11735000Y8112500D01*
X11737500Y8115000D01*
X11812500D02*
X11837500Y8090000D01*
Y7655000D02*
Y8090000D01*
X10842500Y8105001D02*
X10847500Y8110001D01*
X10842500Y8095001D02*
Y8105001D01*
X10817500Y8070000D02*
X10842500Y8095001D01*
X10816552Y8070000D02*
X10817500D01*
X10767500Y7981141D02*
Y8020949D01*
X10816552Y8070000D01*
X10219500Y5465500D02*
X10231000Y5477000D01*
X10077500Y5322500D02*
X10112500Y5357500D01*
X10219500Y5458977D02*
Y5465500D01*
X10112500Y5357500D02*
X10118023D01*
X10231000Y5477000D02*
X10303500D01*
X10118023Y5357500D02*
X10219500Y5458977D01*
X9987187Y5453977D02*
X9988949Y5455739D01*
X10073239D02*
X10075000Y5457500D01*
X9988949Y5455739D02*
X10073239D01*
X8482500Y7135000D02*
X8520000D01*
X10877500Y6412500D02*
Y6425000D01*
X10842500Y8115001D02*
X10847500Y8110001D01*
X10882500Y7185000D02*
Y7266069D01*
Y7272500D01*
X11021250Y7274750D02*
X11022500Y7276000D01*
X10936250Y7274750D02*
X11021250D01*
X9308630Y7972166D02*
X9390334D01*
X9306464Y7974332D02*
X9308630Y7972166D01*
X9390334D02*
X9392500Y7970000D01*
X6662500Y6509649D02*
Y6597500D01*
X6660351Y6507500D02*
X6662500Y6509649D01*
Y6597500D02*
X6662500Y6597500D01*
X8776997Y7618003D02*
X8851467D01*
X8853464Y7616006D01*
X8775000Y7620000D02*
X8776997Y7618003D01*
X8944155Y7138345D02*
Y7211843D01*
X8943309Y7212689D02*
X8944155Y7211843D01*
Y7138345D02*
X8945000Y7137500D01*
X8805106Y7212583D02*
X8805212Y7212689D01*
X8805106Y7137606D02*
Y7212583D01*
X8805000Y7137500D02*
X8805106Y7137606D01*
X10067169Y5175484D02*
X10068827Y5173827D01*
X9988800Y5175484D02*
X10067169D01*
X10094000Y8124000D02*
X10356000D01*
D47*
X10003301Y8364200D02*
X10080200D01*
X9945000Y7950000D02*
Y8305899D01*
X10080200Y8364200D02*
X10094000Y8378000D01*
X9945000Y8305899D02*
X10003301Y8364200D01*
X10117500Y7247500D02*
X10260000Y7105000D01*
X10117500Y7247500D02*
Y7660655D01*
X10894446Y6593190D02*
X10913956Y6612700D01*
X10952700D02*
X10955000Y6615000D01*
X10913956Y6612700D02*
X10952700D01*
X10475000Y6593190D02*
X10894446D01*
X10602081Y6660400D02*
X10686681Y6745000D01*
X9928519Y6660400D02*
X10602081D01*
X9920619Y6652500D02*
X9928519Y6660400D01*
X9870656Y6898156D02*
X9896232D01*
X9980776Y6982701D01*
X10644172D01*
X10662500Y6769181D02*
X10686681Y6745000D01*
X10676872Y6965000D02*
X10955000D01*
X10662500Y6917501D02*
Y6964373D01*
X10644172Y6982701D02*
X10662500Y6964373D01*
X10669373Y6957500D02*
X10676872Y6965000D01*
X10611900Y7028100D02*
X10683604D01*
X10710910Y7065000D02*
X10955000D01*
X10696705Y7015000D02*
X10955000D01*
X10472500Y7303410D02*
X10710910Y7065000D01*
X10683604Y7028100D02*
X10696705Y7015000D01*
X10472500Y7303410D02*
Y8125000D01*
X10397500Y7242500D02*
X10611900Y7028100D01*
X10855819Y6745000D02*
X10880000Y6769181D01*
X10686681Y6745000D02*
X10855819D01*
X10662500Y6769181D02*
Y6822500D01*
X10880000Y6769181D02*
Y6840000D01*
X10905000Y6865000D01*
X11745000Y7077500D02*
X11752979D01*
X11742871D02*
X11745000D01*
X8052500Y6790000D02*
X8055000Y6787500D01*
X8050000Y6792500D02*
X8052500Y6790000D01*
X7942500Y6792500D02*
X8050000D01*
X9992500Y7785655D02*
Y7902500D01*
Y7785655D02*
X10117500Y7660655D01*
X9945000Y7950000D02*
X9992500Y7902500D01*
X10645200Y5452300D02*
Y5835200D01*
Y5452300D02*
X10690000Y5407500D01*
X10912500D01*
X10952500Y5312500D02*
Y5367500D01*
X10912500Y5407500D02*
X10952500Y5367500D01*
X10645200Y5835200D02*
X10668000Y5858000D01*
X11821250Y7305750D02*
X11908750D01*
X11820000Y7304500D02*
X11821250Y7305750D01*
X11820500Y7206500D02*
X11821000Y7206000D01*
X11908750Y7305750D02*
X11910000Y7307000D01*
X11820000Y7304500D02*
X11820500Y7304000D01*
Y7206500D02*
Y7304000D01*
X10953750Y6516250D02*
X10955000Y6515000D01*
X12010750Y7305250D02*
X12012500Y7303500D01*
X11910000Y7307000D02*
X11911750Y7305250D01*
X12010750D01*
X10961300Y6360300D02*
X11015200Y6414200D01*
Y6450200D02*
X11017500Y6452500D01*
X11015200Y6414200D02*
Y6450200D01*
X10842500Y7922501D02*
X10915000D01*
X11367500Y7127500D02*
Y7892500D01*
X11332500Y7927500D02*
X11367500Y7892500D01*
X11280000Y7925000D02*
X11282499Y7927500D01*
X11332500D01*
X11417500Y7127500D02*
Y7507500D01*
X11732500Y7822500D01*
Y7925000D01*
X11252500Y6292500D02*
Y6350000D01*
X11232500Y6272500D02*
X11252500Y6292500D01*
X11230412Y6272500D02*
X11232500D01*
X11215000Y6262500D02*
X11220412D01*
X11230412Y6272500D01*
X10837750Y6516250D02*
X10953750D01*
X11630000Y7015000D02*
X11632300Y7017300D01*
X11727500Y7221255D02*
X11727700Y7221455D01*
X11235700Y7314800D02*
X11250000Y7300500D01*
Y7298500D02*
Y7300500D01*
X11115000Y7374000D02*
X11120000D01*
X11179200Y7314800D02*
X11235700D01*
X11120000Y7374000D02*
X11179200Y7314800D01*
X11317500Y7127500D02*
X11318100Y7128099D01*
Y7519400D01*
X10915000Y7922501D02*
X11318100Y7519400D01*
X11267126Y7251545D02*
X11267500Y7251171D01*
X11267126Y7251545D02*
Y7282200D01*
X11267500Y7127500D02*
Y7251171D01*
X11250000Y7298500D02*
X11250826D01*
X11267126Y7282200D01*
X11630000Y6565000D02*
X11632300Y6562700D01*
X10905000Y6865000D02*
X10955000D01*
X7942500Y6792500D02*
X7945000Y6795000D01*
X10122228Y8252500D02*
X10345000D01*
X10472500Y8125000D01*
X10668000Y5858000D02*
X10796500D01*
Y5731000D02*
X10800199Y5727300D01*
X11690200Y5967700D02*
Y6543545D01*
X11632300Y6562700D02*
X11671045D01*
X11690200Y6543545D01*
X11445000Y5722500D02*
X11690200Y5967700D01*
X11050000Y5790000D02*
X11055585Y5795585D01*
X11231129Y5727300D02*
X11234414Y5730585D01*
X10800199Y5727300D02*
X11231129D01*
X10796500Y5604000D02*
X11196500D01*
X11055585Y5795585D02*
X11238085D01*
X11567500Y6125000D02*
Y6452500D01*
X11238085Y5795585D02*
X11567500Y6125000D01*
X11168000Y5858000D02*
X11517500Y6207500D01*
X10796500Y5858000D02*
X11168000D01*
X11517500Y6207500D02*
Y6452500D01*
X9087500Y7137500D02*
X9090000Y7140000D01*
X9177426D02*
X9195000Y7122426D01*
X9090000Y7140000D02*
X9177426D01*
X9195000Y6927500D02*
Y7122426D01*
X9152500Y6885000D02*
X9195000Y6927500D01*
X9035000Y6885000D02*
X9152500D01*
X8850000Y6700000D02*
X9035000Y6885000D01*
X8460001Y6700000D02*
X8850000D01*
X11367500Y6394363D02*
Y6452500D01*
X11622958Y6030459D02*
Y6512700D01*
X11625258Y6515000D02*
X11630000D01*
X11196500Y5604000D02*
X11622958Y6030459D01*
Y6512700D02*
X11625258Y6515000D01*
X10117721Y7947279D02*
Y7983200D01*
X10094000Y7997000D02*
X10103921D01*
X10117721Y7983200D01*
X10213688Y7822500D02*
X10217500D01*
X10186388Y7849800D02*
Y7878612D01*
Y7849800D02*
X10213688Y7822500D01*
X10117721Y7947279D02*
X10186388Y7878612D01*
X11704800Y7352700D02*
X11727700Y7329800D01*
X11652500Y7382500D02*
X11682300Y7352700D01*
X11727700Y7221455D02*
Y7329800D01*
X11682300Y7352700D02*
X11704800D01*
X11821000Y7116000D02*
Y7206000D01*
X11642500Y7065000D02*
X11727500Y7150000D01*
X11630000Y7065000D02*
X11642500D01*
X11632300Y7017300D02*
X11682671D01*
X11727500Y7150000D02*
Y7221255D01*
X11682671Y7017300D02*
X11742871Y7077500D01*
X11806700Y7101700D02*
X11821000Y7116000D01*
X11752979Y7077500D02*
X11777179Y7101700D01*
X11806700D01*
X10773080Y7119420D02*
X11015200D01*
X11017500Y7121720D02*
Y7127500D01*
X10550000Y7342500D02*
X10773080Y7119420D01*
X11015200D02*
X11017500Y7121720D01*
X7942500Y6930000D02*
X7944763Y6932262D01*
X8025390D01*
X10226745Y5173255D02*
X10235000Y5165000D01*
X10077500Y5177500D02*
X10081745Y5173255D01*
X10226745D01*
X9602959Y8379959D02*
X9739156D01*
X9741115Y8381918D01*
X9601000Y8378000D02*
X9602959Y8379959D01*
X9355981Y7681519D02*
X9356690Y7680810D01*
Y7596448D02*
Y7680810D01*
X9485000Y7817500D02*
X9495000D01*
X9457700Y7790200D02*
X9485000Y7817500D01*
X9355000Y7682500D02*
X9392300Y7719800D01*
X11522500Y7287500D02*
X11547300Y7262700D01*
X11517500Y7287500D02*
X11522500D01*
X11547300Y7235200D02*
X11567500Y7215000D01*
X11547300Y7235200D02*
Y7262700D01*
X11567500Y7127500D02*
Y7215000D01*
X9392300Y7719800D02*
X9399769D01*
X9457700Y7777731D02*
Y7790200D01*
X9399769Y7719800D02*
X9457700Y7777731D01*
X10094000Y7997000D02*
X10105348D01*
X10166500D02*
X10229500D01*
X10105348D02*
X10166500D01*
X10266760Y8034260D02*
Y8044260D01*
X10272500Y8050000D01*
X10229500Y7997000D02*
X10266760Y8034260D01*
X10356000Y8124000D02*
X10397500Y8082500D01*
X10550000Y7342500D02*
Y8185000D01*
X10274946Y8325000D02*
X10410000D01*
X10550000Y8185000D01*
X10397500Y7242500D02*
Y8082500D01*
D48*
X11250000Y7376500D02*
X11253650Y7380150D01*
X10937312Y7342932D02*
Y7421647D01*
X7065397Y6904603D02*
Y6973229D01*
X7019999Y6902500D02*
X7067500D01*
X7065397Y6904603D02*
X7067500Y6902500D01*
X6971580Y6913000D02*
X6982080Y6902500D01*
X6971580Y6913000D02*
Y6972756D01*
X6982080Y6902500D02*
X7019999D01*
X10076750Y5605750D02*
X10301750D01*
X10303500Y5604000D01*
X10075000Y5607500D02*
X10076750Y5605750D01*
X9936250Y5601250D02*
X10068750D01*
X9930000Y5595000D02*
X9936250Y5601250D01*
X10068750D02*
X10075000Y5607500D01*
X9753432Y5417500D02*
X9900000Y5564068D01*
X9605931Y5417500D02*
X9753432D01*
X9900000Y5564068D02*
Y5575000D01*
X9920000Y5595000D02*
X9930000D01*
X9900000Y5575000D02*
X9920000Y5595000D01*
X9582500Y5440931D02*
Y5575000D01*
Y5440931D02*
X9605931Y5417500D01*
X9572500Y5585000D02*
X9582500Y5575000D01*
X9626000Y5760000D02*
X9629000D01*
X9572500Y5706500D02*
X9626000Y5760000D01*
X9572500Y5585000D02*
Y5706500D01*
X11253650Y7380150D02*
Y7443650D01*
X11254800Y7444800D01*
X6912254Y7075661D02*
X6912499Y7075416D01*
X6907654Y7135000D02*
X6912254Y7130401D01*
Y7075661D02*
Y7130401D01*
X6895000Y7135000D02*
X6907654D01*
D49*
X7072500Y7140000D02*
X7091317Y7121183D01*
X8912500Y5222500D02*
X9090000Y5400000D01*
X8287500Y5222500D02*
X8912500D01*
X7368108Y5220000D02*
X8285000D01*
X8287500Y5222500D01*
X7218386Y5369722D02*
X7368108Y5220000D01*
X7045279Y5369722D02*
X7127500D01*
X7218386D01*
X9742163Y6392838D02*
X9908338D01*
X9647500Y6297500D02*
X9742500Y6392500D01*
X8185000Y5697500D02*
X8277500Y5605000D01*
X8280000D01*
X8930000Y7992500D02*
Y8115001D01*
X8885000Y8160000D02*
X8930000Y8115001D01*
X8375000Y8047500D02*
X8487500Y8160000D01*
X8885000D01*
X6665000Y6697500D02*
Y6892500D01*
X7040000Y5375000D02*
X7045279Y5369722D01*
X9090000Y5400000D02*
X9345000D01*
X9382500Y5437500D02*
Y5575000D01*
X9345000Y5400000D02*
X9382500Y5437500D01*
X6775000Y5377500D02*
X6907500D01*
X6907500Y5377500D01*
Y5377500D02*
X7040000D01*
X9090000Y5400000D02*
Y5737500D01*
X9372500Y6020000D01*
X8375000Y7232500D02*
Y8047500D01*
X8185000Y5697500D02*
Y7042500D01*
X8375000Y7232500D01*
X6664067Y6893433D02*
X6665000Y6892500D01*
X6664067Y6893433D02*
Y6984967D01*
X6914659Y7147751D02*
X7086859D01*
X7091317Y7078111D02*
Y7121183D01*
D50*
X11630000Y6865000D02*
X11633714Y6861287D01*
X11671213D01*
X11703735Y6766982D02*
Y6828765D01*
X11671213Y6861287D02*
X11703735Y6828765D01*
X10814447Y6823110D02*
X10816500Y6825163D01*
Y6885500D01*
X10823154Y6892154D02*
X10825154D01*
X10816500Y6885500D02*
X10823154Y6892154D01*
X11715451Y6755267D02*
X11757257D01*
X11703735Y6766982D02*
X11715451Y6755267D01*
X11757257D02*
X11767517Y6745006D01*
X10825154Y6892154D02*
X10835500Y6902500D01*
X10848000Y6915000D01*
X10955000D01*
X10937500Y7225000D02*
X10974800Y7187700D01*
X11112500Y7132500D02*
X11117500Y7127500D01*
X11115000Y7271000D02*
X11117276D01*
X11129576Y7206553D02*
Y7258700D01*
X11117276Y7271000D02*
X11129576Y7258700D01*
X11022500Y7276000D02*
X11039500Y7259000D01*
Y7238000D02*
X11112500Y7165000D01*
Y7132500D02*
Y7165000D01*
X11039500Y7238000D02*
Y7259000D01*
X11042226Y7187700D02*
X11062500Y7167426D01*
Y7132500D02*
Y7167426D01*
X10974800Y7187700D02*
X11042226D01*
X11062500Y7132500D02*
X11067500Y7127500D01*
X11165200Y7129800D02*
X11167500Y7127500D01*
X11129576Y7206553D02*
X11165200Y7170930D01*
Y7129800D02*
Y7170930D01*
X11213578Y7131422D02*
Y7200398D01*
X11204800Y7209176D02*
Y7220000D01*
X11213578Y7131422D02*
X11217500Y7127500D01*
X11204800Y7209176D02*
X11213578Y7200398D01*
X10937500Y7225000D02*
Y7259500D01*
D51*
X12880540Y7196240D02*
X12882700D01*
X12860220D02*
X12880540D01*
X12839900D02*
X12860220D01*
X12819580D02*
X12839900D01*
X12799260D02*
X12819580D01*
X12782699D02*
X12799260D01*
X12982140Y7096240D02*
X12982700D01*
X12961819D02*
X12982140D01*
X12941499D02*
X12961819D01*
X12921181D02*
X12941499D01*
X12900861D02*
X12921181D01*
X12880540D02*
X12900861D01*
X12860220D02*
X12880540D01*
X12839900D02*
X12860220D01*
X12819580D02*
X12839900D01*
X12799260D02*
X12819580D01*
X12782699D02*
X12799260D01*
X12778940Y7296239D02*
X12782699D01*
X12758620D02*
X12778940D01*
X12738300D02*
X12758620D01*
X12717980D02*
X12738300D01*
X12697660D02*
X12717980D01*
X12682699D02*
X12697660D01*
X13063420Y5454460D02*
X13083740D01*
X13043100D02*
X13063420D01*
X13022780D02*
X13043100D01*
X13002460D02*
X13022780D01*
X12982700D02*
X13002460D01*
X12778940Y6996240D02*
X12782699D01*
X12758620D02*
X12778940D01*
X12738300D02*
X12758620D01*
X12717980D02*
X12738300D01*
X12700870D02*
X12717980D01*
X12697660D02*
X12700870D01*
X12682699D02*
X12697660D01*
X13063420Y7994460D02*
X13083740D01*
X13043100D02*
X13063420D01*
X13022780D02*
X13043100D01*
X13002460D02*
X13022780D01*
X12982140D02*
X13002460D01*
X12961819D02*
X12982140D01*
X12941499D02*
X12961819D01*
X12921181D02*
X12941499D01*
X12900861D02*
X12921181D01*
X12880540D02*
X12900861D01*
X12860220D02*
X12880540D01*
X12839900D02*
X12860220D01*
X12819580D02*
X12839900D01*
X12799260D02*
X12819580D01*
X12778940D02*
X12799260D01*
X12758620D02*
X12778940D01*
X12738300D02*
X12758620D01*
X12717980D02*
X12738300D01*
X12697660D02*
X12717980D01*
X12677340D02*
X12697660D01*
X12657020D02*
X12677340D01*
X12636700D02*
X12657020D01*
X12616380D02*
X12636700D01*
X12596060D02*
X12616380D01*
X12575740D02*
X12596060D01*
X12555420D02*
X12575740D01*
X12535100D02*
X12555420D01*
X12514780D02*
X12535100D01*
X12494460D02*
X12514780D01*
X12489380D02*
X12494460D01*
X12880540Y7796241D02*
X12882700D01*
X12860220D02*
X12880540D01*
X12839900D02*
X12860220D01*
X12819580D02*
X12839900D01*
X12799260D02*
X12819580D01*
X12778940D02*
X12799260D01*
X12758620D02*
X12778940D01*
X12738300D02*
X12758620D01*
X12717980D02*
X12738300D01*
X12697660D02*
X12717980D01*
X12677340D02*
X12697660D01*
X12657020D02*
X12677340D01*
X12636700D02*
X12657020D01*
X12616380D02*
X12636700D01*
X12596060D02*
X12616380D01*
X12474140Y7311200D02*
X12486840D01*
X12453820D02*
X12474140D01*
X12433500D02*
X12453820D01*
X12413180D02*
X12433500D01*
X12392860D02*
X12413180D01*
X12382700D02*
X12392860D01*
X12474140Y7196240D02*
X12482700D01*
X12453820D02*
X12474140D01*
X12433500D02*
X12453820D01*
X12413180D02*
X12433500D01*
X12392860D02*
X12413180D01*
X12382700D02*
X12392860D01*
X12474140Y7096240D02*
X12482700D01*
X12453820D02*
X12474140D01*
X12433500D02*
X12453820D01*
X12413180D02*
X12433500D01*
X12392860D02*
X12413180D01*
X12382700D02*
X12392860D01*
X12596060Y7796241D02*
Y7994460D01*
Y6996240D02*
Y7796241D01*
X12575740Y6996240D02*
X12596060D01*
X12555420D02*
X12575740D01*
X12535100D02*
X12555420D01*
X12514780D02*
X12535100D01*
X12494460D02*
X12514780D01*
X12474140D02*
X12494460D01*
X12453820D02*
X12474140D01*
X12433500D02*
X12453820D01*
X12413180D02*
X12433500D01*
X12392860D02*
X12413180D01*
X12382700D02*
X12392860D01*
Y7196240D02*
Y7311200D01*
X13083740Y5454460D02*
Y7994460D01*
X12982700Y5454460D02*
Y7096240D01*
X12961819D02*
Y7994460D01*
X13002460Y5454460D02*
Y7994460D01*
X13022780Y5454460D02*
Y7994460D01*
X13043100Y5454460D02*
Y7994460D01*
X13063420Y5454460D02*
Y7994460D01*
X12616380Y7796241D02*
Y7994460D01*
X12636700Y7796241D02*
Y7994460D01*
X12657020Y7796241D02*
Y7994460D01*
X12677340Y7796241D02*
Y7994460D01*
X12697660Y7796241D02*
Y7994460D01*
X12717980Y7796241D02*
Y7994460D01*
X12758620Y7796241D02*
Y7994460D01*
X12778940Y7796241D02*
Y7994460D01*
X12799260Y7796241D02*
Y7994460D01*
X12819580Y7796241D02*
Y7994460D01*
X12839900Y7796241D02*
Y7994460D01*
X12860220Y7796241D02*
Y7994460D01*
X12486840Y7311200D02*
X12489380Y7941120D01*
X12474140Y6996240D02*
Y7096240D01*
X12392860Y6996240D02*
Y7096240D01*
X12482700D02*
Y7196240D01*
X12596060Y6996240D02*
Y7796241D01*
X12494460Y6996240D02*
Y7994460D01*
X12514780Y6996240D02*
Y7994460D01*
X12535100Y6996240D02*
Y7994460D01*
X12555420Y6996240D02*
Y7994460D01*
X12575740Y6996240D02*
Y7994460D01*
X12382700Y7196240D02*
Y7311200D01*
Y6996240D02*
Y7096240D01*
X12413180Y6996240D02*
Y7096240D01*
X12433500Y6996240D02*
Y7096240D01*
X12453820Y6996240D02*
Y7096240D01*
X12489380Y7941120D02*
Y7994460D01*
X12880540Y7796241D02*
Y7994460D01*
X12738300Y7796241D02*
Y7994460D01*
X12682699Y6996240D02*
Y7296239D01*
X12782699Y7196240D02*
Y7296239D01*
X12697660Y6996240D02*
Y7296239D01*
X12717980Y6996240D02*
Y7296239D01*
X12738300Y6996240D02*
Y7296239D01*
X12758620Y6996240D02*
Y7296239D01*
X12778940Y6996240D02*
Y7296239D01*
X12782699Y6996240D02*
Y7096240D01*
X12799260D02*
Y7196240D01*
X12839900Y7096240D02*
Y7196240D01*
X12860220Y7096240D02*
Y7196240D01*
X12819580Y7096240D02*
Y7196240D01*
X12880540Y7096240D02*
Y7196240D01*
X12882700D02*
Y7796241D01*
X12900861Y7096240D02*
Y7994460D01*
X12921181Y7096240D02*
Y7994460D01*
X12941499Y7096240D02*
Y7994460D01*
X12982140Y7096240D02*
Y7994460D01*
X12413180Y7196240D02*
Y7311200D01*
X12433500Y7196240D02*
Y7311200D01*
X12453820Y7196240D02*
Y7311200D01*
X12474140Y7196240D02*
Y7311200D01*
D52*
X12700870Y6996240D02*
X12707497Y7002867D01*
X12622128Y6917500D02*
X12700870Y6996240D01*
X12370000Y6917500D02*
X12622128D01*
D53*
X12216501Y6847699D02*
X12227500Y6836700D01*
X12216501Y6847699D02*
Y6893038D01*
X12227500Y6827500D02*
Y6836700D01*
X12063006Y6834006D02*
X12070000Y6841000D01*
X12076995Y6834005D01*
X11630000Y6965000D02*
X11695000D01*
X11735000Y7005000D01*
X11795000D01*
X11022894Y7421750D02*
X11023288Y7422144D01*
X11022500Y7354000D02*
X11022894Y7354394D01*
Y7421750D01*
X9683599Y5573900D02*
X9746166D01*
X9682500Y5575000D02*
X9683599Y5573900D01*
D54*
X7827500Y7200000D02*
X7842500Y7215000D01*
Y7710000D02*
X7857500Y7725000D01*
X7842500Y7215000D02*
Y7710000D01*
X7882000Y5620350D02*
X7894150Y5632500D01*
X8042500D02*
X8042500Y5632500D01*
X7894150Y5632500D02*
X8042500D01*
X7882000Y5595000D02*
Y5620350D01*
X7223000Y5595000D02*
X7869850D01*
D55*
X8042500Y5507500D02*
Y5632500D01*
Y5507500D02*
X8617500D01*
D56*
X7352500Y7215000D02*
X7397500D01*
X6775608Y5404393D02*
Y5522500D01*
X6725608Y5572500D02*
X6775608Y5522500D01*
X6722500Y5572500D02*
X6725608D01*
D57*
X7137500Y7725000D02*
D03*
X7857500D02*
D03*
D58*
X8172500Y8325000D02*
D03*
X6822500D02*
D03*
D59*
X9912500Y7159000D02*
D03*
D60*
Y6905000D02*
D03*
Y6651000D02*
D03*
Y6397000D02*
D03*
D61*
X6457500Y8320000D02*
D03*
X12200000D02*
D03*
Y5250000D02*
D03*
X6457500D02*
D03*
D62*
X9407500Y7115000D02*
D03*
X9507500D02*
D03*
X9607500Y7112500D02*
D03*
X9160000Y6622500D02*
D03*
X11771373Y6598013D02*
D03*
X11861862Y6599135D02*
D03*
X7390000Y5892500D02*
D03*
X7317500D02*
D03*
X7910000Y6067500D02*
D03*
Y6135000D02*
D03*
Y6202500D02*
D03*
X8045000Y5860000D02*
D03*
X7390000Y5820000D02*
D03*
X7315000Y5822500D02*
D03*
X7910000Y5925000D02*
D03*
X7832500Y5927500D02*
D03*
X7757500D02*
D03*
X7910000Y6000000D02*
D03*
X7832500D02*
D03*
X7757500D02*
D03*
X9647500Y6297500D02*
D03*
X10260000Y7105000D02*
D03*
X10475000Y6593190D02*
D03*
X9951235Y7289792D02*
D03*
X9871814Y7288374D02*
D03*
X10725000Y6827500D02*
D03*
X10814447Y6823110D02*
D03*
X11212217Y6950566D02*
D03*
X11292500D02*
D03*
X11372783D02*
D03*
X11131934D02*
D03*
X11453067D02*
D03*
X11131934Y6629433D02*
D03*
Y6870283D02*
D03*
Y6790000D02*
D03*
Y6709717D02*
D03*
X11212217Y6629433D02*
D03*
Y6870283D02*
D03*
Y6790000D02*
D03*
Y6709717D02*
D03*
X11292500Y6629433D02*
D03*
Y6870283D02*
D03*
Y6790000D02*
D03*
Y6709717D02*
D03*
X11372783Y6629433D02*
D03*
Y6870283D02*
D03*
Y6790000D02*
D03*
Y6709717D02*
D03*
X11453067Y6629433D02*
D03*
Y6870283D02*
D03*
Y6790000D02*
D03*
Y6709717D02*
D03*
X7127500Y5370000D02*
D03*
X8052500Y6790000D02*
D03*
X7342500Y6835000D02*
D03*
Y6755000D02*
D03*
X7245000Y6835000D02*
D03*
X6971580Y6972756D02*
D03*
X7065397Y6973229D02*
D03*
X7245000Y6595000D02*
D03*
X7342500D02*
D03*
X7245000Y6675000D02*
D03*
Y6755000D02*
D03*
X7342500Y6675000D02*
D03*
X12307500Y6830000D02*
D03*
X12237505Y7410005D02*
D03*
X12218633Y7003632D02*
D03*
X9157500Y6787500D02*
D03*
X7037502Y8210006D02*
D03*
X7237502D02*
D03*
X7137502Y8410006D02*
D03*
X7437503Y8210006D02*
D03*
X7337502Y8410006D02*
D03*
X7637503Y8210006D02*
D03*
X7537503Y8410006D02*
D03*
X7837503Y8210006D02*
D03*
X7737503Y8410006D02*
D03*
X7937503D02*
D03*
X8537503Y7610006D02*
D03*
X11337505Y5210004D02*
D03*
X11537505D02*
D03*
X11637505Y5410004D02*
D03*
X11737505Y5210004D02*
D03*
X11837505Y5410004D02*
D03*
X11737505Y5610005D02*
D03*
X11937505Y5210004D02*
D03*
X12037505Y5410004D02*
D03*
X11937505Y5610005D02*
D03*
X12037505Y5810005D02*
D03*
X11937505Y6010005D02*
D03*
X12037505Y6210005D02*
D03*
Y6610005D02*
D03*
Y7810006D02*
D03*
X12137505Y5610005D02*
D03*
X12237505Y5810005D02*
D03*
X12137505Y6010005D02*
D03*
X12237505Y6210005D02*
D03*
X12137505Y6410005D02*
D03*
X12237505Y6610005D02*
D03*
X12137505Y7210005D02*
D03*
Y7610006D02*
D03*
X12237505Y7810006D02*
D03*
X12137505Y8010006D02*
D03*
X11897500Y7000000D02*
D03*
X10582500Y5477500D02*
D03*
X7940000Y6302500D02*
D03*
X11215000Y6262500D02*
D03*
X6812500Y7982500D02*
D03*
X6877500Y7507500D02*
D03*
X6812500Y7622500D02*
D03*
Y7752500D02*
D03*
Y7870000D02*
D03*
X11254800Y7444800D02*
D03*
X11204800Y7220000D02*
D03*
X9627500Y5962500D02*
D03*
X6772500Y5140000D02*
D03*
X6907500Y5142500D02*
D03*
X7040000Y5140000D02*
D03*
X10852500Y6110000D02*
D03*
X10882500Y6425000D02*
D03*
X11050000Y5790000D02*
D03*
X10307500Y5927500D02*
D03*
X9372500Y6020000D02*
D03*
X11445000Y5722500D02*
D03*
X11234414Y5730585D02*
D03*
X10990000Y5532500D02*
D03*
X11385000Y6367500D02*
D03*
X10882500Y7185000D02*
D03*
X11745000Y7077500D02*
D03*
X7697500Y6425000D02*
D03*
X8025390Y6932262D02*
D03*
X9987187Y5453977D02*
D03*
X11012760Y6267573D02*
D03*
X10787939Y6268479D02*
D03*
X10757570Y6454770D02*
D03*
X10937312Y7421647D02*
D03*
X11023288Y7422144D02*
D03*
X11908993Y7454198D02*
D03*
X11821775Y7455514D02*
D03*
X9741115Y8381918D02*
D03*
X6664067Y6984967D02*
D03*
X7091317Y7078111D02*
D03*
X6912499Y7075416D02*
D03*
X12142040Y7003632D02*
D03*
X12062500Y7002500D02*
D03*
X11977500Y7000000D02*
D03*
X11825000D02*
D03*
X11865000Y6827500D02*
D03*
X11945000D02*
D03*
X12147500D02*
D03*
X12227500D02*
D03*
X11968433Y7204867D02*
D03*
X11969390Y7117776D02*
D03*
X11654912Y7198252D02*
D03*
X9306464Y7974332D02*
D03*
X9356690Y7596448D02*
D03*
X6662500Y6597500D02*
D03*
X8565452Y8023530D02*
D03*
X8564114Y7952825D02*
D03*
X8853464Y7616006D02*
D03*
X8943309Y7212689D02*
D03*
X8805212D02*
D03*
X7958751Y5355353D02*
D03*
X9746166Y5573900D02*
D03*
X9988800Y5175484D02*
D03*
X11015959Y5450561D02*
D03*
X10272500Y8050000D02*
D03*
X10274946Y8325000D02*
D03*
X11519486Y7448609D02*
D03*
D63*
X8287500Y5222500D02*
D03*
X8280000Y5605000D02*
D03*
%TF.MD5,d397e1e80c948d01e26a05d207d991ca*%
M02*
