%TF.GenerationSoftware,Altium Limited,Altium Designer,24.1.2 (44)*%
G04 Layer_Color=8388736*
%FSLAX45Y45*%
%MOMM*%
%TF.SameCoordinates,DF2DA703-92E4-466D-A55C-C96BEC28C730*%
%TF.FilePolarity,Negative*%
%TF.FileFunction,Soldermask,Top*%
%TF.Part,Single*%
G01*
G75*
%TA.AperFunction,SMDPad,CuDef*%
%ADD10R,2.10000X1.27000*%
%ADD11R,0.25000X0.65000*%
%ADD12R,0.54000X0.58000*%
G04:AMPARAMS|DCode=13|XSize=0.8mm|YSize=1mm|CornerRadius=0.1mm|HoleSize=0mm|Usage=FLASHONLY|Rotation=270.000|XOffset=0mm|YOffset=0mm|HoleType=Round|Shape=RoundedRectangle|*
%AMROUNDEDRECTD13*
21,1,0.80000,0.80000,0,0,270.0*
21,1,0.60000,1.00000,0,0,270.0*
1,1,0.20000,-0.40000,-0.30000*
1,1,0.20000,-0.40000,0.30000*
1,1,0.20000,0.40000,0.30000*
1,1,0.20000,0.40000,-0.30000*
%
%ADD13ROUNDEDRECTD13*%
%ADD14C,0.02540*%
%ADD16R,2.62000X3.51000*%
%ADD17R,0.58000X0.54000*%
%ADD18R,1.10000X1.00000*%
G04:AMPARAMS|DCode=19|XSize=0.8mm|YSize=1mm|CornerRadius=0.1mm|HoleSize=0mm|Usage=FLASHONLY|Rotation=0.000|XOffset=0mm|YOffset=0mm|HoleType=Round|Shape=RoundedRectangle|*
%AMROUNDEDRECTD19*
21,1,0.80000,0.80000,0,0,0.0*
21,1,0.60000,1.00000,0,0,0.0*
1,1,0.20000,0.30000,-0.40000*
1,1,0.20000,-0.30000,-0.40000*
1,1,0.20000,-0.30000,0.40000*
1,1,0.20000,0.30000,0.40000*
%
%ADD19ROUNDEDRECTD19*%
%ADD20R,2.65000X1.75000*%
%ADD21R,2.20000X1.75000*%
%ADD22R,1.20000X1.80000*%
%ADD23R,0.60000X1.55000*%
%ADD24R,0.60000X0.50000*%
%ADD25R,0.60000X0.60000*%
G04:AMPARAMS|DCode=26|XSize=0.6mm|YSize=0.7mm|CornerRadius=0.075mm|HoleSize=0mm|Usage=FLASHONLY|Rotation=0.000|XOffset=0mm|YOffset=0mm|HoleType=Round|Shape=RoundedRectangle|*
%AMROUNDEDRECTD26*
21,1,0.60000,0.55000,0,0,0.0*
21,1,0.45000,0.70000,0,0,0.0*
1,1,0.15000,0.22500,-0.27500*
1,1,0.15000,-0.22500,-0.27500*
1,1,0.15000,-0.22500,0.27500*
1,1,0.15000,0.22500,0.27500*
%
%ADD26ROUNDEDRECTD26*%
%ADD27R,3.00000X2.00000*%
%ADD28R,0.84000X0.84000*%
%ADD29R,0.90000X0.84000*%
%ADD30R,1.98000X0.53000*%
%ADD31R,1.14300X3.55600*%
%ADD32R,1.14300X0.88900*%
%ADD33R,1.01600X0.88900*%
%ADD34R,1.00429X0.87213*%
%ADD35R,1.60000X0.61000*%
%ADD36R,0.27940X0.71120*%
%ADD37R,0.45720X0.25400*%
%ADD38R,1.20000X0.80000*%
%TA.AperFunction,TestPad*%
G04:AMPARAMS|DCode=39|XSize=0.75mm|YSize=0.8mm|CornerRadius=0.09375mm|HoleSize=0mm|Usage=FLASHONLY|Rotation=180.000|XOffset=0mm|YOffset=0mm|HoleType=Round|Shape=RoundedRectangle|*
%AMROUNDEDRECTD39*
21,1,0.75000,0.61250,0,0,180.0*
21,1,0.56250,0.80000,0,0,180.0*
1,1,0.18750,-0.28125,0.30625*
1,1,0.18750,0.28125,0.30625*
1,1,0.18750,0.28125,-0.30625*
1,1,0.18750,-0.28125,-0.30625*
%
%ADD39ROUNDEDRECTD39*%
%TA.AperFunction,SMDPad,CuDef*%
%ADD40R,0.30000X0.55000*%
%ADD41R,0.55000X0.30000*%
%ADD42R,5.60000X5.60000*%
%ADD43R,0.85000X0.75000*%
%TA.AperFunction,Conductor*%
%ADD51C,0.20320*%
%ADD52C,0.45720*%
%TA.AperFunction,ComponentPad*%
%ADD57C,5.20000*%
%ADD58O,1.90000X3.00000*%
%ADD59R,1.60000X1.60000*%
%ADD60C,1.60000*%
%TA.AperFunction,OtherPad,Pad A1-1 (126.65mm,80.429mm)*%
%ADD73C,0.01270*%
%TA.AperFunction,OtherPad,Pad A1-1 (125.796mm,79.575mm)*%
%ADD74C,0.01270*%
%TA.AperFunction,OtherPad,Pad A1-1 (123.275mm,79.575mm)*%
%ADD75C,0.01270*%
%TA.AperFunction,NonConductor*%
%ADD76C,0.20320*%
%ADD77C,0.45720*%
%TA.AperFunction,SMDPad,CuDef*%
%ADD78C,0.34200*%
%TA.AperFunction,ViaPad*%
%ADD79C,1.72720*%
D10*
X9507500Y6606500D02*
D03*
Y7003500D02*
D03*
D11*
X10562500Y6822500D02*
D03*
X10612500D02*
D03*
X10662500D02*
D03*
Y6917501D02*
D03*
X10612500D02*
D03*
X10562500D02*
D03*
D12*
X11857517Y6667006D02*
D03*
Y6745006D02*
D03*
X11255000Y7298500D02*
D03*
Y7376500D02*
D03*
X10855000Y6344000D02*
D03*
Y6266000D02*
D03*
X10945000Y6344000D02*
D03*
Y6266000D02*
D03*
X11767517Y6745006D02*
D03*
Y6667006D02*
D03*
X10935000Y7273500D02*
D03*
Y7351500D02*
D03*
X11022500Y7276000D02*
D03*
Y7354000D02*
D03*
X11910000Y7307000D02*
D03*
Y7385000D02*
D03*
X11820000Y7304500D02*
D03*
Y7382500D02*
D03*
X11782500Y6914000D02*
D03*
Y6836000D02*
D03*
X12070000Y6919000D02*
D03*
Y6841000D02*
D03*
D13*
X10217500Y7672500D02*
D03*
X8042500Y5632500D02*
D03*
X8945000Y7137500D02*
D03*
Y6987500D02*
D03*
X8042500Y5782500D02*
D03*
Y5507500D02*
D03*
Y5357500D02*
D03*
X6912009Y7150401D02*
D03*
Y7300401D02*
D03*
X7089509Y7150401D02*
D03*
Y7300401D02*
D03*
X7040000Y5375000D02*
D03*
X7040000Y5225000D02*
D03*
X6907500Y5377500D02*
D03*
X6907500Y5227500D02*
D03*
X8805000Y6987500D02*
D03*
X8805000Y7137500D02*
D03*
X8665000D02*
D03*
X8665000Y6987500D02*
D03*
X8520000Y7137500D02*
D03*
Y6987500D02*
D03*
X10075000Y5457500D02*
D03*
Y5607500D02*
D03*
X10072500Y5730000D02*
D03*
Y5880000D02*
D03*
X9930000Y5745000D02*
D03*
X9930000Y5595000D02*
D03*
X9392500Y8120000D02*
D03*
X9392500Y7970000D02*
D03*
X9385000Y8252500D02*
D03*
X9385000Y8402500D02*
D03*
X9245000Y8262500D02*
D03*
Y8112500D02*
D03*
X9762500Y7667500D02*
D03*
Y7817500D02*
D03*
X9632500Y7667500D02*
D03*
Y7817500D02*
D03*
X10515000Y5170000D02*
D03*
Y5320000D02*
D03*
X9495000Y7667500D02*
D03*
Y7817500D02*
D03*
X10952500Y5312500D02*
D03*
Y5162500D02*
D03*
X10235000Y5315000D02*
D03*
X10235000Y5165000D02*
D03*
X10217500Y7822500D02*
D03*
X6775000Y5227500D02*
D03*
X6775000Y5377500D02*
D03*
X10375000Y5167500D02*
D03*
Y5317500D02*
D03*
X9087500Y7137500D02*
D03*
Y6987500D02*
D03*
D14*
X12370000Y6917500D02*
D03*
D16*
X7289999Y6712000D02*
D03*
D17*
X11821000Y7206000D02*
D03*
X11899000D02*
D03*
X11821000Y7116000D02*
D03*
X11899000D02*
D03*
X10835500Y6902500D02*
D03*
X10757500D02*
D03*
X10834000Y6522500D02*
D03*
X10756000D02*
D03*
D18*
X9355000Y7827500D02*
D03*
Y7682500D02*
D03*
X10077500Y5177500D02*
D03*
Y5322500D02*
D03*
D19*
X7207500Y6385000D02*
D03*
X7357500D02*
D03*
X6815000Y6697500D02*
D03*
X6665000D02*
D03*
X7945000Y6530000D02*
D03*
X7787500Y6528217D02*
D03*
X11732500Y7925000D02*
D03*
X11582500D02*
D03*
X11280000D02*
D03*
X11130000D02*
D03*
X10842500Y7922501D02*
D03*
X10692500D02*
D03*
X11582500Y8110001D02*
D03*
X11732500D02*
D03*
X11130000Y8107500D02*
D03*
X11280000D02*
D03*
X10692500Y8105001D02*
D03*
X10842500D02*
D03*
X7792500Y6792500D02*
D03*
X7942500D02*
D03*
X7792500Y6657500D02*
D03*
X7942500D02*
D03*
X7792501Y6930000D02*
D03*
X7942500D02*
D03*
X7940000Y6397500D02*
D03*
X7790000D02*
D03*
X6665000Y6892500D02*
D03*
X6815000D02*
D03*
X6662500Y6507500D02*
D03*
X6812500D02*
D03*
D20*
X7397500Y7200000D02*
D03*
X7827500D02*
D03*
D21*
X7757500Y6142500D02*
D03*
X7327500D02*
D03*
D22*
X9812500Y5187500D02*
D03*
X9252500D02*
D03*
X8500000Y8380000D02*
D03*
X9060000D02*
D03*
D23*
X9382500Y5575000D02*
D03*
X9482500Y5575000D02*
D03*
X9582500D02*
D03*
X9682500D02*
D03*
X8930000Y7992500D02*
D03*
X8830000D02*
D03*
X8730000D02*
D03*
X8630000Y7992500D02*
D03*
D24*
X11115000Y7374000D02*
D03*
Y7271000D02*
D03*
D25*
X12002499Y7405000D02*
D03*
X12002500Y7307500D02*
D03*
D26*
X11975000Y6915000D02*
D03*
X11875000D02*
D03*
X11252500Y6350000D02*
D03*
X11152500D02*
D03*
D27*
X6722500Y5572500D02*
D03*
Y6212500D02*
D03*
D28*
X9441000Y5760000D02*
D03*
X9535000Y5960000D02*
D03*
X8775000Y7620000D02*
D03*
X8868999Y7819999D02*
D03*
D29*
X9629000Y5760000D02*
D03*
X8680999Y7819999D02*
D03*
D30*
X10303500Y5477000D02*
D03*
Y5604000D02*
D03*
Y5731000D02*
D03*
Y5858000D02*
D03*
X10796500Y5858000D02*
D03*
Y5731000D02*
D03*
Y5604000D02*
D03*
Y5476999D02*
D03*
X9601000Y7997000D02*
D03*
X9601000Y8124000D02*
D03*
X9601000Y8251000D02*
D03*
Y8378000D02*
D03*
X10094000D02*
D03*
X10094000Y8251000D02*
D03*
X10094000Y8124000D02*
D03*
X10094000Y7997000D02*
D03*
D31*
X7882000Y5595000D02*
D03*
D32*
X7223000D02*
D03*
D33*
Y5824000D02*
D03*
D34*
Y5366000D02*
D03*
D35*
X7019999Y6521500D02*
D03*
Y6648500D02*
D03*
Y6775500D02*
D03*
Y6902500D02*
D03*
X7559999D02*
D03*
Y6775500D02*
D03*
Y6648500D02*
D03*
Y6521500D02*
D03*
D36*
X12150010Y6916197D02*
D03*
X12271930D02*
D03*
D37*
X12210970Y6893337D02*
D03*
Y6939057D02*
D03*
D38*
X8460001Y6700000D02*
D03*
X9160000Y6700000D02*
D03*
D39*
X10831000Y5322000D02*
D03*
X10639000D02*
D03*
X10735000Y5128000D02*
D03*
X9995000Y7625500D02*
D03*
X9899000Y7819500D02*
D03*
X10091000D02*
D03*
D40*
X11017500Y6452500D02*
D03*
X11067500D02*
D03*
X11117500D02*
D03*
X11167500D02*
D03*
X11217500D02*
D03*
X11267500D02*
D03*
X11317500D02*
D03*
X11367500D02*
D03*
X11417500D02*
D03*
X11467500D02*
D03*
X11517500D02*
D03*
X11567500D02*
D03*
Y7127500D02*
D03*
X11517500D02*
D03*
X11467500D02*
D03*
X11417500D02*
D03*
X11367500D02*
D03*
X11317500D02*
D03*
X11267500D02*
D03*
X11217500D02*
D03*
X11167500D02*
D03*
X11117500D02*
D03*
X11067500D02*
D03*
X11017500D02*
D03*
D41*
X11630000Y6515000D02*
D03*
Y6565000D02*
D03*
Y6615000D02*
D03*
Y6665000D02*
D03*
Y6715000D02*
D03*
Y6765000D02*
D03*
Y6815000D02*
D03*
X11630000Y6865000D02*
D03*
Y6915000D02*
D03*
Y6965000D02*
D03*
X11630000Y7015000D02*
D03*
Y7065000D02*
D03*
X10955000D02*
D03*
Y7015000D02*
D03*
X10955000Y6965000D02*
D03*
Y6915000D02*
D03*
Y6865000D02*
D03*
X10955000Y6815000D02*
D03*
Y6765000D02*
D03*
Y6715000D02*
D03*
Y6665000D02*
D03*
Y6615000D02*
D03*
Y6565000D02*
D03*
Y6515000D02*
D03*
D42*
X11292500Y6790000D02*
D03*
D43*
X11652500Y7377500D02*
D03*
X11517500Y7272500D02*
D03*
X11652500D02*
D03*
X11517500Y7377500D02*
D03*
D51*
X12880540Y7196240D02*
X12882700D01*
X12860220D02*
X12880540D01*
X12839900D02*
X12860220D01*
X12819580D02*
X12839900D01*
X12799260D02*
X12819580D01*
X12782699D02*
X12799260D01*
X12982140Y7096240D02*
X12982700D01*
X12961819D02*
X12982140D01*
X12941499D02*
X12961819D01*
X12921181D02*
X12941499D01*
X12900861D02*
X12921181D01*
X12880540D02*
X12900861D01*
X12860220D02*
X12880540D01*
X12839900D02*
X12860220D01*
X12819580D02*
X12839900D01*
X12799260D02*
X12819580D01*
X12782699D02*
X12799260D01*
X12778940Y7296239D02*
X12782699D01*
X12758620D02*
X12778940D01*
X12738300D02*
X12758620D01*
X12717980D02*
X12738300D01*
X12697660D02*
X12717980D01*
X12682699D02*
X12697660D01*
X13063420Y5454460D02*
X13083740D01*
X13043100D02*
X13063420D01*
X13022780D02*
X13043100D01*
X13002460D02*
X13022780D01*
X12982700D02*
X13002460D01*
X12778940Y6996240D02*
X12782699D01*
X12758620D02*
X12778940D01*
X12738300D02*
X12758620D01*
X12717980D02*
X12738300D01*
X12700870D02*
X12717980D01*
X12697660D02*
X12700870D01*
X12682699D02*
X12697660D01*
X13063420Y7994460D02*
X13083740D01*
X13043100D02*
X13063420D01*
X13022780D02*
X13043100D01*
X13002460D02*
X13022780D01*
X12982140D02*
X13002460D01*
X12961819D02*
X12982140D01*
X12941499D02*
X12961819D01*
X12921181D02*
X12941499D01*
X12900861D02*
X12921181D01*
X12880540D02*
X12900861D01*
X12860220D02*
X12880540D01*
X12839900D02*
X12860220D01*
X12819580D02*
X12839900D01*
X12799260D02*
X12819580D01*
X12778940D02*
X12799260D01*
X12758620D02*
X12778940D01*
X12738300D02*
X12758620D01*
X12717980D02*
X12738300D01*
X12697660D02*
X12717980D01*
X12677340D02*
X12697660D01*
X12657020D02*
X12677340D01*
X12636700D02*
X12657020D01*
X12616380D02*
X12636700D01*
X12596060D02*
X12616380D01*
X12575740D02*
X12596060D01*
X12555420D02*
X12575740D01*
X12535100D02*
X12555420D01*
X12514780D02*
X12535100D01*
X12494460D02*
X12514780D01*
X12489380D02*
X12494460D01*
X12880540Y7796241D02*
X12882700D01*
X12860220D02*
X12880540D01*
X12839900D02*
X12860220D01*
X12819580D02*
X12839900D01*
X12799260D02*
X12819580D01*
X12778940D02*
X12799260D01*
X12758620D02*
X12778940D01*
X12738300D02*
X12758620D01*
X12717980D02*
X12738300D01*
X12697660D02*
X12717980D01*
X12677340D02*
X12697660D01*
X12657020D02*
X12677340D01*
X12636700D02*
X12657020D01*
X12616380D02*
X12636700D01*
X12596060D02*
X12616380D01*
X12474140Y7311200D02*
X12486840D01*
X12453820D02*
X12474140D01*
X12433500D02*
X12453820D01*
X12413180D02*
X12433500D01*
X12392860D02*
X12413180D01*
X12382700D02*
X12392860D01*
X12474140Y7196240D02*
X12482700D01*
X12453820D02*
X12474140D01*
X12433500D02*
X12453820D01*
X12413180D02*
X12433500D01*
X12392860D02*
X12413180D01*
X12382700D02*
X12392860D01*
X12474140Y7096240D02*
X12482700D01*
X12453820D02*
X12474140D01*
X12433500D02*
X12453820D01*
X12413180D02*
X12433500D01*
X12392860D02*
X12413180D01*
X12382700D02*
X12392860D01*
X12596060Y7796241D02*
Y7994460D01*
Y6996240D02*
Y7796241D01*
X12575740Y6996240D02*
X12596060D01*
X12555420D02*
X12575740D01*
X12535100D02*
X12555420D01*
X12514780D02*
X12535100D01*
X12494460D02*
X12514780D01*
X12474140D02*
X12494460D01*
X12453820D02*
X12474140D01*
X12433500D02*
X12453820D01*
X12413180D02*
X12433500D01*
X12392860D02*
X12413180D01*
X12382700D02*
X12392860D01*
Y7196240D02*
Y7311200D01*
X13083740Y5454460D02*
Y7994460D01*
X12982700Y5454460D02*
Y7096240D01*
X12961819D02*
Y7994460D01*
X13002460Y5454460D02*
Y7994460D01*
X13022780Y5454460D02*
Y7994460D01*
X13043100Y5454460D02*
Y7994460D01*
X13063420Y5454460D02*
Y7994460D01*
X12616380Y7796241D02*
Y7994460D01*
X12636700Y7796241D02*
Y7994460D01*
X12657020Y7796241D02*
Y7994460D01*
X12677340Y7796241D02*
Y7994460D01*
X12697660Y7796241D02*
Y7994460D01*
X12717980Y7796241D02*
Y7994460D01*
X12758620Y7796241D02*
Y7994460D01*
X12778940Y7796241D02*
Y7994460D01*
X12799260Y7796241D02*
Y7994460D01*
X12819580Y7796241D02*
Y7994460D01*
X12839900Y7796241D02*
Y7994460D01*
X12860220Y7796241D02*
Y7994460D01*
X12486840Y7311200D02*
X12489380Y7941120D01*
X12474140Y6996240D02*
Y7096240D01*
X12392860Y6996240D02*
Y7096240D01*
X12482700D02*
Y7196240D01*
X12596060Y6996240D02*
Y7796241D01*
X12494460Y6996240D02*
Y7994460D01*
X12514780Y6996240D02*
Y7994460D01*
X12535100Y6996240D02*
Y7994460D01*
X12555420Y6996240D02*
Y7994460D01*
X12575740Y6996240D02*
Y7994460D01*
X12382700Y7196240D02*
Y7311200D01*
Y6996240D02*
Y7096240D01*
X12413180Y6996240D02*
Y7096240D01*
X12433500Y6996240D02*
Y7096240D01*
X12453820Y6996240D02*
Y7096240D01*
X12489380Y7941120D02*
Y7994460D01*
X12880540Y7796241D02*
Y7994460D01*
X12738300Y7796241D02*
Y7994460D01*
X12682699Y6996240D02*
Y7296239D01*
X12782699Y7196240D02*
Y7296239D01*
X12697660Y6996240D02*
Y7296239D01*
X12717980Y6996240D02*
Y7296239D01*
X12738300Y6996240D02*
Y7296239D01*
X12758620Y6996240D02*
Y7296239D01*
X12778940Y6996240D02*
Y7296239D01*
X12782699Y6996240D02*
Y7096240D01*
X12799260D02*
Y7196240D01*
X12839900Y7096240D02*
Y7196240D01*
X12860220Y7096240D02*
Y7196240D01*
X12819580Y7096240D02*
Y7196240D01*
X12880540Y7096240D02*
Y7196240D01*
X12882700D02*
Y7796241D01*
X12900861Y7096240D02*
Y7994460D01*
X12921181Y7096240D02*
Y7994460D01*
X12941499Y7096240D02*
Y7994460D01*
X12982140Y7096240D02*
Y7994460D01*
X12413180Y7196240D02*
Y7311200D01*
X12433500Y7196240D02*
Y7311200D01*
X12453820Y7196240D02*
Y7311200D01*
X12474140Y7196240D02*
Y7311200D01*
D52*
X12700870Y6996240D02*
X12707497Y7002867D01*
X12622128Y6917500D02*
X12700870Y6996240D01*
X12370000Y6917500D02*
X12622128D01*
D57*
X7137500Y7725000D02*
D03*
X7857500D02*
D03*
D58*
X8172500Y8325000D02*
D03*
X6822500D02*
D03*
D59*
X9912500Y7159000D02*
D03*
D60*
Y6905000D02*
D03*
Y6651000D02*
D03*
Y6397000D02*
D03*
D73*
X12664997Y8042867D02*
D03*
D74*
X12579628Y7957500D02*
D03*
D03*
D75*
X12327500D02*
D03*
D76*
X12982700Y5454460D02*
X13083740D01*
Y7994460D01*
X13063420Y5454460D02*
Y7994460D01*
X13043100Y5454460D02*
Y7994460D01*
X13022780Y5454460D02*
Y7994460D01*
X13002460Y5454460D02*
Y7994460D01*
X12982700Y5454460D02*
Y7096240D01*
X12782699Y6996240D02*
Y7096240D01*
X12682699Y6996240D02*
X12782699D01*
X12382700D02*
X12596060D01*
X12474140D02*
Y7096240D01*
X12453820Y6996240D02*
Y7096240D01*
X12433500Y6996240D02*
Y7096240D01*
X12413180Y6996240D02*
Y7096240D01*
X12392860Y6996240D02*
Y7096240D01*
X12382700Y6996240D02*
Y7096240D01*
X12782699D02*
X12982700D01*
X12382700D02*
X12482700D01*
X12819580D02*
Y7196240D01*
X12860220Y7096240D02*
Y7196240D01*
X12839900Y7096240D02*
Y7196240D01*
X12799260Y7096240D02*
Y7196240D01*
X12697660Y6996240D02*
Y7296239D01*
X12880540Y7096240D02*
Y7196240D01*
X12717980Y6996240D02*
Y7296239D01*
X12482700Y7096240D02*
Y7196240D01*
X12778940Y6996240D02*
Y7296239D01*
X12682699Y6996240D02*
Y7296239D01*
X12758620Y6996240D02*
Y7296239D01*
X12982140Y7096240D02*
Y7994460D01*
X12961819Y7096240D02*
Y7994460D01*
X12941499Y7096240D02*
Y7994460D01*
X12921181Y7096240D02*
Y7994460D01*
X12900861Y7096240D02*
Y7994460D01*
X12882700Y7196240D02*
Y7796241D01*
X12782699Y7196240D02*
X12882700D01*
X12782699D02*
Y7296239D01*
X12596060Y7796241D02*
X12882700D01*
X12738300Y6996240D02*
Y7296239D01*
X12682699D02*
X12782699D01*
X12717980Y7796241D02*
Y7994460D01*
X12697660Y7796241D02*
Y7994460D01*
X12677340Y7796241D02*
Y7994460D01*
X12657020Y7796241D02*
Y7994460D01*
X12596060Y6996240D02*
Y7796241D01*
Y6996240D02*
Y7994460D01*
X12575740Y6996240D02*
Y7994460D01*
X12555420Y6996240D02*
Y7994460D01*
X12535100Y6996240D02*
Y7994460D01*
X12514780Y6996240D02*
Y7994460D01*
X12494460Y6996240D02*
Y7994460D01*
X12486840Y7311200D02*
X12489380Y7941120D01*
X12474140Y7196240D02*
Y7311200D01*
X12453820Y7196240D02*
Y7311200D01*
X12382700D02*
X12486840D01*
X12433500Y7196240D02*
Y7311200D01*
X12382700Y7196240D02*
X12482700D01*
X12413180D02*
Y7311200D01*
X12392860Y7196240D02*
Y7311200D01*
X12382700Y7196240D02*
Y7311200D01*
X12616380Y7796241D02*
Y7994460D01*
X12839900Y7796241D02*
Y7994460D01*
X12758620Y7796241D02*
Y7994460D01*
X12860220Y7796241D02*
Y7994460D01*
X12880540Y7796241D02*
Y7994460D01*
X12636700Y7796241D02*
Y7994460D01*
X12738300Y7796241D02*
Y7994460D01*
X12819580Y7796241D02*
Y7994460D01*
X12799260Y7796241D02*
Y7994460D01*
X12778940Y7796241D02*
Y7994460D01*
X12489380Y7941120D02*
Y7994460D01*
X13083740D01*
D77*
X12622128Y6917500D02*
X12707497Y7002867D01*
X12370000Y6917500D02*
X12622128D01*
D78*
X12382700Y7253720D02*
D03*
Y7046240D02*
D03*
D79*
X6457500Y8320000D02*
D03*
X12200000D02*
D03*
Y5250000D02*
D03*
X6457500D02*
D03*
%TF.MD5,d33bd9966cfc53d31e6ae74f21ef89c9*%
M02*
