%TF.GenerationSoftware,Altium Limited,Altium Designer,24.1.2 (44)*%
G04 Layer_Physical_Order=2*
G04 Layer_Color=16711680*
%FSLAX45Y45*%
%MOMM*%
%TF.SameCoordinates,DF2DA703-92E4-466D-A55C-C96BEC28C730*%
%TF.FilePolarity,Positive*%
%TF.FileFunction,Copper,L2,Bot,Signal*%
%TF.Part,Single*%
G01*
G75*
%TA.AperFunction,Conductor*%
%ADD44C,0.50000*%
%ADD46C,0.30000*%
%ADD47C,0.25400*%
%ADD49C,0.60000*%
%TA.AperFunction,ComponentPad*%
%ADD57C,5.20000*%
%ADD58O,1.90000X3.00000*%
%ADD59R,1.60000X1.60000*%
%ADD60C,1.60000*%
%TA.AperFunction,ViaPad*%
%ADD61C,1.52400*%
%ADD62C,0.60000*%
%ADD63C,0.80000*%
%TA.AperFunction,Conductor*%
%ADD64C,0.50800*%
G36*
X12350000Y8440815D02*
X12337300Y8437258D01*
X12314743Y8459815D01*
X12285262Y8479514D01*
X12252504Y8493083D01*
X12217728Y8500000D01*
X12182272D01*
X12147496Y8493083D01*
X12114738Y8479514D01*
X12085257Y8459815D01*
X12060185Y8434743D01*
X12040486Y8405262D01*
X12026917Y8372504D01*
X12020000Y8337728D01*
Y8302271D01*
X12026917Y8267496D01*
X12040486Y8234738D01*
X12060185Y8205257D01*
X12085257Y8180185D01*
X12114738Y8160486D01*
X12147496Y8146917D01*
X12182272Y8140000D01*
X12217728D01*
X12252504Y8146917D01*
X12285262Y8160486D01*
X12314743Y8180185D01*
X12337300Y8202742D01*
X12350000Y8199185D01*
Y5370815D01*
X12337300Y5367258D01*
X12314743Y5389815D01*
X12285262Y5409514D01*
X12252504Y5423083D01*
X12217728Y5430000D01*
X12182272D01*
X12147496Y5423083D01*
X12114738Y5409514D01*
X12085257Y5389815D01*
X12060185Y5364743D01*
X12040486Y5335262D01*
X12026917Y5302504D01*
X12020000Y5267728D01*
Y5232271D01*
X12026917Y5197496D01*
X12040486Y5164738D01*
X12060185Y5135257D01*
X12085257Y5110185D01*
X12114738Y5090486D01*
X12147496Y5076917D01*
X12182272Y5070000D01*
X12217728D01*
X12252504Y5076917D01*
X12285262Y5090486D01*
X12314743Y5110185D01*
X12337300Y5132742D01*
X12350000Y5129185D01*
Y5047500D01*
X6360000D01*
X6261250Y5146250D01*
X6255016Y8516011D01*
X6263989Y8525000D01*
X12350000D01*
Y8440815D01*
D02*
G37*
%LPC*%
G36*
X8172500Y8495992D02*
X8142479Y8492040D01*
X8114504Y8480452D01*
X8090481Y8462019D01*
X8072048Y8437996D01*
X8060460Y8410021D01*
X8056508Y8380000D01*
Y8270000D01*
X8060460Y8239979D01*
X8072048Y8212004D01*
X8090481Y8187981D01*
X8114504Y8169548D01*
X8142479Y8157960D01*
X8172500Y8154008D01*
X8202521Y8157960D01*
X8230496Y8169548D01*
X8254519Y8187981D01*
X8272952Y8212004D01*
X8284540Y8239979D01*
X8288492Y8270000D01*
Y8380000D01*
X8284540Y8410021D01*
X8272952Y8437996D01*
X8254519Y8462019D01*
X8230496Y8480452D01*
X8202521Y8492040D01*
X8172500Y8495992D01*
D02*
G37*
G36*
X6822500D02*
X6792479Y8492040D01*
X6764504Y8480452D01*
X6740481Y8462019D01*
X6722048Y8437996D01*
X6710460Y8410021D01*
X6706508Y8380000D01*
Y8270000D01*
X6710460Y8239979D01*
X6722048Y8212004D01*
X6740481Y8187981D01*
X6764504Y8169548D01*
X6792479Y8157960D01*
X6822500Y8154008D01*
X6852521Y8157960D01*
X6880496Y8169548D01*
X6904519Y8187981D01*
X6922952Y8212004D01*
X6934540Y8239979D01*
X6938492Y8270000D01*
Y8380000D01*
X6934540Y8410021D01*
X6922952Y8437996D01*
X6904519Y8462019D01*
X6880496Y8480452D01*
X6852521Y8492040D01*
X6822500Y8495992D01*
D02*
G37*
G36*
X6475228Y8500000D02*
X6439771D01*
X6404996Y8493083D01*
X6372238Y8479514D01*
X6342757Y8459815D01*
X6317685Y8434743D01*
X6297986Y8405262D01*
X6284417Y8372504D01*
X6277500Y8337728D01*
Y8302271D01*
X6284417Y8267496D01*
X6297986Y8234738D01*
X6317685Y8205257D01*
X6342757Y8180185D01*
X6372238Y8160486D01*
X6404996Y8146917D01*
X6439771Y8140000D01*
X6475228D01*
X6510004Y8146917D01*
X6542762Y8160486D01*
X6572243Y8180185D01*
X6597315Y8205257D01*
X6617014Y8234738D01*
X6630583Y8267496D01*
X6637500Y8302271D01*
Y8337728D01*
X6630583Y8372504D01*
X6617014Y8405262D01*
X6597315Y8434743D01*
X6572243Y8459815D01*
X6542762Y8479514D01*
X6510004Y8493083D01*
X6475228Y8500000D01*
D02*
G37*
G36*
X10284891Y8375000D02*
X10265000D01*
X10246623Y8367388D01*
X10232558Y8353323D01*
X10224946Y8334946D01*
Y8315054D01*
X10232558Y8296677D01*
X10240382Y8288853D01*
Y8088593D01*
X10230112Y8078323D01*
X10222500Y8059946D01*
Y8040054D01*
X10230112Y8021677D01*
X10244177Y8007612D01*
X10262554Y8000000D01*
X10282446D01*
X10300823Y8007612D01*
X10314888Y8021677D01*
X10322500Y8040054D01*
Y8059946D01*
X10314888Y8078323D01*
X10307063Y8086147D01*
Y8286407D01*
X10317334Y8296677D01*
X10324946Y8315054D01*
Y8334946D01*
X10317334Y8353323D01*
X10303268Y8367388D01*
X10284891Y8375000D01*
D02*
G37*
G36*
X7879536Y8005000D02*
X7835463D01*
X7791933Y7998105D01*
X7750017Y7984486D01*
X7710748Y7964478D01*
X7675092Y7938572D01*
X7643928Y7907408D01*
X7618022Y7871752D01*
X7598014Y7832483D01*
X7584395Y7790567D01*
X7577500Y7747037D01*
Y7702964D01*
X7584395Y7659433D01*
X7598014Y7617517D01*
X7618022Y7578248D01*
X7643928Y7542592D01*
X7675092Y7511428D01*
X7710748Y7485522D01*
X7750017Y7465514D01*
X7791933Y7451895D01*
X7835463Y7445000D01*
X7879536D01*
X7923067Y7451895D01*
X7964983Y7465514D01*
X8004252Y7485522D01*
X8039908Y7511428D01*
X8071072Y7542592D01*
X8096977Y7578248D01*
X8116986Y7617517D01*
X8130605Y7659433D01*
X8137500Y7702964D01*
Y7747037D01*
X8130605Y7790567D01*
X8116986Y7832483D01*
X8096977Y7871752D01*
X8071072Y7907408D01*
X8039908Y7938572D01*
X8004252Y7964478D01*
X7964983Y7984486D01*
X7923067Y7998105D01*
X7879536Y8005000D01*
D02*
G37*
G36*
X11754946Y7127500D02*
X11735054D01*
X11726096Y7123789D01*
X11612500D01*
X11594786Y7120266D01*
X11579768Y7110232D01*
X11579768Y7110231D01*
X11510708Y7041171D01*
X11500673Y7026154D01*
X11497150Y7008439D01*
X11497150Y7008438D01*
Y6416432D01*
X11494507Y6413790D01*
X11403904D01*
X11394946Y6417500D01*
X11375054D01*
X11356677Y6409888D01*
X11342612Y6395823D01*
X11335000Y6377446D01*
Y6357554D01*
X11342612Y6339177D01*
X11356677Y6325112D01*
X11375054Y6317500D01*
X11394946D01*
X11403904Y6321211D01*
X11513680D01*
X11513681Y6321210D01*
X11531396Y6324734D01*
X11546413Y6334768D01*
X11576170Y6364526D01*
X11576171Y6364527D01*
X11586205Y6379544D01*
X11589729Y6397258D01*
Y6989265D01*
X11631674Y7031210D01*
X11726096D01*
X11735054Y7027500D01*
X11754946D01*
X11773323Y7035112D01*
X11787388Y7049177D01*
X11795000Y7067554D01*
Y7087446D01*
X11787388Y7105823D01*
X11773323Y7119888D01*
X11754946Y7127500D01*
D02*
G37*
G36*
X9925665Y7005000D02*
X9899335D01*
X9873902Y6998185D01*
X9851099Y6985020D01*
X9832480Y6966401D01*
X9819315Y6943599D01*
X9812500Y6918165D01*
Y6891835D01*
X9819315Y6866402D01*
X9832480Y6843599D01*
X9851099Y6824981D01*
X9873902Y6811815D01*
X9899335Y6805000D01*
X9925665D01*
X9951098Y6811815D01*
X9973901Y6824981D01*
X9992520Y6843599D01*
X10005685Y6866402D01*
X10012500Y6891835D01*
Y6918165D01*
X10005685Y6943599D01*
X9992520Y6966401D01*
X9973901Y6985020D01*
X9951098Y6998185D01*
X9925665Y7005000D01*
D02*
G37*
G36*
Y6751000D02*
X9899335D01*
X9873902Y6744185D01*
X9851099Y6731020D01*
X9832480Y6712401D01*
X9819315Y6689599D01*
X9812500Y6664165D01*
Y6637835D01*
X9819315Y6612402D01*
X9832480Y6589599D01*
X9851099Y6570981D01*
X9873902Y6557815D01*
X9899335Y6551000D01*
X9925665D01*
X9951098Y6557815D01*
X9973901Y6570981D01*
X9992520Y6589599D01*
X10005685Y6612402D01*
X10012500Y6637835D01*
Y6664165D01*
X10005685Y6689599D01*
X9992520Y6712401D01*
X9973901Y6731020D01*
X9951098Y6744185D01*
X9925665Y6751000D01*
D02*
G37*
G36*
X10269946Y7155000D02*
X10250054D01*
X10231677Y7147388D01*
X10217612Y7133323D01*
X10210000Y7114946D01*
Y7095054D01*
X10217612Y7076677D01*
X10226660Y7067630D01*
Y6808190D01*
X10229197Y6795431D01*
X10236425Y6784615D01*
X10425000Y6596039D01*
Y6583245D01*
X10432612Y6564867D01*
X10446677Y6550802D01*
X10465054Y6543190D01*
X10484946D01*
X10503323Y6550802D01*
X10517388Y6564867D01*
X10525000Y6583245D01*
Y6603136D01*
X10517388Y6621513D01*
X10503323Y6635578D01*
X10484946Y6643190D01*
X10472151D01*
X10293341Y6822000D01*
Y7067630D01*
X10302388Y7076677D01*
X10310000Y7095054D01*
Y7114946D01*
X10302388Y7133323D01*
X10288323Y7147388D01*
X10269946Y7155000D01*
D02*
G37*
G36*
X7586413Y6976773D02*
X7189838D01*
X7176181Y6974057D01*
X7164604Y6966321D01*
X7086469Y6888186D01*
X6917500D01*
X6903844Y6885469D01*
X6892266Y6877734D01*
X6662033Y6647500D01*
X6652555D01*
X6634177Y6639888D01*
X6620112Y6625823D01*
X6612500Y6607446D01*
Y6587555D01*
X6620112Y6569177D01*
X6634177Y6555112D01*
X6652555Y6547500D01*
X6672446D01*
X6690823Y6555112D01*
X6704888Y6569177D01*
X6712500Y6587555D01*
Y6597033D01*
X6932282Y6816814D01*
X7101250D01*
X7114907Y6819531D01*
X7126484Y6827266D01*
X7204619Y6905402D01*
X7571631D01*
X7661814Y6815219D01*
Y6460025D01*
X7655112Y6453323D01*
X7647500Y6434945D01*
Y6415054D01*
X7655112Y6396677D01*
X7669177Y6382612D01*
X7687554Y6375000D01*
X7707446D01*
X7725823Y6382612D01*
X7739888Y6396677D01*
X7747500Y6415054D01*
Y6434945D01*
X7739888Y6453323D01*
X7733186Y6460025D01*
Y6830000D01*
X7730469Y6843656D01*
X7722734Y6855234D01*
X7611646Y6966321D01*
X7600069Y6974057D01*
X7586413Y6976773D01*
D02*
G37*
G36*
X9925665Y6497000D02*
X9899335D01*
X9873902Y6490185D01*
X9851099Y6477020D01*
X9832480Y6458401D01*
X9819315Y6435599D01*
X9812500Y6410165D01*
Y6383835D01*
X9819315Y6358402D01*
X9832480Y6335599D01*
X9851099Y6316981D01*
X9873902Y6303815D01*
X9899335Y6297000D01*
X9925665D01*
X9951098Y6303815D01*
X9973901Y6316981D01*
X9992520Y6335599D01*
X10005685Y6358402D01*
X10012500Y6383835D01*
Y6410165D01*
X10005685Y6435599D01*
X9992520Y6458401D01*
X9973901Y6477020D01*
X9951098Y6490185D01*
X9925665Y6497000D01*
D02*
G37*
G36*
X10892446Y7235000D02*
X10872554D01*
X10854177Y7227388D01*
X10840112Y7213323D01*
X10832500Y7194946D01*
Y7175054D01*
X10836210Y7166096D01*
Y6880644D01*
X10824393Y6873110D01*
X10804502D01*
X10786124Y6865498D01*
X10772059Y6851433D01*
X10764447Y6833056D01*
Y6813164D01*
X10772059Y6794787D01*
X10786124Y6780722D01*
X10804502Y6773110D01*
X10824393D01*
X10825651Y6773631D01*
X10836210Y6766575D01*
Y6443904D01*
X10832500Y6434946D01*
Y6415054D01*
X10836210Y6406096D01*
Y6161880D01*
X10828516Y6154185D01*
X10824177Y6152388D01*
X10810112Y6138323D01*
X10802500Y6119946D01*
Y6100054D01*
X10810112Y6081677D01*
X10824177Y6067612D01*
X10842554Y6060000D01*
X10862446D01*
X10880823Y6067612D01*
X10894888Y6081677D01*
X10900512Y6095255D01*
X10915231Y6109974D01*
X10915232Y6109974D01*
X10925266Y6124992D01*
X10928790Y6142706D01*
X10928789Y6142707D01*
Y6406096D01*
X10932500Y6415054D01*
Y6434946D01*
X10928789Y6443904D01*
Y6835000D01*
Y7166096D01*
X10932500Y7175054D01*
Y7194946D01*
X10924888Y7213323D01*
X10910823Y7227388D01*
X10892446Y7235000D01*
D02*
G37*
G36*
X9647500Y6348480D02*
X9642575Y6347500D01*
X9637554D01*
X9632916Y6345579D01*
X9627991Y6344599D01*
X9623816Y6341810D01*
X9619177Y6339888D01*
X9615626Y6336337D01*
X9611452Y6333548D01*
X9608663Y6329374D01*
X9605112Y6325823D01*
X9604324Y6323920D01*
X9336452Y6056048D01*
X9333663Y6051874D01*
X9330112Y6048323D01*
X9328190Y6043683D01*
X9325401Y6039509D01*
X9324421Y6034584D01*
X9322500Y6029946D01*
Y6024925D01*
X9321520Y6020000D01*
X9322500Y6015075D01*
Y6010054D01*
X9324421Y6005416D01*
X9325401Y6000491D01*
X9328190Y5996316D01*
X9330112Y5991677D01*
X9333663Y5988126D01*
X9336452Y5983952D01*
X9340626Y5981163D01*
X9344177Y5977612D01*
X9348816Y5975690D01*
X9352991Y5972901D01*
X9357916Y5971921D01*
X9362554Y5970000D01*
X9367575D01*
X9372500Y5969020D01*
X9377425Y5970000D01*
X9382446D01*
X9387084Y5971921D01*
X9392009Y5972901D01*
X9396183Y5975690D01*
X9400823Y5977612D01*
X9404374Y5981163D01*
X9408548Y5983952D01*
X9683548Y6258952D01*
X9694599Y6275491D01*
X9696535Y6285226D01*
X9697500Y6287554D01*
Y6290075D01*
X9698479Y6295000D01*
Y6297500D01*
X9697500Y6302425D01*
Y6307446D01*
X9695579Y6312084D01*
X9694599Y6317009D01*
X9691809Y6321183D01*
X9689888Y6325823D01*
X9686337Y6329374D01*
X9683548Y6333548D01*
X9679374Y6336337D01*
X9675823Y6339888D01*
X9671183Y6341810D01*
X9667009Y6344599D01*
X9662084Y6345579D01*
X9657446Y6347500D01*
X9652425D01*
X9647500Y6348480D01*
D02*
G37*
G36*
X11244360Y5780585D02*
X11224469D01*
X11206092Y5772973D01*
X11192026Y5758908D01*
X11184415Y5740531D01*
Y5720640D01*
X11192026Y5702262D01*
X11206092Y5688197D01*
X11224469Y5680585D01*
X11244360D01*
X11262737Y5688197D01*
X11268500Y5693960D01*
X11402830D01*
X11416677Y5680112D01*
X11435054Y5672500D01*
X11454946D01*
X11473323Y5680112D01*
X11487388Y5694177D01*
X11495000Y5712554D01*
Y5732446D01*
X11487388Y5750823D01*
X11473323Y5764888D01*
X11454946Y5772500D01*
X11435054D01*
X11416677Y5764888D01*
X11412430Y5760641D01*
X11275070D01*
X11262737Y5772973D01*
X11244360Y5780585D01*
D02*
G37*
G36*
X11059946Y5840000D02*
X11040054D01*
X11021677Y5832388D01*
X11007612Y5818323D01*
X11000000Y5799946D01*
Y5780054D01*
X11007612Y5761677D01*
X11014314Y5754975D01*
Y5607282D01*
X10989533Y5582500D01*
X10980054D01*
X10961677Y5574888D01*
X10947612Y5560823D01*
X10940000Y5542446D01*
Y5522554D01*
X10945555Y5509143D01*
X10938753Y5496443D01*
X10731505D01*
X10719918Y5508030D01*
X10705033Y5517976D01*
X10687474Y5521469D01*
X10607007D01*
X10592446Y5527500D01*
X10572554D01*
X10554177Y5519888D01*
X10540112Y5505823D01*
X10532500Y5487446D01*
Y5467554D01*
X10540112Y5449177D01*
X10554177Y5435112D01*
X10572554Y5427500D01*
X10592446D01*
X10597770Y5429705D01*
X10668470D01*
X10680057Y5418118D01*
X10694942Y5408172D01*
X10712500Y5404680D01*
X10996071D01*
X11006014Y5400561D01*
X11025905D01*
X11044282Y5408173D01*
X11058347Y5422238D01*
X11065959Y5440615D01*
Y5460507D01*
X11058347Y5478884D01*
X11044282Y5492949D01*
X11033754Y5497310D01*
X11032388Y5504177D01*
X11040000Y5522554D01*
Y5532033D01*
X11075234Y5567266D01*
X11082969Y5578844D01*
X11085686Y5592500D01*
Y5754975D01*
X11092388Y5761677D01*
X11100000Y5780054D01*
Y5799946D01*
X11092388Y5818323D01*
X11078323Y5832388D01*
X11059946Y5840000D01*
D02*
G37*
G36*
X8062445Y6840000D02*
X8042554D01*
X8024177Y6832388D01*
X8010112Y6818323D01*
X8002500Y6799946D01*
Y6780055D01*
X8010112Y6761677D01*
X8019159Y6752630D01*
Y6580991D01*
X7661425Y6223256D01*
X7654198Y6212440D01*
X7651660Y6199681D01*
Y6002500D01*
X7654198Y5989741D01*
X7656660Y5986057D01*
Y5756310D01*
X7303690Y5403340D01*
X7164870D01*
X7155823Y5412388D01*
X7137446Y5420000D01*
X7117554D01*
X7099177Y5412388D01*
X7085112Y5398323D01*
X7077500Y5379946D01*
Y5360054D01*
X7085112Y5341677D01*
X7099177Y5327612D01*
X7117554Y5320000D01*
X7137446D01*
X7155823Y5327612D01*
X7164870Y5336659D01*
X7317500D01*
X7330259Y5339197D01*
X7341075Y5346425D01*
X7713575Y5718925D01*
X7720803Y5729741D01*
X7723341Y5742500D01*
Y5997500D01*
X7720803Y6010259D01*
X7718341Y6013944D01*
Y6185871D01*
X8076075Y6543605D01*
X8083302Y6554421D01*
X8085840Y6567180D01*
Y6752630D01*
X8094888Y6761677D01*
X8102500Y6780055D01*
Y6799946D01*
X8094888Y6818323D01*
X8080823Y6832388D01*
X8062445Y6840000D01*
D02*
G37*
G36*
X8291935Y5665000D02*
X8268065D01*
X8246013Y5655866D01*
X8229134Y5638987D01*
X8220000Y5616935D01*
Y5593066D01*
X8229020Y5571288D01*
Y5415587D01*
X8232901Y5396078D01*
X8236520Y5390661D01*
Y5256212D01*
X8227500Y5234435D01*
Y5210565D01*
X8236635Y5188513D01*
X8253513Y5171635D01*
X8275565Y5162500D01*
X8299435D01*
X8321487Y5171635D01*
X8338366Y5188513D01*
X8347500Y5210565D01*
Y5234435D01*
X8338480Y5256212D01*
Y5408087D01*
X8334599Y5427596D01*
X8330980Y5433013D01*
Y5571288D01*
X8340000Y5593066D01*
Y5616935D01*
X8330865Y5638987D01*
X8313987Y5655866D01*
X8291935Y5665000D01*
D02*
G37*
G36*
X6475228Y5430000D02*
X6439771D01*
X6404996Y5423083D01*
X6372238Y5409514D01*
X6342757Y5389815D01*
X6317685Y5364743D01*
X6297986Y5335262D01*
X6284417Y5302504D01*
X6277500Y5267728D01*
Y5232271D01*
X6284417Y5197496D01*
X6297986Y5164738D01*
X6317685Y5135257D01*
X6342757Y5110185D01*
X6372238Y5090486D01*
X6404996Y5076917D01*
X6439771Y5070000D01*
X6475228D01*
X6510004Y5076917D01*
X6542762Y5090486D01*
X6572243Y5110185D01*
X6597315Y5135257D01*
X6617014Y5164738D01*
X6630583Y5197496D01*
X6637500Y5232271D01*
Y5267728D01*
X6630583Y5302504D01*
X6617014Y5335262D01*
X6597315Y5364743D01*
X6572243Y5389815D01*
X6542762Y5409514D01*
X6510004Y5423083D01*
X6475228Y5430000D01*
D02*
G37*
%LPD*%
D44*
X10687474Y5475587D02*
X10712500Y5450561D01*
X10584413Y5475587D02*
X10687474D01*
X10712500Y5450561D02*
X11015959D01*
X10582500Y5477500D02*
X10584413Y5475587D01*
D46*
X7586413Y6941087D02*
X7697500Y6830000D01*
Y6425000D02*
Y6830000D01*
X7189838Y6941087D02*
X7586413D01*
X7101250Y6852500D02*
X7189838Y6941087D01*
X6917500Y6852500D02*
X7101250D01*
X6662500Y6597500D02*
X6917500Y6852500D01*
X10990000Y5532500D02*
X11050000Y5592500D01*
Y5790000D01*
D47*
X7317500Y5370000D02*
X7690000Y5742500D01*
Y5997500D01*
X7685000Y6002500D02*
Y6199681D01*
Y6002500D02*
X7690000Y5997500D01*
X7685000Y6199681D02*
X8052500Y6567180D01*
X10260000Y6808190D02*
Y7105000D01*
Y6808190D02*
X10475000Y6593190D01*
X8052500Y6567180D02*
Y6790000D01*
X7127500Y5370000D02*
X7317500D01*
X11440200Y5727300D02*
X11445000Y5722500D01*
X11234414Y5730585D02*
X11237699Y5727300D01*
X11440200D01*
X10272500Y8050000D02*
X10273723Y8051223D01*
Y8323777D01*
X10274946Y8325000D01*
D49*
X8280000Y5415587D02*
Y5605000D01*
X8287500Y5222500D02*
Y5408087D01*
X8280000Y5415587D02*
X8287500Y5408087D01*
X9372500Y6020000D02*
X9647500Y6295000D01*
Y6297500D01*
D57*
X7137500Y7725000D02*
D03*
X7857500D02*
D03*
D58*
X8172500Y8325000D02*
D03*
X6822500D02*
D03*
D59*
X9912500Y7159000D02*
D03*
D60*
Y6905000D02*
D03*
Y6651000D02*
D03*
Y6397000D02*
D03*
D61*
X6457500Y8320000D02*
D03*
X12200000D02*
D03*
Y5250000D02*
D03*
X6457500D02*
D03*
D62*
X9407500Y7115000D02*
D03*
X9507500D02*
D03*
X9607500Y7112500D02*
D03*
X9160000Y6622500D02*
D03*
X11771373Y6598013D02*
D03*
X11861862Y6599135D02*
D03*
X7390000Y5892500D02*
D03*
X7317500D02*
D03*
X7910000Y6067500D02*
D03*
Y6135000D02*
D03*
Y6202500D02*
D03*
X8045000Y5860000D02*
D03*
X7390000Y5820000D02*
D03*
X7315000Y5822500D02*
D03*
X7910000Y5925000D02*
D03*
X7832500Y5927500D02*
D03*
X7757500D02*
D03*
X7910000Y6000000D02*
D03*
X7832500D02*
D03*
X7757500D02*
D03*
X9647500Y6297500D02*
D03*
X10260000Y7105000D02*
D03*
X10475000Y6593190D02*
D03*
X9951235Y7289792D02*
D03*
X9871814Y7288374D02*
D03*
X10725000Y6827500D02*
D03*
X10814447Y6823110D02*
D03*
X11212217Y6950566D02*
D03*
X11292500D02*
D03*
X11372783D02*
D03*
X11131934D02*
D03*
X11453067D02*
D03*
X11131934Y6629433D02*
D03*
Y6870283D02*
D03*
Y6790000D02*
D03*
Y6709717D02*
D03*
X11212217Y6629433D02*
D03*
Y6870283D02*
D03*
Y6790000D02*
D03*
Y6709717D02*
D03*
X11292500Y6629433D02*
D03*
Y6870283D02*
D03*
Y6790000D02*
D03*
Y6709717D02*
D03*
X11372783Y6629433D02*
D03*
Y6870283D02*
D03*
Y6790000D02*
D03*
Y6709717D02*
D03*
X11453067Y6629433D02*
D03*
Y6870283D02*
D03*
Y6790000D02*
D03*
Y6709717D02*
D03*
X7127500Y5370000D02*
D03*
X8052500Y6790000D02*
D03*
X7342500Y6835000D02*
D03*
Y6755000D02*
D03*
X7245000Y6835000D02*
D03*
X6971580Y6972756D02*
D03*
X7065397Y6973229D02*
D03*
X7245000Y6595000D02*
D03*
X7342500D02*
D03*
X7245000Y6675000D02*
D03*
Y6755000D02*
D03*
X7342500Y6675000D02*
D03*
X12307500Y6830000D02*
D03*
X12237505Y7410005D02*
D03*
X12218633Y7003632D02*
D03*
X9157500Y6787500D02*
D03*
X7037502Y8210006D02*
D03*
X7237502D02*
D03*
X7137502Y8410006D02*
D03*
X7437503Y8210006D02*
D03*
X7337502Y8410006D02*
D03*
X7637503Y8210006D02*
D03*
X7537503Y8410006D02*
D03*
X7837503Y8210006D02*
D03*
X7737503Y8410006D02*
D03*
X7937503D02*
D03*
X8537503Y7610006D02*
D03*
X11337505Y5210004D02*
D03*
X11537505D02*
D03*
X11637505Y5410004D02*
D03*
X11737505Y5210004D02*
D03*
X11837505Y5410004D02*
D03*
X11737505Y5610005D02*
D03*
X11937505Y5210004D02*
D03*
X12037505Y5410004D02*
D03*
X11937505Y5610005D02*
D03*
X12037505Y5810005D02*
D03*
X11937505Y6010005D02*
D03*
X12037505Y6210005D02*
D03*
Y6610005D02*
D03*
Y7810006D02*
D03*
X12137505Y5610005D02*
D03*
X12237505Y5810005D02*
D03*
X12137505Y6010005D02*
D03*
X12237505Y6210005D02*
D03*
X12137505Y6410005D02*
D03*
X12237505Y6610005D02*
D03*
X12137505Y7210005D02*
D03*
Y7610006D02*
D03*
X12237505Y7810006D02*
D03*
X12137505Y8010006D02*
D03*
X11897500Y7000000D02*
D03*
X10582500Y5477500D02*
D03*
X7940000Y6302500D02*
D03*
X11215000Y6262500D02*
D03*
X6812500Y7982500D02*
D03*
X6877500Y7507500D02*
D03*
X6812500Y7622500D02*
D03*
Y7752500D02*
D03*
Y7870000D02*
D03*
X11254800Y7444800D02*
D03*
X11204800Y7220000D02*
D03*
X9627500Y5962500D02*
D03*
X6772500Y5140000D02*
D03*
X6907500Y5142500D02*
D03*
X7040000Y5140000D02*
D03*
X10852500Y6110000D02*
D03*
X10882500Y6425000D02*
D03*
X11050000Y5790000D02*
D03*
X10307500Y5927500D02*
D03*
X9372500Y6020000D02*
D03*
X11445000Y5722500D02*
D03*
X11234414Y5730585D02*
D03*
X10990000Y5532500D02*
D03*
X11385000Y6367500D02*
D03*
X10882500Y7185000D02*
D03*
X11745000Y7077500D02*
D03*
X7697500Y6425000D02*
D03*
X8025390Y6932262D02*
D03*
X9987187Y5453977D02*
D03*
X11012760Y6267573D02*
D03*
X10787939Y6268479D02*
D03*
X10757570Y6454770D02*
D03*
X10937312Y7421647D02*
D03*
X11023288Y7422144D02*
D03*
X11908993Y7454198D02*
D03*
X11821775Y7455514D02*
D03*
X9741115Y8381918D02*
D03*
X6664067Y6984967D02*
D03*
X7091317Y7078111D02*
D03*
X6912499Y7075416D02*
D03*
X12142040Y7003632D02*
D03*
X12062500Y7002500D02*
D03*
X11977500Y7000000D02*
D03*
X11825000D02*
D03*
X11865000Y6827500D02*
D03*
X11945000D02*
D03*
X12147500D02*
D03*
X12227500D02*
D03*
X11968433Y7204867D02*
D03*
X11969390Y7117776D02*
D03*
X11654912Y7198252D02*
D03*
X9306464Y7974332D02*
D03*
X9356690Y7596448D02*
D03*
X6662500Y6597500D02*
D03*
X8565452Y8023530D02*
D03*
X8564114Y7952825D02*
D03*
X8853464Y7616006D02*
D03*
X8943309Y7212689D02*
D03*
X8805212D02*
D03*
X7958751Y5355353D02*
D03*
X9746166Y5573900D02*
D03*
X9988800Y5175484D02*
D03*
X11015959Y5450561D02*
D03*
X10272500Y8050000D02*
D03*
X10274946Y8325000D02*
D03*
X11519486Y7448609D02*
D03*
D63*
X8287500Y5222500D02*
D03*
X8280000Y5605000D02*
D03*
D64*
X11385000Y6367500D02*
X11513681D01*
X11543439Y6397258D01*
Y7008439D01*
X11612500Y7077500D01*
X10816207Y6824870D02*
X10862370D01*
X10872500Y6835000D01*
X10814447Y6823110D02*
X10816207Y6824870D01*
X10872500Y6835000D02*
X10882500D01*
X11612500Y7077500D02*
X11745000D01*
X10882500Y6835000D02*
Y7185000D01*
Y6425000D02*
Y6835000D01*
X10852500Y6112706D02*
X10882500Y6142706D01*
X10852500Y6110000D02*
Y6112706D01*
X10882500Y6142706D02*
Y6422294D01*
%TF.MD5,567ae25077963914868e868e2720b8a3*%
M02*
