M48
;Layer_Color=9474304
;FILE_FORMAT=4:4
METRIC,LZ
;TYPE=PLATED
T01F00S00C0.3000
T02F00S00C0.4000
T04F00S00C1.1000
T05F00S00C2.9000
T06F00S00C3.2000
%
T01
X01193751Y00521
X01203751Y00541
X01193751Y00561001
X01213751
X01203751Y00581001
X01223751
X01213751Y00601001
X01193751
X01203751Y00621001
X01223751
X01213751Y00641001
X01203751Y00661001
X01223751
X0122275Y0068275
X0121475
X0123075Y00683
X01221863Y00700363
X01214204
X0120625Y0070025
X0119775Y007
X01196939Y00711778
X01196843Y00720487
X01213751Y00721001
X01223751Y00741001
X01213751Y00761001
X01203751Y00781001
X01223751
X01190899Y0074542
X011945Y0068275
X011865
X0118975Y007
X011825
X011745Y0070775
X01165491Y00719825
X01151949Y00744861
X0112548Y0074448
X01102329Y00742214
X01093731Y00742165
X0108825Y007185
X0112048Y00722
X01121222Y00695057
Y00687028
X01113193
Y00695057
X0112925
Y00687028
X01137278
Y00695057
X01145307
Y00687028
Y00679
Y00670972
X01137278
Y00679
X0112925
Y00670972
X01121222
Y00679
X01113193
Y00670972
Y00662943
X01121222
X0112925
X01137278
X01145307
X011385Y0063675
X011215Y0062625
X01101276Y00626757
X01078794Y00626848
X01075757Y00645477
X0108825Y006425
X0108525Y00611
X01105Y00579
X01123441Y00573059
X011445Y0057225
X01173751Y00561001
X01163751Y00541
X01183751
X01173751Y00521
X01153751
X01133751
X01101596Y00545056
X01099Y0055325
X0105825Y0054775
X00998719Y00545398
X0099888Y00517548
X00974617Y0055739
X0096275Y0059625
X0093725Y00602
X0096475Y0062975
X00916Y0066225
X0091575Y0067875
X0094075Y007115
X0095075
X0096075Y0071125
X00987181Y00728837
X00995124Y00728979
X01026Y007105
X010475Y00659319
X010725Y0068275
X01081445Y00682311
X01177137Y00659801
X01186186Y00659913
X01182178Y00745551
X00935669Y00759645
X00885346Y00761601
X0085375Y00761001
X00880521Y00721269
X00894331
X00802539Y00693226
X0080525Y00679
X00794Y0063025
X008045Y00586
X00795875Y00535535
X0103075Y0059275
X00791Y005925
Y006
Y0060675
Y006135
Y0062025
X0078325Y006
Y0059275
X0077575
Y006
X00739Y0058925
X0073175
X007315Y0058225
X00739Y00582
X0071275Y00537
X00704Y00514
X0069075Y0051425
X0067725Y00514
X0066625Y0065975
X00666407Y00698497
X00697158Y00697276
X0070654Y00697323
X00709132Y00707811
X0069125Y00707542
X0068775Y0075075
X0068125Y0076225
Y0077525
Y00787
X007245Y006835
Y006755
Y006675
Y006595
X0073425
Y006675
Y006755
Y006835
X0076975Y006425
X0076375Y00821001
X0074375
X0072375
X0070375
X0071375Y00841001
X0073375
X0075375
X0077375
X0078375Y00821001
X0068125Y0079825
X0079375Y00841001
X00856545Y00802353
X00856411Y00795283
X00930646Y00797433
X00974111Y00838192
X01027495Y008325
X0102725Y00805
X01213751Y00801001
T02
X0082875Y0052225
X00828Y005605
T04
X0099125Y006397
Y006651
Y006905
Y007159
T05
X0071375Y007725
X0078575
T06
X0122Y00525
X0064575
Y00832
X0122
M30
