%TF.GenerationSoftware,Altium Limited,Altium Designer,24.1.2 (44)*%
G04 Layer_Color=0*
%FSLAX45Y45*%
%MOMM*%
%TF.SameCoordinates,21A1AB76-749C-4ABA-85A5-5522D30AEDF9*%
%TF.FilePolarity,Positive*%
%TF.FileFunction,NonPlated,1,2,NPTH,Drill*%
%TF.Part,Single*%
G01*
G75*
%TA.AperFunction,ComponentDrill*%
%ADD73O,0.60000X0.85000*%
%ADD74C,0.60000*%
G36*
X2641600Y5826100D02*
Y6718300D01*
Y6728149D01*
X2645443Y6747469D01*
X2652981Y6765668D01*
X2663925Y6782046D01*
X2677854Y6795975D01*
X2694232Y6806919D01*
X2712431Y6814457D01*
X2731751Y6818300D01*
X2741600D01*
D01*
X2757500D01*
X2767349D01*
X2786669Y6814457D01*
X2804868Y6806919D01*
X2821246Y6795975D01*
X2835175Y6782046D01*
X2846119Y6765668D01*
X2853657Y6747469D01*
X2857500Y6728149D01*
Y6718300D01*
D01*
Y5826100D01*
Y5816251D01*
X2853657Y5796931D01*
X2846119Y5778732D01*
X2835175Y5762354D01*
X2821246Y5748425D01*
X2804868Y5737481D01*
X2786669Y5729943D01*
X2767349Y5726100D01*
X2757500D01*
D01*
X2741600D01*
X2731751D01*
X2712431Y5729943D01*
X2694232Y5737481D01*
X2677854Y5748425D01*
X2663925Y5762354D01*
X2652981Y5778732D01*
X2645443Y5796931D01*
X2641600Y5816251D01*
Y5826100D01*
D01*
D02*
G37*
D73*
X3027100Y3408400D02*
D03*
D74*
Y4008400D02*
D03*
%TF.MD5,a570dfd682a3ff6f7bcd14a4ab7d53fb*%
M02*
