%TF.GenerationSoftware,Altium Limited,Altium Designer,24.1.2 (44)*%
G04 Layer_Color=8421504*
%FSLAX45Y45*%
%MOMM*%
%TF.SameCoordinates,21A1AB76-749C-4ABA-85A5-5522D30AEDF9*%
%TF.FilePolarity,Positive*%
%TF.FileFunction,Paste,Top*%
%TF.Part,Single*%
G01*
G75*
%TA.AperFunction,SMDPad,CuDef*%
%ADD10R,3.00000X4.00000*%
%ADD11R,4.20000X4.00000*%
G04:AMPARAMS|DCode=12|XSize=0.8mm|YSize=1mm|CornerRadius=0.1mm|HoleSize=0mm|Usage=FLASHONLY|Rotation=0.000|XOffset=0mm|YOffset=0mm|HoleType=Round|Shape=RoundedRectangle|*
%AMROUNDEDRECTD12*
21,1,0.80000,0.80000,0,0,0.0*
21,1,0.60000,1.00000,0,0,0.0*
1,1,0.20000,0.30000,-0.40000*
1,1,0.20000,-0.30000,-0.40000*
1,1,0.20000,-0.30000,0.40000*
1,1,0.20000,0.30000,0.40000*
%
%ADD12ROUNDEDRECTD12*%
G04:AMPARAMS|DCode=13|XSize=1.3mm|YSize=1.1mm|CornerRadius=0.055mm|HoleSize=0mm|Usage=FLASHONLY|Rotation=90.000|XOffset=0mm|YOffset=0mm|HoleType=Round|Shape=RoundedRectangle|*
%AMROUNDEDRECTD13*
21,1,1.30000,0.99000,0,0,90.0*
21,1,1.19000,1.10000,0,0,90.0*
1,1,0.11000,0.49500,0.59500*
1,1,0.11000,0.49500,-0.59500*
1,1,0.11000,-0.49500,-0.59500*
1,1,0.11000,-0.49500,0.59500*
%
%ADD13ROUNDEDRECTD13*%
%ADD14R,2.00000X3.50000*%
G04:AMPARAMS|DCode=15|XSize=1.2mm|YSize=1.7mm|CornerRadius=0.15mm|HoleSize=0mm|Usage=FLASHONLY|Rotation=270.000|XOffset=0mm|YOffset=0mm|HoleType=Round|Shape=RoundedRectangle|*
%AMROUNDEDRECTD15*
21,1,1.20000,1.40000,0,0,270.0*
21,1,0.90000,1.70000,0,0,270.0*
1,1,0.30000,-0.70000,-0.45000*
1,1,0.30000,-0.70000,0.45000*
1,1,0.30000,0.70000,0.45000*
1,1,0.30000,0.70000,-0.45000*
%
%ADD15ROUNDEDRECTD15*%
G04:AMPARAMS|DCode=16|XSize=0.6mm|YSize=0.7mm|CornerRadius=0.075mm|HoleSize=0mm|Usage=FLASHONLY|Rotation=315.000|XOffset=0mm|YOffset=0mm|HoleType=Round|Shape=RoundedRectangle|*
%AMROUNDEDRECTD16*
21,1,0.60000,0.55000,0,0,315.0*
21,1,0.45000,0.70000,0,0,315.0*
1,1,0.15000,-0.03536,-0.35355*
1,1,0.15000,-0.35355,-0.03536*
1,1,0.15000,0.03536,0.35355*
1,1,0.15000,0.35355,0.03536*
%
%ADD16ROUNDEDRECTD16*%
G04:AMPARAMS|DCode=19|XSize=1.79mm|YSize=0.35mm|CornerRadius=0.04375mm|HoleSize=0mm|Usage=FLASHONLY|Rotation=90.000|XOffset=0mm|YOffset=0mm|HoleType=Round|Shape=RoundedRectangle|*
%AMROUNDEDRECTD19*
21,1,1.79000,0.26250,0,0,90.0*
21,1,1.70250,0.35000,0,0,90.0*
1,1,0.08750,0.13125,0.85125*
1,1,0.08750,0.13125,-0.85125*
1,1,0.08750,-0.13125,-0.85125*
1,1,0.08750,-0.13125,0.85125*
%
%ADD19ROUNDEDRECTD19*%
%ADD20R,0.84000X0.84000*%
%ADD21R,0.84000X0.90000*%
%ADD22R,1.50000X3.00000*%
%ADD23R,6.25000X6.60000*%
G04:AMPARAMS|DCode=24|XSize=0.6mm|YSize=0.7mm|CornerRadius=0.075mm|HoleSize=0mm|Usage=FLASHONLY|Rotation=225.000|XOffset=0mm|YOffset=0mm|HoleType=Round|Shape=RoundedRectangle|*
%AMROUNDEDRECTD24*
21,1,0.60000,0.55000,0,0,225.0*
21,1,0.45000,0.70000,0,0,225.0*
1,1,0.15000,-0.35355,0.03536*
1,1,0.15000,-0.03536,0.35355*
1,1,0.15000,0.35355,-0.03536*
1,1,0.15000,0.03536,-0.35355*
%
%ADD24ROUNDEDRECTD24*%
%TA.AperFunction,ConnectorPad*%
%ADD25R,2.00000X1.00000*%
%ADD26R,1.00000X0.27000*%
%ADD27R,1.00000X0.52000*%
%TA.AperFunction,SMDPad,CuDef*%
%ADD28R,0.25000X0.65000*%
%TA.AperFunction,ConnectorPad*%
%ADD29R,1.55000X0.60000*%
%ADD30R,1.80000X1.20000*%
%TA.AperFunction,SMDPad,CuDef*%
%ADD31O,0.25000X1.55000*%
%ADD32O,1.55000X0.25000*%
G04:AMPARAMS|DCode=33|XSize=0.8mm|YSize=1mm|CornerRadius=0.1mm|HoleSize=0mm|Usage=FLASHONLY|Rotation=90.000|XOffset=0mm|YOffset=0mm|HoleType=Round|Shape=RoundedRectangle|*
%AMROUNDEDRECTD33*
21,1,0.80000,0.80000,0,0,90.0*
21,1,0.60000,1.00000,0,0,90.0*
1,1,0.20000,0.40000,0.30000*
1,1,0.20000,0.40000,-0.30000*
1,1,0.20000,-0.40000,-0.30000*
1,1,0.20000,-0.40000,0.30000*
%
%ADD33ROUNDEDRECTD33*%
%ADD34R,1.98000X0.53000*%
%ADD35R,1.20000X1.70000*%
%ADD36R,0.97790X0.55880*%
%ADD37R,3.20000X1.30000*%
%ADD38R,1.00000X1.20000*%
%ADD39R,1.20000X1.20000*%
%ADD40R,0.80000X0.90000*%
%ADD41R,1.27000X2.10000*%
G04:AMPARAMS|DCode=42|XSize=1.4mm|YSize=1.7mm|CornerRadius=0.175mm|HoleSize=0mm|Usage=FLASHONLY|Rotation=180.000|XOffset=0mm|YOffset=0mm|HoleType=Round|Shape=RoundedRectangle|*
%AMROUNDEDRECTD42*
21,1,1.40000,1.35000,0,0,180.0*
21,1,1.05000,1.70000,0,0,180.0*
1,1,0.35000,-0.52500,0.67500*
1,1,0.35000,0.52500,0.67500*
1,1,0.35000,0.52500,-0.67500*
1,1,0.35000,-0.52500,-0.67500*
%
%ADD42ROUNDEDRECTD42*%
G36*
X3727700Y6341000D02*
X3497900Y6341000D01*
X3497901Y6489400D01*
X3727700D01*
X3727700Y6341000D01*
D02*
G37*
G36*
X4132700Y6095200D02*
X3902900Y6095199D01*
X3902900Y6445200D01*
X4132699D01*
X4132700Y6095200D01*
D02*
G37*
G36*
X3727700Y6199400D02*
X3727700Y6051000D01*
X3497901D01*
X3497900Y6199400D01*
X3727700Y6199400D01*
D02*
G37*
D10*
X3073400Y5994400D02*
D03*
Y6527800D02*
D03*
D11*
X7315200Y4305300D02*
D03*
Y3771900D02*
D03*
D12*
X6415117Y3356425D02*
D03*
X6565117D02*
D03*
X6411472Y3215009D02*
D03*
X6561472D02*
D03*
X2739725Y3086699D02*
D03*
X2889724D02*
D03*
X2719000Y4330700D02*
D03*
X2869000D02*
D03*
X5970200Y3276600D02*
D03*
X6120200D02*
D03*
X4939100Y3035300D02*
D03*
X4789100D02*
D03*
X3366700Y4699000D02*
D03*
X3516700Y4699000D02*
D03*
X3796100D02*
D03*
X3646100D02*
D03*
X5307400Y3987800D02*
D03*
X5157400D02*
D03*
X3506400Y4546600D02*
D03*
X3656400D02*
D03*
X3493700Y3962400D02*
D03*
X3643700D02*
D03*
X4939100Y3263900D02*
D03*
X4789100D02*
D03*
X3828930Y3256306D02*
D03*
X3978930D02*
D03*
X3542100Y2717800D02*
D03*
X3392100D02*
D03*
X3542100Y2870200D02*
D03*
X3392100D02*
D03*
X7062400Y5003800D02*
D03*
X7212400D02*
D03*
D13*
X5276600Y3836100D02*
D03*
X5086600D02*
D03*
X5276600Y3606100D02*
D03*
X5086600D02*
D03*
D14*
X5308600Y5269900D02*
D03*
Y4559900D02*
D03*
X4419600Y5269900D02*
D03*
Y4559900D02*
D03*
D15*
X6756400Y4140200D02*
D03*
X5829300Y4152900D02*
D03*
Y3924300D02*
D03*
Y3505200D02*
D03*
Y3733800D02*
D03*
X6756400Y3492500D02*
D03*
Y3721100D02*
D03*
Y3911600D02*
D03*
D16*
X4117545Y7007655D02*
D03*
X4188256Y6936944D02*
D03*
X3838144Y7020356D02*
D03*
X3908855Y6949645D02*
D03*
D19*
X3390301Y6741699D02*
D03*
X3440300D02*
D03*
X3490300Y6741700D02*
D03*
X3540300Y6741700D02*
D03*
X3590300D02*
D03*
X3640300Y6741700D02*
D03*
X3690300D02*
D03*
X3740300D02*
D03*
X3790300D02*
D03*
X3840300Y6741700D02*
D03*
X3890300D02*
D03*
X3940300D02*
D03*
X3990300D02*
D03*
X4040300D02*
D03*
X4090300Y6741701D02*
D03*
X4140300Y6741700D02*
D03*
X4190300D02*
D03*
X4240299Y6741700D02*
D03*
X4240300Y5798700D02*
D03*
X4190300Y5798700D02*
D03*
X4140300D02*
D03*
X4090300D02*
D03*
X4040300D02*
D03*
X3990300D02*
D03*
X3940300D02*
D03*
X3890300D02*
D03*
X3840300D02*
D03*
X3790300Y5798700D02*
D03*
X3740300Y5798700D02*
D03*
X3690300D02*
D03*
X3640300D02*
D03*
X3590300Y5798700D02*
D03*
X3540300D02*
D03*
X3490300D02*
D03*
X3440300Y5798700D02*
D03*
X3390300D02*
D03*
D20*
X6427800Y2895600D02*
D03*
X6627800Y2801600D02*
D03*
D21*
Y2989600D02*
D03*
D22*
X6299200Y5295700D02*
D03*
X6756400D02*
D03*
D23*
X6527800Y4635700D02*
D03*
D24*
X4015944Y5451044D02*
D03*
X4086655Y5521755D02*
D03*
D25*
X2717100Y3568400D02*
D03*
Y3848400D02*
D03*
D26*
X3137100Y3533400D02*
D03*
X3137100Y3583400D02*
D03*
Y3633400D02*
D03*
Y3683400D02*
D03*
Y3733400D02*
D03*
X3137100Y3783400D02*
D03*
Y3833400D02*
D03*
Y3883400D02*
D03*
D27*
X3137100Y3398400D02*
D03*
Y3473400D02*
D03*
Y3943400D02*
D03*
Y4018400D02*
D03*
D28*
X4109985Y3089790D02*
D03*
X4059985D02*
D03*
X4009985D02*
D03*
Y2994790D02*
D03*
X4059985D02*
D03*
X4109985D02*
D03*
D29*
X7048500Y3297200D02*
D03*
Y3197200D02*
D03*
Y3097200D02*
D03*
Y2997200D02*
D03*
D30*
X7436000Y2867200D02*
D03*
Y3427200D02*
D03*
D31*
X4660400Y3269800D02*
D03*
X4610400D02*
D03*
X4560400D02*
D03*
X4510400D02*
D03*
X4460400Y3269800D02*
D03*
X4410400D02*
D03*
X4360400Y3269800D02*
D03*
X4310400D02*
D03*
X4260400D02*
D03*
X4210400D02*
D03*
X4160400D02*
D03*
X4110400D02*
D03*
Y4074800D02*
D03*
X4160400Y4074800D02*
D03*
X4210400D02*
D03*
X4260400D02*
D03*
X4310400Y4074800D02*
D03*
X4360400D02*
D03*
X4410400Y4074800D02*
D03*
X4460400D02*
D03*
X4510400D02*
D03*
X4560400D02*
D03*
X4610400D02*
D03*
X4660400Y4074800D02*
D03*
D32*
X3982900Y3397300D02*
D03*
X3982900Y3447300D02*
D03*
Y3497300D02*
D03*
Y3547300D02*
D03*
Y3597300D02*
D03*
Y3647300D02*
D03*
Y3697300D02*
D03*
X3982900Y3747300D02*
D03*
X3982900Y3797300D02*
D03*
Y3847300D02*
D03*
Y3897300D02*
D03*
X3982900Y3947300D02*
D03*
X4787900D02*
D03*
Y3897300D02*
D03*
Y3847300D02*
D03*
Y3797300D02*
D03*
Y3747300D02*
D03*
Y3697300D02*
D03*
Y3647300D02*
D03*
Y3597300D02*
D03*
Y3547300D02*
D03*
Y3497300D02*
D03*
Y3447300D02*
D03*
X4787900Y3397300D02*
D03*
D33*
X6273800Y2805500D02*
D03*
Y2655500D02*
D03*
Y2985700D02*
D03*
Y3135700D02*
D03*
X5448300Y3707200D02*
D03*
Y3557200D02*
D03*
X3822700Y4215200D02*
D03*
Y4065200D02*
D03*
X4838700Y4253300D02*
D03*
Y4103300D02*
D03*
X3975100Y4215200D02*
D03*
Y4065200D02*
D03*
X5067300Y3252400D02*
D03*
Y3402400D02*
D03*
X4991100Y4253300D02*
D03*
Y4103300D02*
D03*
X3035300Y4636700D02*
D03*
Y4786700D02*
D03*
Y5269300D02*
D03*
Y5119300D02*
D03*
D34*
X6050400Y3111500D02*
D03*
Y2984500D02*
D03*
Y2857500D02*
D03*
Y2730500D02*
D03*
X5557400D02*
D03*
Y2857500D02*
D03*
Y2984500D02*
D03*
Y3111500D02*
D03*
D35*
X3377300Y4927600D02*
D03*
X3797300D02*
D03*
D36*
X3432175Y3765300D02*
D03*
Y3670300D02*
D03*
X3432175Y3575300D02*
D03*
X3705225D02*
D03*
X3705225Y3670300D02*
D03*
Y3765300D02*
D03*
D37*
X6299200Y4164900D02*
D03*
D38*
X6528200Y3505900D02*
D03*
X6299200D02*
D03*
D39*
X6070200D02*
D03*
D40*
X5880600Y5029200D02*
D03*
X6070600D02*
D03*
X5975600Y5229200D02*
D03*
D41*
X7412100Y4737100D02*
D03*
X7015100D02*
D03*
D42*
X4673600Y6515100D02*
D03*
X4445000D02*
D03*
X4673600Y6261100D02*
D03*
X4445000D02*
D03*
%TF.MD5,4f85440ca56bfd869edead891d87e52b*%
M02*
