%TF.GenerationSoftware,Altium Limited,Altium Designer,24.1.2 (44)*%
G04 Layer_Color=16711935*
%FSLAX45Y45*%
%MOMM*%
%TF.SameCoordinates,21A1AB76-749C-4ABA-85A5-5522D30AEDF9*%
%TF.FilePolarity,Negative*%
%TF.FileFunction,Soldermask,Bot*%
%TF.Part,Single*%
G01*
G75*
%TA.AperFunction,ViaPad*%
%ADD51C,3.60000*%
%TA.AperFunction,ComponentPad*%
%ADD52C,1.65100*%
G04:AMPARAMS|DCode=53|XSize=1.651mm|YSize=1.651mm|CornerRadius=0mm|HoleSize=0mm|Usage=FLASHONLY|Rotation=90.000|XOffset=0mm|YOffset=0mm|HoleType=Round|Shape=Octagon|*
%AMOCTAGOND53*
4,1,8,0.41275,0.82550,-0.41275,0.82550,-0.82550,0.41275,-0.82550,-0.41275,-0.41275,-0.82550,0.41275,-0.82550,0.82550,-0.41275,0.82550,0.41275,0.41275,0.82550,0.0*
%
%ADD53OCTAGOND53*%

%ADD54R,0.80800X0.80800*%
G04:AMPARAMS|DCode=55|XSize=0.85mm|YSize=0.6mm|CornerRadius=0.3mm|HoleSize=0mm|Usage=FLASHONLY|Rotation=270.000|XOffset=0mm|YOffset=0mm|HoleType=Round|Shape=RoundedRectangle|*
%AMROUNDEDRECTD55*
21,1,0.85000,0.00000,0,0,270.0*
21,1,0.25000,0.60000,0,0,270.0*
1,1,0.60000,0.00000,-0.12500*
1,1,0.60000,0.00000,0.12500*
1,1,0.60000,0.00000,0.12500*
1,1,0.60000,0.00000,-0.12500*
%
%ADD55ROUNDEDRECTD55*%
%ADD56C,0.60000*%
G04:AMPARAMS|DCode=57|XSize=1.3mm|YSize=2.6mm|CornerRadius=0.65mm|HoleSize=0mm|Usage=FLASHONLY|Rotation=270.000|XOffset=0mm|YOffset=0mm|HoleType=Round|Shape=RoundedRectangle|*
%AMROUNDEDRECTD57*
21,1,1.30000,1.30000,0,0,270.0*
21,1,0.00000,2.60000,0,0,270.0*
1,1,1.30000,-0.65000,0.00000*
1,1,1.30000,-0.65000,0.00000*
1,1,1.30000,0.65000,0.00000*
1,1,1.30000,0.65000,0.00000*
%
%ADD57ROUNDEDRECTD57*%
G04:AMPARAMS|DCode=58|XSize=1.3mm|YSize=2.3mm|CornerRadius=0.65mm|HoleSize=0mm|Usage=FLASHONLY|Rotation=270.000|XOffset=0mm|YOffset=0mm|HoleType=Round|Shape=RoundedRectangle|*
%AMROUNDEDRECTD58*
21,1,1.30000,1.00000,0,0,270.0*
21,1,0.00000,2.30000,0,0,270.0*
1,1,1.30000,-0.50000,0.00000*
1,1,1.30000,-0.50000,0.00000*
1,1,1.30000,0.50000,0.00000*
1,1,1.30000,0.50000,0.00000*
%
%ADD58ROUNDEDRECTD58*%
%ADD59C,1.60000*%
%ADD60R,1.60000X1.60000*%
D51*
X2768600Y7099300D02*
D03*
X2806700Y2781300D02*
D03*
X4622800Y7099300D02*
D03*
X7315200Y5321300D02*
D03*
D52*
X2768600Y4838700D02*
D03*
X2781300Y5067300D02*
D03*
D53*
X2768600Y4584700D02*
D03*
X2781300Y5321300D02*
D03*
D54*
X3504500Y6072700D02*
D03*
X3612799D02*
D03*
X3721100Y6072700D02*
D03*
X3504500Y6362700D02*
D03*
X3612800Y6362700D02*
D03*
X3721100Y6362700D02*
D03*
Y6177700D02*
D03*
X3504500Y6177700D02*
D03*
X3721100Y6467700D02*
D03*
X3504499Y6467700D02*
D03*
X3612799Y6177700D02*
D03*
X3612800Y6467700D02*
D03*
X3909500Y6084575D02*
D03*
Y6208325D02*
D03*
X3909499Y6332075D02*
D03*
Y6455825D02*
D03*
X4017800Y6084575D02*
D03*
Y6208325D02*
D03*
Y6332075D02*
D03*
Y6455825D02*
D03*
X4126100Y6084574D02*
D03*
Y6208325D02*
D03*
X4126100Y6332075D02*
D03*
Y6455825D02*
D03*
D55*
X3027100Y3408400D02*
D03*
D56*
Y4008400D02*
D03*
D57*
X2717100Y3276400D02*
D03*
Y4140400D02*
D03*
D58*
X3099600Y3276400D02*
D03*
Y4140400D02*
D03*
D59*
X4711700Y2755900D02*
D03*
X4457700D02*
D03*
X4203700D02*
D03*
D60*
X3949700D02*
D03*
%TF.MD5,b8d8176563b49bea93dac4918d5da403*%
M02*
