%TF.GenerationSoftware,Altium Limited,Altium Designer,24.1.2 (44)*%
G04 Layer_Physical_Order=1*
G04 Layer_Color=255*
%FSLAX45Y45*%
%MOMM*%
%TF.SameCoordinates,21A1AB76-749C-4ABA-85A5-5522D30AEDF9*%
%TF.FilePolarity,Positive*%
%TF.FileFunction,Copper,L1,Top,Signal*%
%TF.Part,Single*%
G01*
G75*
%TA.AperFunction,SMDPad,CuDef*%
%ADD10R,3.00000X4.00000*%
%ADD11R,4.20000X4.00000*%
G04:AMPARAMS|DCode=12|XSize=0.8mm|YSize=1mm|CornerRadius=0.1mm|HoleSize=0mm|Usage=FLASHONLY|Rotation=0.000|XOffset=0mm|YOffset=0mm|HoleType=Round|Shape=RoundedRectangle|*
%AMROUNDEDRECTD12*
21,1,0.80000,0.80000,0,0,0.0*
21,1,0.60000,1.00000,0,0,0.0*
1,1,0.20000,0.30000,-0.40000*
1,1,0.20000,-0.30000,-0.40000*
1,1,0.20000,-0.30000,0.40000*
1,1,0.20000,0.30000,0.40000*
%
%ADD12ROUNDEDRECTD12*%
G04:AMPARAMS|DCode=13|XSize=1.3mm|YSize=1.1mm|CornerRadius=0.055mm|HoleSize=0mm|Usage=FLASHONLY|Rotation=90.000|XOffset=0mm|YOffset=0mm|HoleType=Round|Shape=RoundedRectangle|*
%AMROUNDEDRECTD13*
21,1,1.30000,0.99000,0,0,90.0*
21,1,1.19000,1.10000,0,0,90.0*
1,1,0.11000,0.49500,0.59500*
1,1,0.11000,0.49500,-0.59500*
1,1,0.11000,-0.49500,-0.59500*
1,1,0.11000,-0.49500,0.59500*
%
%ADD13ROUNDEDRECTD13*%
%ADD14R,2.00000X3.50000*%
G04:AMPARAMS|DCode=15|XSize=1.2mm|YSize=1.7mm|CornerRadius=0.15mm|HoleSize=0mm|Usage=FLASHONLY|Rotation=270.000|XOffset=0mm|YOffset=0mm|HoleType=Round|Shape=RoundedRectangle|*
%AMROUNDEDRECTD15*
21,1,1.20000,1.40000,0,0,270.0*
21,1,0.90000,1.70000,0,0,270.0*
1,1,0.30000,-0.70000,-0.45000*
1,1,0.30000,-0.70000,0.45000*
1,1,0.30000,0.70000,0.45000*
1,1,0.30000,0.70000,-0.45000*
%
%ADD15ROUNDEDRECTD15*%
G04:AMPARAMS|DCode=16|XSize=0.6mm|YSize=0.7mm|CornerRadius=0.075mm|HoleSize=0mm|Usage=FLASHONLY|Rotation=315.000|XOffset=0mm|YOffset=0mm|HoleType=Round|Shape=RoundedRectangle|*
%AMROUNDEDRECTD16*
21,1,0.60000,0.55000,0,0,315.0*
21,1,0.45000,0.70000,0,0,315.0*
1,1,0.15000,-0.03536,-0.35355*
1,1,0.15000,-0.35355,-0.03536*
1,1,0.15000,0.03536,0.35355*
1,1,0.15000,0.35355,0.03536*
%
%ADD16ROUNDEDRECTD16*%
%ADD17R,3.25000X4.95000*%
%ADD18R,3.25000X2.10000*%
G04:AMPARAMS|DCode=19|XSize=1.79mm|YSize=0.35mm|CornerRadius=0.04375mm|HoleSize=0mm|Usage=FLASHONLY|Rotation=90.000|XOffset=0mm|YOffset=0mm|HoleType=Round|Shape=RoundedRectangle|*
%AMROUNDEDRECTD19*
21,1,1.79000,0.26250,0,0,90.0*
21,1,1.70250,0.35000,0,0,90.0*
1,1,0.08750,0.13125,0.85125*
1,1,0.08750,0.13125,-0.85125*
1,1,0.08750,-0.13125,-0.85125*
1,1,0.08750,-0.13125,0.85125*
%
%ADD19ROUNDEDRECTD19*%
%ADD20R,0.84000X0.84000*%
%ADD21R,0.84000X0.90000*%
%ADD22R,1.50000X3.00000*%
%ADD23R,6.25000X6.60000*%
G04:AMPARAMS|DCode=24|XSize=0.6mm|YSize=0.7mm|CornerRadius=0.075mm|HoleSize=0mm|Usage=FLASHONLY|Rotation=225.000|XOffset=0mm|YOffset=0mm|HoleType=Round|Shape=RoundedRectangle|*
%AMROUNDEDRECTD24*
21,1,0.60000,0.55000,0,0,225.0*
21,1,0.45000,0.70000,0,0,225.0*
1,1,0.15000,-0.35355,0.03536*
1,1,0.15000,-0.03536,0.35355*
1,1,0.15000,0.35355,-0.03536*
1,1,0.15000,0.03536,-0.35355*
%
%ADD24ROUNDEDRECTD24*%
%TA.AperFunction,ConnectorPad*%
%ADD25R,2.00000X1.00000*%
%ADD26R,1.00000X0.27000*%
%ADD27R,1.00000X0.52000*%
%TA.AperFunction,SMDPad,CuDef*%
%ADD28R,0.25000X0.65000*%
%TA.AperFunction,ConnectorPad*%
%ADD29R,1.55000X0.60000*%
%ADD30R,1.80000X1.20000*%
%TA.AperFunction,SMDPad,CuDef*%
%ADD31O,0.25000X1.55000*%
%ADD32O,1.55000X0.25000*%
G04:AMPARAMS|DCode=33|XSize=0.8mm|YSize=1mm|CornerRadius=0.1mm|HoleSize=0mm|Usage=FLASHONLY|Rotation=90.000|XOffset=0mm|YOffset=0mm|HoleType=Round|Shape=RoundedRectangle|*
%AMROUNDEDRECTD33*
21,1,0.80000,0.80000,0,0,90.0*
21,1,0.60000,1.00000,0,0,90.0*
1,1,0.20000,0.40000,0.30000*
1,1,0.20000,0.40000,-0.30000*
1,1,0.20000,-0.40000,-0.30000*
1,1,0.20000,-0.40000,0.30000*
%
%ADD33ROUNDEDRECTD33*%
%ADD34R,1.98000X0.53000*%
%ADD35R,1.20000X1.70000*%
%ADD36R,0.97790X0.55880*%
%ADD37R,3.20000X1.30000*%
%ADD38R,1.00000X1.20000*%
%ADD39R,1.20000X1.20000*%
%ADD40R,0.80000X0.90000*%
%ADD41R,1.27000X2.10000*%
G04:AMPARAMS|DCode=42|XSize=1.4mm|YSize=1.7mm|CornerRadius=0.175mm|HoleSize=0mm|Usage=FLASHONLY|Rotation=180.000|XOffset=0mm|YOffset=0mm|HoleType=Round|Shape=RoundedRectangle|*
%AMROUNDEDRECTD42*
21,1,1.40000,1.35000,0,0,180.0*
21,1,1.05000,1.70000,0,0,180.0*
1,1,0.35000,-0.52500,0.67500*
1,1,0.35000,0.52500,0.67500*
1,1,0.35000,0.52500,-0.67500*
1,1,0.35000,-0.52500,-0.67500*
%
%ADD42ROUNDEDRECTD42*%
%TA.AperFunction,Conductor*%
%ADD43C,0.75000*%
%ADD44C,0.50000*%
%ADD45C,0.30000*%
%ADD46C,0.25400*%
%ADD47C,0.27869*%
%ADD48C,1.00000*%
%ADD49C,0.20000*%
%ADD50C,0.60000*%
%TA.AperFunction,ViaPad*%
%ADD51C,3.60000*%
%TA.AperFunction,ComponentPad*%
%ADD52C,1.65100*%
G04:AMPARAMS|DCode=53|XSize=1.651mm|YSize=1.651mm|CornerRadius=0mm|HoleSize=0mm|Usage=FLASHONLY|Rotation=90.000|XOffset=0mm|YOffset=0mm|HoleType=Round|Shape=Octagon|*
%AMOCTAGOND53*
4,1,8,0.41275,0.82550,-0.41275,0.82550,-0.82550,0.41275,-0.82550,-0.41275,-0.41275,-0.82550,0.41275,-0.82550,0.82550,-0.41275,0.82550,0.41275,0.41275,0.82550,0.0*
%
%ADD53OCTAGOND53*%

%ADD54R,0.80800X0.80800*%
G04:AMPARAMS|DCode=55|XSize=0.85mm|YSize=0.6mm|CornerRadius=0.3mm|HoleSize=0mm|Usage=FLASHONLY|Rotation=270.000|XOffset=0mm|YOffset=0mm|HoleType=Round|Shape=RoundedRectangle|*
%AMROUNDEDRECTD55*
21,1,0.85000,0.00000,0,0,270.0*
21,1,0.25000,0.60000,0,0,270.0*
1,1,0.60000,0.00000,-0.12500*
1,1,0.60000,0.00000,0.12500*
1,1,0.60000,0.00000,0.12500*
1,1,0.60000,0.00000,-0.12500*
%
%ADD55ROUNDEDRECTD55*%
%ADD56C,0.60000*%
G04:AMPARAMS|DCode=57|XSize=1.3mm|YSize=2.6mm|CornerRadius=0.65mm|HoleSize=0mm|Usage=FLASHONLY|Rotation=270.000|XOffset=0mm|YOffset=0mm|HoleType=Round|Shape=RoundedRectangle|*
%AMROUNDEDRECTD57*
21,1,1.30000,1.30000,0,0,270.0*
21,1,0.00000,2.60000,0,0,270.0*
1,1,1.30000,-0.65000,0.00000*
1,1,1.30000,-0.65000,0.00000*
1,1,1.30000,0.65000,0.00000*
1,1,1.30000,0.65000,0.00000*
%
%ADD57ROUNDEDRECTD57*%
G04:AMPARAMS|DCode=58|XSize=1.3mm|YSize=2.3mm|CornerRadius=0.65mm|HoleSize=0mm|Usage=FLASHONLY|Rotation=270.000|XOffset=0mm|YOffset=0mm|HoleType=Round|Shape=RoundedRectangle|*
%AMROUNDEDRECTD58*
21,1,1.30000,1.00000,0,0,270.0*
21,1,0.00000,2.30000,0,0,270.0*
1,1,1.30000,-0.50000,0.00000*
1,1,1.30000,-0.50000,0.00000*
1,1,1.30000,0.50000,0.00000*
1,1,1.30000,0.50000,0.00000*
%
%ADD58ROUNDEDRECTD58*%
%ADD59C,1.60000*%
%ADD60R,1.60000X1.60000*%
%TA.AperFunction,ViaPad*%
%ADD61C,0.80000*%
%ADD62C,0.60000*%
G36*
X3683000Y6908800D02*
X3683000Y6642100D01*
X3670300Y6629400D01*
X3492500D01*
X3479800Y6642100D01*
Y6813199D01*
Y6852105D01*
X3406863D01*
Y6840298D01*
X3404215Y6836335D01*
X3402323Y6826825D01*
Y6656575D01*
X3400867Y6654800D01*
X3365500D01*
Y6921500D01*
X3670300D01*
X3683000Y6908800D01*
D02*
G37*
G36*
X3959602Y6844398D02*
X3954215Y6836336D01*
X3952323Y6826825D01*
Y6656575D01*
X3954215Y6647065D01*
X3954395Y6646795D01*
X3937000Y6629400D01*
X3898900D01*
X3797300Y6527800D01*
Y6311900D01*
X2921000D01*
Y6718300D01*
X3225800D01*
Y6540500D01*
X3619500D01*
X3712535Y6633535D01*
X3712936Y6633614D01*
X3720998Y6639002D01*
X3726386Y6647064D01*
X3728278Y6656575D01*
Y6826825D01*
X3726386Y6836336D01*
X3725765Y6837265D01*
X3746500Y6858000D01*
X3946000D01*
X3959602Y6844398D01*
D02*
G37*
G36*
X3784600Y6032500D02*
X3886200Y5930900D01*
X3955526D01*
Y5895298D01*
X3954215Y5893335D01*
X3952323Y5883825D01*
Y5713575D01*
X3954215Y5704064D01*
X3955526Y5702102D01*
Y5689600D01*
X3731995D01*
X3725207Y5702300D01*
X3726385Y5704064D01*
X3728277Y5713575D01*
Y5883825D01*
X3726385Y5893335D01*
X3720998Y5901398D01*
X3712935Y5906785D01*
X3705669Y5908230D01*
X3670300Y5943600D01*
X3225800D01*
Y5778500D01*
X2921000D01*
Y6172200D01*
Y6223000D01*
X3784600D01*
Y6032500D01*
D02*
G37*
G36*
X3695700Y5867399D02*
X3695700Y5626100D01*
X3670300Y5600700D01*
X3340100D01*
Y5892800D01*
X3394957D01*
X3402323Y5883825D01*
Y5713575D01*
X3404214Y5704065D01*
X3407447Y5699227D01*
Y5676900D01*
X3473844D01*
Y5700260D01*
X3476385Y5704065D01*
X3478277Y5713575D01*
Y5883825D01*
X3478232Y5884056D01*
X3492500Y5892800D01*
X3670300D01*
X3695700Y5867399D01*
D02*
G37*
G36*
X4533900Y6578600D02*
Y5715000D01*
X4762500Y5486400D01*
X6477000D01*
X6502400Y5461000D01*
Y5118100D01*
X6477000Y5092700D01*
X6223000D01*
X6146800Y5168900D01*
X5816600D01*
X5740400Y5092700D01*
X4318000D01*
Y5969000D01*
X4292600Y5994400D01*
X3886200D01*
X3860800Y6019800D01*
Y6515100D01*
X3859833Y6516067D01*
X3864694Y6527800D01*
X4305300D01*
X4381500Y6604000D01*
X4508500D01*
X4533900Y6578600D01*
D02*
G37*
G36*
X7518400Y4114800D02*
X7112000D01*
Y4508500D01*
X7124700D01*
X7239000Y4622800D01*
Y5067300D01*
X7518400D01*
Y4114800D01*
D02*
G37*
G36*
X5943600Y5054600D02*
Y4775200D01*
X6019800Y4699000D01*
Y4140200D01*
X5969000Y4089400D01*
X5778500D01*
X5664200Y4203700D01*
X4813300D01*
X4699000Y4318000D01*
X4394200D01*
X4318000Y4394200D01*
Y4749800D01*
X4406900Y4838700D01*
X5600700D01*
X5842000Y5080000D01*
X5918200D01*
X5943600Y5054600D01*
D02*
G37*
G36*
X5274957Y3955357D02*
X5289842Y3945411D01*
X5307400Y3941918D01*
X5346700D01*
Y3797300D01*
X5372100Y3771900D01*
X5480843D01*
X5485009Y3766382D01*
X5478683Y3753682D01*
X5436200D01*
X5418642Y3750189D01*
X5403757Y3740243D01*
X5403157Y3739643D01*
X5393211Y3724758D01*
X5389718Y3707200D01*
X5392489Y3693272D01*
X5380995Y3686805D01*
X5334000Y3733800D01*
X5219700D01*
X5207000Y3746500D01*
Y3898900D01*
X5219700Y3911600D01*
X5245100D01*
X5257800Y3924300D01*
Y3958174D01*
X5270500Y3962027D01*
X5274957Y3955357D01*
D02*
G37*
G36*
X6832600Y4851400D02*
X7086600D01*
Y4648200D01*
X7035800Y4580467D01*
Y4102100D01*
X7124700Y4013200D01*
X7531100D01*
Y3568700D01*
X7099300D01*
X7086600Y3581400D01*
Y3733800D01*
X6896100Y3924300D01*
X6896099Y4241801D01*
X6832601Y4305300D01*
X6184900D01*
X6159500Y4330700D01*
Y4965700D01*
X6832600D01*
Y4851400D01*
D02*
G37*
G36*
X6184900Y3568700D02*
Y3454400D01*
X6159500Y3429000D01*
X6045200D01*
X6019800Y3403600D01*
Y3225800D01*
X6007100Y3213100D01*
X5854700D01*
X5740400Y3327399D01*
Y3543300D01*
X5791200Y3594100D01*
X6159500D01*
X6184900Y3568700D01*
D02*
G37*
D10*
X3073400Y5994400D02*
D03*
Y6527800D02*
D03*
D11*
X7315200Y4305300D02*
D03*
Y3771900D02*
D03*
D12*
X6415117Y3356425D02*
D03*
X6565117D02*
D03*
X6411472Y3215009D02*
D03*
X6561472D02*
D03*
X2739725Y3086699D02*
D03*
X2889724D02*
D03*
X2719000Y4330700D02*
D03*
X2869000D02*
D03*
X5970200Y3276600D02*
D03*
X6120200D02*
D03*
X4939100Y3035300D02*
D03*
X4789100D02*
D03*
X3366700Y4699000D02*
D03*
X3516700Y4699000D02*
D03*
X3796100D02*
D03*
X3646100D02*
D03*
X5307400Y3987800D02*
D03*
X5157400D02*
D03*
X3506400Y4546600D02*
D03*
X3656400D02*
D03*
X3493700Y3962400D02*
D03*
X3643700D02*
D03*
X4939100Y3263900D02*
D03*
X4789100D02*
D03*
X3828930Y3256306D02*
D03*
X3978930D02*
D03*
X3542100Y2717800D02*
D03*
X3392100D02*
D03*
X3542100Y2870200D02*
D03*
X3392100D02*
D03*
X7062400Y5003800D02*
D03*
X7212400D02*
D03*
D13*
X5276600Y3836100D02*
D03*
X5086600D02*
D03*
X5276600Y3606100D02*
D03*
X5086600D02*
D03*
D14*
X5308600Y5269900D02*
D03*
Y4559900D02*
D03*
X4419600Y5269900D02*
D03*
Y4559900D02*
D03*
D15*
X6756400Y4140200D02*
D03*
X5829300Y4152900D02*
D03*
Y3924300D02*
D03*
Y3505200D02*
D03*
Y3733800D02*
D03*
X6756400Y3492500D02*
D03*
Y3721100D02*
D03*
Y3911600D02*
D03*
D16*
X4117545Y7007655D02*
D03*
X4188256Y6936944D02*
D03*
X3838144Y7020356D02*
D03*
X3908855Y6949645D02*
D03*
D17*
X4017800Y6270200D02*
D03*
D18*
X3612799Y6125200D02*
D03*
X3612800Y6415200D02*
D03*
D19*
X3390301Y6741699D02*
D03*
X3440300D02*
D03*
X3490300Y6741700D02*
D03*
X3540300Y6741700D02*
D03*
X3590300D02*
D03*
X3640300Y6741700D02*
D03*
X3690300D02*
D03*
X3740300D02*
D03*
X3790300D02*
D03*
X3840300Y6741700D02*
D03*
X3890300D02*
D03*
X3940300D02*
D03*
X3990300D02*
D03*
X4040300D02*
D03*
X4090300Y6741701D02*
D03*
X4140300Y6741700D02*
D03*
X4190300D02*
D03*
X4240299Y6741700D02*
D03*
X4240300Y5798700D02*
D03*
X4190300Y5798700D02*
D03*
X4140300D02*
D03*
X4090300D02*
D03*
X4040300D02*
D03*
X3990300D02*
D03*
X3940300D02*
D03*
X3890300D02*
D03*
X3840300D02*
D03*
X3790300Y5798700D02*
D03*
X3740300Y5798700D02*
D03*
X3690300D02*
D03*
X3640300D02*
D03*
X3590300Y5798700D02*
D03*
X3540300D02*
D03*
X3490300D02*
D03*
X3440300Y5798700D02*
D03*
X3390300D02*
D03*
D20*
X6427800Y2895600D02*
D03*
X6627800Y2801600D02*
D03*
D21*
Y2989600D02*
D03*
D22*
X6299200Y5295700D02*
D03*
X6756400D02*
D03*
D23*
X6527800Y4635700D02*
D03*
D24*
X4015944Y5451044D02*
D03*
X4086655Y5521755D02*
D03*
D25*
X2717100Y3568400D02*
D03*
Y3848400D02*
D03*
D26*
X3137100Y3533400D02*
D03*
X3137100Y3583400D02*
D03*
Y3633400D02*
D03*
Y3683400D02*
D03*
Y3733400D02*
D03*
X3137100Y3783400D02*
D03*
Y3833400D02*
D03*
Y3883400D02*
D03*
D27*
X3137100Y3398400D02*
D03*
Y3473400D02*
D03*
Y3943400D02*
D03*
Y4018400D02*
D03*
D28*
X4109985Y3089790D02*
D03*
X4059985D02*
D03*
X4009985D02*
D03*
Y2994790D02*
D03*
X4059985D02*
D03*
X4109985D02*
D03*
D29*
X7048500Y3297200D02*
D03*
Y3197200D02*
D03*
Y3097200D02*
D03*
Y2997200D02*
D03*
D30*
X7436000Y2867200D02*
D03*
Y3427200D02*
D03*
D31*
X4660400Y3269800D02*
D03*
X4610400D02*
D03*
X4560400D02*
D03*
X4510400D02*
D03*
X4460400Y3269800D02*
D03*
X4410400D02*
D03*
X4360400Y3269800D02*
D03*
X4310400D02*
D03*
X4260400D02*
D03*
X4210400D02*
D03*
X4160400D02*
D03*
X4110400D02*
D03*
Y4074800D02*
D03*
X4160400Y4074800D02*
D03*
X4210400D02*
D03*
X4260400D02*
D03*
X4310400Y4074800D02*
D03*
X4360400D02*
D03*
X4410400Y4074800D02*
D03*
X4460400D02*
D03*
X4510400D02*
D03*
X4560400D02*
D03*
X4610400D02*
D03*
X4660400Y4074800D02*
D03*
D32*
X3982900Y3397300D02*
D03*
X3982900Y3447300D02*
D03*
Y3497300D02*
D03*
Y3547300D02*
D03*
Y3597300D02*
D03*
Y3647300D02*
D03*
Y3697300D02*
D03*
X3982900Y3747300D02*
D03*
X3982900Y3797300D02*
D03*
Y3847300D02*
D03*
Y3897300D02*
D03*
X3982900Y3947300D02*
D03*
X4787900D02*
D03*
Y3897300D02*
D03*
Y3847300D02*
D03*
Y3797300D02*
D03*
Y3747300D02*
D03*
Y3697300D02*
D03*
Y3647300D02*
D03*
Y3597300D02*
D03*
Y3547300D02*
D03*
Y3497300D02*
D03*
Y3447300D02*
D03*
X4787900Y3397300D02*
D03*
D33*
X6273800Y2805500D02*
D03*
Y2655500D02*
D03*
Y2985700D02*
D03*
Y3135700D02*
D03*
X5448300Y3707200D02*
D03*
Y3557200D02*
D03*
X3822700Y4215200D02*
D03*
Y4065200D02*
D03*
X4838700Y4253300D02*
D03*
Y4103300D02*
D03*
X3975100Y4215200D02*
D03*
Y4065200D02*
D03*
X5067300Y3252400D02*
D03*
Y3402400D02*
D03*
X4991100Y4253300D02*
D03*
Y4103300D02*
D03*
X3035300Y4636700D02*
D03*
Y4786700D02*
D03*
Y5269300D02*
D03*
Y5119300D02*
D03*
D34*
X6050400Y3111500D02*
D03*
Y2984500D02*
D03*
Y2857500D02*
D03*
Y2730500D02*
D03*
X5557400D02*
D03*
Y2857500D02*
D03*
Y2984500D02*
D03*
Y3111500D02*
D03*
D35*
X3377300Y4927600D02*
D03*
X3797300D02*
D03*
D36*
X3432175Y3765300D02*
D03*
Y3670300D02*
D03*
X3432175Y3575300D02*
D03*
X3705225D02*
D03*
X3705225Y3670300D02*
D03*
Y3765300D02*
D03*
D37*
X6299200Y4164900D02*
D03*
D38*
X6528200Y3505900D02*
D03*
X6299200D02*
D03*
D39*
X6070200D02*
D03*
D40*
X5880600Y5029200D02*
D03*
X6070600D02*
D03*
X5975600Y5229200D02*
D03*
D41*
X7412100Y4737100D02*
D03*
X7015100D02*
D03*
D42*
X4673600Y6515100D02*
D03*
X4445000D02*
D03*
X4673600Y6261100D02*
D03*
X4445000D02*
D03*
D43*
X5447343Y2629857D02*
X5448300Y2628900D01*
X5307643Y2629857D02*
X5447343D01*
X5181600Y2755900D02*
X5307643Y2629857D01*
X4711700Y2755900D02*
X5181600D01*
X6565117Y3205982D02*
Y3356425D01*
X6553822Y3495678D02*
Y3506122D01*
X6781800Y3720700D02*
Y3721100D01*
X6559986Y3200851D02*
X6565117Y3205982D01*
X6559986Y3114030D02*
Y3200851D01*
X6562617Y3358925D02*
X6565117Y3356425D01*
X6540700Y3483400D02*
X6562617Y3461483D01*
X6540700Y3483400D02*
Y3495678D01*
X6562617Y3358925D02*
Y3461483D01*
X6803900Y3698600D02*
X6819010D01*
X6781800Y3720700D02*
X6803900Y3698600D01*
X6819010D02*
X7088610Y3429000D01*
X7150100D01*
X7226300Y3111500D02*
Y3352800D01*
X7150100Y3429000D02*
X7226300Y3352800D01*
D44*
X4709787Y6478913D02*
X4785987D01*
X4787900Y6477000D01*
X4673600Y6515100D02*
X4709787Y6478913D01*
X4718600Y6575100D02*
X4781694D01*
X4785194Y6578600D02*
X4787900D01*
X4673600Y6515100D02*
Y6530100D01*
X4718600Y6575100D01*
X4781694D02*
X4785194Y6578600D01*
X4673600Y6257213D02*
X4718600Y6212213D01*
X4785987D01*
X4787900Y6210300D01*
X4673600Y6257213D02*
Y6261100D01*
Y6276100D02*
X4718600Y6321100D01*
X4735187Y6322687D02*
X4785987D01*
X4673600Y6261100D02*
Y6276100D01*
X4718600Y6321100D02*
X4733600D01*
X4735187Y6322687D01*
X4785987D02*
X4787900Y6324600D01*
X4108063Y7005245D02*
X4115134D01*
X4064145Y7049162D02*
X4108063Y7005245D01*
X4115134D02*
X4117545Y7007655D01*
X4061439Y7049162D02*
X4064145D01*
X3456313Y4486513D02*
X3506400Y4536600D01*
X3456313Y4459613D02*
Y4486513D01*
X3454400Y4457700D02*
X3456313Y4459613D01*
X3506400Y4536600D02*
Y4546600D01*
X3147687Y4239887D02*
X3149600Y4241800D01*
X3147687Y4177355D02*
Y4239887D01*
X3110732Y4140400D02*
X3147687Y4177355D01*
X2768600Y4584700D02*
X2792410D01*
X3366700Y4418400D02*
Y4515906D01*
X2792410Y4584700D02*
X2861204Y4515906D01*
X3366700D02*
Y4699000D01*
X2861204Y4515906D02*
X3366700D01*
X3542100Y2870200D02*
X3747088D01*
X3841038Y2964151D01*
X3978930Y3246306D02*
Y3256306D01*
X3937000Y3073400D02*
Y3204376D01*
X3978930Y3246306D01*
X3813930Y3171033D02*
Y3241306D01*
X3828930Y3256306D01*
X3345971Y3671090D02*
X3427030D01*
X3345181Y3671881D02*
X3345971Y3671090D01*
X3427030D02*
X3429998Y3668123D01*
X6629400Y4178300D02*
X6631313Y4176387D01*
X6675065Y4175200D02*
X6721400D01*
X6631313Y4176387D02*
X6673879D01*
X6675065Y4175200D01*
X6709887Y4116713D02*
X6721400Y4105200D01*
X6631313Y4116713D02*
X6709887D01*
X6629400Y4114800D02*
X6631313Y4116713D01*
X6721400Y4105200D02*
X6756400Y4140200D01*
X6721400Y4175200D02*
X6756400Y4140200D01*
X4620352Y2603348D02*
X4690653Y2673649D01*
X3225800Y2692400D02*
X3314852Y2603348D01*
X4620352D01*
X3225800Y2692400D02*
Y3021494D01*
X3586097Y3381791D02*
Y3509897D01*
X3225800Y3021494D02*
X3586097Y3381791D01*
X4690653Y2734853D02*
X4711700Y2755900D01*
X4690653Y2673649D02*
Y2734853D01*
X3586097Y3509897D02*
Y3713427D01*
X3542100Y2717800D02*
X3632200D01*
X3366700Y4418400D02*
X3505200Y4279900D01*
X5829300Y3733800D02*
X5854700D01*
X5626100D02*
X5829300D01*
X5626100Y3454400D02*
Y3733800D01*
X4406900Y4229100D02*
X4687565D01*
X2628900Y4724400D02*
X2768600Y4584700D01*
X3505200Y4279900D02*
X3719900Y4065200D01*
X4823700Y4118300D02*
X4838700Y4103300D01*
X4687565Y4229100D02*
X4798365Y4118300D01*
X4823700D01*
X5116600Y3636100D02*
Y3660634D01*
X5163925Y3707959D01*
X5086600Y3606100D02*
X5116600Y3636100D01*
X5067838Y3252938D02*
X5203971D01*
X5204509Y3253476D01*
X5067300Y3252400D02*
X5067838Y3252938D01*
X5061550Y3258150D02*
X5067300Y3252400D01*
X3949700Y2755900D02*
X3987800Y2794000D01*
Y2870200D01*
X3911600Y2794000D02*
Y2870200D01*
Y2794000D02*
X3949700Y2755900D01*
X3138100Y3397400D02*
X3229294D01*
X3235794Y3390900D01*
X3238500D01*
X3137100Y3398400D02*
X3138100Y3397400D01*
X3111445Y3276400D02*
X3148400Y3239445D01*
Y3176200D02*
Y3239445D01*
X3099600Y3276400D02*
X3111445D01*
X3148400Y3176200D02*
X3149600Y3175000D01*
X3074600Y3251400D02*
X3099600Y3276400D01*
X3074600Y3176200D02*
Y3251400D01*
X3073400Y3175000D02*
X3074600Y3176200D01*
X2641600Y3086100D02*
X2641899Y3086399D01*
X2739425D02*
X2739725Y3086699D01*
X2641899Y3086399D02*
X2739425D01*
X2792087Y3313355D02*
Y3376287D01*
X2717100Y3276400D02*
X2755132D01*
X2792087Y3313355D01*
Y3376287D02*
X2794000Y3378200D01*
X2717450Y3276750D02*
Y3377850D01*
X2717100Y3276400D02*
X2717450Y3276750D01*
Y3377850D02*
X2717800Y3378200D01*
X2643513Y3313355D02*
Y3376287D01*
X2680468Y3276400D02*
X2717100D01*
X2643513Y3313355D02*
X2680468Y3276400D01*
X2641600Y3378200D02*
X2643513Y3376287D01*
X3137708Y4019007D02*
X3236221D01*
X3137100Y4018400D02*
X3137708Y4019007D01*
X3236221D02*
X3236828Y4019615D01*
X3099600Y4140400D02*
X3110732D01*
X3062613Y4177355D02*
X3099568Y4140400D01*
X3099600D01*
X3062613Y4177355D02*
Y4239887D01*
X3060700Y4241800D02*
X3062613Y4239887D01*
X2804787Y4027813D02*
Y4096065D01*
Y4027813D02*
X2806700Y4025900D01*
X2717100Y4140400D02*
X2760452D01*
X2804787Y4096065D01*
X2729300Y4027100D02*
X2730500Y4025900D01*
X2717100Y4140400D02*
X2729300Y4128200D01*
Y4027100D02*
Y4128200D01*
X2655500Y4027100D02*
Y4103445D01*
X2654300Y4025900D02*
X2655500Y4027100D01*
X2692455Y4140400D02*
X2717100D01*
X2655500Y4103445D02*
X2692455Y4140400D01*
X2628900Y4330700D02*
X2719000D01*
X3377300Y4927600D02*
X3492500D01*
X4673600Y6511213D02*
Y6515100D01*
X6400117Y3331425D02*
X6415117Y3346425D01*
X6390117Y3331425D02*
X6400117D01*
X6326513Y3303913D02*
X6362605D01*
X6415117Y3346425D02*
Y3356425D01*
X6362605Y3303913D02*
X6390117Y3331425D01*
X6324600Y3302000D02*
X6326513Y3303913D01*
X6273800Y3135700D02*
Y3213100D01*
X6412486Y3125214D02*
Y3213995D01*
Y3125214D02*
X6413500Y3124200D01*
X6411472Y3215009D02*
X6412486Y3213995D01*
X6427800Y2895600D02*
X6515100D01*
X5929013Y2779387D02*
X5977900Y2730500D01*
X5918200Y2781300D02*
X5920113Y2779387D01*
X5977900Y2730500D02*
X6050400D01*
X5920113Y2779387D02*
X5929013D01*
X4939100Y3035300D02*
X5016500D01*
X4939100Y3263900D02*
X4944850Y3258150D01*
X5061550D01*
X5971706Y3467100D02*
X5975506Y3470900D01*
X5969000Y3467100D02*
X5971706D01*
X6035200Y3470900D02*
X6070200Y3505900D01*
X5975506Y3470900D02*
X6035200D01*
X5969600Y3277200D02*
Y3390300D01*
X5969000Y3390900D02*
X5969600Y3390300D01*
Y3277200D02*
X5970200Y3276600D01*
X5843187Y3505200D02*
X5878187Y3470200D01*
Y3392813D02*
X5880100Y3390900D01*
X5829300Y3505200D02*
X5843187D01*
X5878187Y3392813D02*
Y3470200D01*
X5793113D02*
X5828113Y3505200D01*
X5791200Y3390900D02*
X5793113Y3392813D01*
X5828113Y3505200D02*
X5829300D01*
X5793113Y3392813D02*
Y3470200D01*
X5436200Y3707800D02*
X5536600D01*
X5435600Y3707200D02*
X5436200Y3707800D01*
X5536600D02*
X5537200Y3708400D01*
X5307400Y3987800D02*
X5384800D01*
X2766474Y5321300D02*
X2781300D01*
X2628900Y5183726D02*
X2766474Y5321300D01*
X2628900Y4724400D02*
Y5183726D01*
X3719900Y4065200D02*
X3822700D01*
X3580727Y3850940D02*
X3586097Y3845570D01*
X3375360Y3850940D02*
X3580727D01*
X3137100Y3943400D02*
X3282900D01*
X3375360Y3850940D01*
X3549600Y3473400D02*
X3586097Y3509897D01*
X3137100Y3473400D02*
X3549600D01*
X3628700Y3888173D02*
Y3947400D01*
X3586097Y3713427D02*
Y3845570D01*
X3628700Y3888173D01*
X3615387Y3684138D02*
X3704087D01*
X3586097Y3713427D02*
X3615387Y3684138D01*
X3704087D02*
X3705225Y3683000D01*
X3628700Y3947400D02*
X3643700Y3962400D01*
X5626100Y3733800D02*
Y3958510D01*
X5481311Y4103300D02*
X5626100Y3958510D01*
X4991100Y4103300D02*
X5481311D01*
X5067300Y3402400D02*
X5574100D01*
X5626100Y3454400D01*
D45*
X2648760Y4492683D02*
X2697299Y4444145D01*
X2640642Y4492683D02*
X2648760D01*
X2697299Y4444145D02*
X3171955D01*
X3643700Y3972400D01*
Y3962400D02*
Y3972400D01*
X2946400Y3910328D02*
Y4117521D01*
X2869000Y4194921D02*
X2946400Y4117521D01*
Y3910328D02*
X2973865Y3882862D01*
X4089400Y4394200D02*
Y5410209D01*
Y4394200D02*
X4260400Y4223200D01*
X4089400Y5410209D02*
X4190523Y5511331D01*
X4165600Y4419600D02*
X4310400Y4274800D01*
Y4074800D02*
Y4274800D01*
X4165600Y4419600D02*
Y5395312D01*
X3771900Y3949700D02*
X3780018D01*
X3818258Y3911460D02*
X3860940D01*
X3780018Y3949700D02*
X3818258Y3911460D01*
X3860940D02*
X3875100Y3897300D01*
X3982900D01*
X3729473Y3884700D02*
X3766873Y3847300D01*
X3721355Y3884700D02*
X3729473D01*
X3766873Y3847300D02*
X3982900D01*
X3663360Y4539640D02*
X3753460D01*
X3759200Y4533900D01*
X3656400Y4546600D02*
X3663360Y4539640D01*
X4533900Y3759200D02*
Y3924300D01*
X4667599Y3785426D02*
X4703225Y3749800D01*
X4725400D01*
X4533900Y3759200D02*
X4595800Y3697300D01*
X4787900D01*
X4667599Y3785426D02*
Y3804986D01*
X4661859Y3810726D02*
X4667599Y3804986D01*
X6301308Y3482608D02*
X6324600Y3505900D01*
X4013296Y5361782D02*
X4030501Y5378987D01*
X4015944Y5429831D02*
Y5451044D01*
X4030501Y5378987D02*
Y5415274D01*
X4015944Y5429831D02*
X4030501Y5415274D01*
X4013296Y5353664D02*
Y5361782D01*
X2667000Y5600700D02*
X2971800D01*
X3213100Y5359400D01*
X3822700D01*
X2654300Y6870700D02*
X3217938D01*
X3364058Y7016820D01*
X3834609D01*
X4610250Y3269950D02*
Y3403450D01*
Y3269950D02*
X4610400Y3269800D01*
X4610100Y3403600D02*
X4610250Y3403450D01*
X3416300Y3962400D02*
X3493700D01*
X4059985Y3089790D02*
Y3147856D01*
X4047473Y3160368D02*
X4059985Y3147856D01*
X4047473Y3160368D02*
Y3168485D01*
X2936630Y5269140D02*
X3035140D01*
X3035300Y5269300D01*
X2936470Y5268980D02*
X2936630Y5269140D01*
X2934300Y4636100D02*
X3034700D01*
X2933700Y4635500D02*
X2934300Y4636100D01*
X3034700D02*
X3035300Y4636700D01*
X4165600Y5395312D02*
X4203588Y5433300D01*
X4220982Y5448300D02*
X4229100D01*
X4203588Y5433300D02*
X4205982D01*
X4220982Y5448300D01*
X4190523Y5511331D02*
Y5626577D01*
X4260400Y4074800D02*
Y4223200D01*
X3392100Y2717800D02*
Y2870200D01*
X6144474Y3300874D02*
X6205599D01*
X6301308Y3396583D02*
Y3482608D01*
X6205599Y3300874D02*
X6301308Y3396583D01*
X6120200Y3276600D02*
X6144474Y3300874D01*
X6120200Y3123000D02*
Y3276600D01*
X5829300Y2707360D02*
X5897655Y2639005D01*
X5829300Y2707360D02*
Y3024405D01*
X5897655Y2639005D02*
X6257305D01*
X5829300Y3024405D02*
X5914556Y3109661D01*
X6048561D01*
X5390626Y2730500D02*
X5557400D01*
X5239938Y2881188D02*
X5390626Y2730500D01*
X4510212Y2881188D02*
X5239938D01*
X4360400Y3031000D02*
X4510212Y2881188D01*
X4410400Y3082600D02*
X4549943Y2943057D01*
X5241757D01*
X5398700Y3100000D01*
X5545900D01*
X2894400Y3086100D02*
X2901843Y3093543D01*
Y3536843D02*
X2946400Y3581400D01*
X2901843Y3093543D02*
Y3536843D01*
X2946400Y3581400D02*
X2984500D01*
X2973865Y3882862D02*
X3009900D01*
X2869000Y4194921D02*
Y4330700D01*
X2935079Y5119300D02*
X3035300D01*
X2781300Y5067300D02*
X2807071Y5093071D01*
X2908850D01*
X2935079Y5119300D01*
X2933700Y4787900D02*
X3034100D01*
X3035300Y4786700D01*
X2896150Y4825450D02*
X2933700Y4787900D01*
X2768600Y4838700D02*
X2781850Y4825450D01*
X2896150D01*
X4343400Y6667500D02*
X4368800Y6692900D01*
X4210400Y4074800D02*
Y4184300D01*
X3924300Y4470400D02*
X4210400Y4184300D01*
X3978930Y3256306D02*
Y3394800D01*
X3924300Y5525450D02*
X3986850Y5588000D01*
X3924300Y4470400D02*
Y5525450D01*
X3984747Y4074847D02*
X4107900D01*
X3975100Y4065200D02*
X3984747Y4074847D01*
X3822700Y4065200D02*
X3975100D01*
X3808800Y4926400D02*
X3810000Y4927600D01*
X3808800Y4699000D02*
Y4926400D01*
X3651250Y4551750D02*
Y4693850D01*
X3646100Y4699000D02*
X3651250Y4693850D01*
Y4551750D02*
X3656400Y4546600D01*
X3516700Y4699000D02*
X3646100D01*
X6842100Y3197200D02*
X7048500D01*
X6634500Y2989600D02*
X6842100Y3197200D01*
X6551600Y2989600D02*
X6634500D01*
X6547700Y2985700D02*
X6551600Y2989600D01*
X6932600Y3097200D02*
X7048500D01*
X6551600Y2801600D02*
X6637000D01*
X6932600Y3097200D01*
X4410400Y3082600D02*
Y3269800D01*
X4360400Y3031000D02*
Y3269800D01*
X5545900Y3100000D02*
X5557400Y3111500D01*
X4870075Y3797300D02*
X4914900Y3842125D01*
X4787900Y3797300D02*
X4870075D01*
X4848700Y4103300D02*
X4991100D01*
X4838700D02*
X4848700D01*
X4914900Y4037100D01*
Y3842125D02*
Y4037100D01*
X6273800Y2985700D02*
X6623900D01*
X6273800Y2805500D02*
X6275750Y2803550D01*
X6625850D01*
X6549650D02*
X6551600Y2801600D01*
X6211800Y2857500D02*
X6263800Y2805500D01*
X6273800D01*
X6050400Y2857500D02*
X6211800D01*
X6051000Y2985100D02*
X6273200D01*
X6273800Y2985700D01*
X6050400Y2984500D02*
X6051000Y2985100D01*
X6108700Y3111500D02*
X6120200Y3123000D01*
X6050400Y3111500D02*
X6108700D01*
X6257305Y2639005D02*
X6273800Y2655500D01*
D46*
X4460600Y3121300D02*
X4544700Y3037200D01*
X4789100D01*
X3733800Y3162300D02*
Y3365500D01*
Y3162300D02*
X3950500Y2945600D01*
X4014000D01*
X3975700Y4215800D02*
X4063400D01*
X4064000Y4216400D01*
X3975100Y4215200D02*
X3975700Y4215800D01*
X3822100D02*
X3822700Y4215200D01*
X3721700Y4215800D02*
X3822100D01*
X3721100Y4216400D02*
X3721700Y4215800D01*
X4160600Y3942000D02*
Y4074600D01*
X4160400Y4074800D02*
X4160600Y4074600D01*
Y3942000D02*
X4165600Y3937000D01*
X3983100Y3447100D02*
X4122100D01*
X4127500Y3441700D01*
X3982900Y3447300D02*
X3983100Y3447100D01*
X3903778D02*
X3982700D01*
X3828930Y3372253D02*
X3903778Y3447100D01*
X3828930Y3256306D02*
Y3372253D01*
X3982700Y3447100D02*
X3982900Y3447300D01*
X4788100Y3397500D02*
X5052400D01*
X5057300Y3402400D01*
X5007700Y3352800D02*
X5052400Y3397500D01*
X4868000Y3352800D02*
X5007700D01*
X4789100Y3263900D02*
Y3273900D01*
X4868000Y3352800D01*
X5057300Y3402400D02*
X5067300D01*
X4787900Y3397300D02*
X4788100Y3397500D01*
X4011332Y2945600D02*
X4175632Y2781300D01*
X4216400D01*
X4011332Y2945600D02*
Y2982871D01*
X4110600Y3205000D02*
X4110796Y3204804D01*
Y3098327D02*
Y3204804D01*
X3733800Y3365500D02*
X3865400Y3497100D01*
X3982700D01*
X3982900Y3497300D01*
X4460600Y3121300D02*
Y3269600D01*
X4444041Y2805377D02*
Y2845759D01*
X4114000Y3095500D02*
X4194300D01*
X4468118Y2781300D02*
X4470400D01*
X4194300Y3095500D02*
X4444041Y2845759D01*
Y2805377D02*
X4468118Y2781300D01*
X4660600Y3238500D02*
X4763700D01*
X4789100Y3263900D01*
X4660400Y3238700D02*
X4660600Y3238500D01*
X4660400Y3238700D02*
Y3269800D01*
X4460400Y3269800D02*
X4460600Y3269600D01*
D47*
X3821293Y3624300D02*
X3835400D01*
X3786299Y3589306D02*
X3821293Y3624300D01*
X3719230Y3589306D02*
X3786299D01*
X3705225Y3575300D02*
X3719230Y3589306D01*
X3821293Y3716300D02*
X3835400D01*
X3719231Y3751295D02*
X3786299D01*
X3705225Y3765300D02*
X3719231Y3751295D01*
X3786299D02*
X3821293Y3716300D01*
X4068284Y3592584D02*
X4136000D01*
X4145394Y3601978D02*
X4222954D01*
X4258957Y3565975D01*
X4295325D01*
X4305300Y3556000D01*
X4230271Y3500921D02*
Y3537289D01*
X4152804Y3552016D02*
X4162198Y3561409D01*
X4065002Y3595866D02*
X4068284Y3592584D01*
X4068283Y3552016D02*
X4152804D01*
X3984334Y3548734D02*
X4065002D01*
X3982900Y3597300D02*
X3984334Y3595866D01*
X4230271Y3500921D02*
X4240246Y3490946D01*
X4136000Y3592584D02*
X4145394Y3601978D01*
X4206150Y3561409D02*
X4230271Y3537289D01*
X4162198Y3561409D02*
X4206150D01*
X4065002Y3548734D02*
X4068283Y3552016D01*
X3982900Y3547300D02*
X3984334Y3548734D01*
Y3595866D02*
X4065002D01*
X3136666Y3782966D02*
X3137100Y3783400D01*
X3136666Y3633834D02*
X3137100Y3633400D01*
X3075175Y3782966D02*
X3136666D01*
X3053166Y3760956D02*
X3075175Y3782966D01*
X3053166Y3655844D02*
X3075175Y3633834D01*
X3136666D01*
X3053166Y3655844D02*
Y3760956D01*
X3139011Y3685311D02*
Y3731489D01*
X3422308Y3585168D02*
X3432175Y3575300D01*
X3341477Y3585168D02*
X3422308D01*
X3286148Y3640497D02*
X3341477Y3585168D01*
X3260679Y3638116D02*
X3263061Y3640497D01*
X3203307Y3638116D02*
X3260679D01*
X3199025Y3633834D02*
X3203307Y3638116D01*
X3137534Y3633834D02*
X3199025D01*
X3263949Y3681066D02*
X3341477Y3758594D01*
X3425469D01*
X3243875Y3678685D02*
X3246257Y3681066D01*
X3199025Y3682966D02*
X3203306Y3678685D01*
X3246257Y3681066D02*
X3263949D01*
X3137534Y3682966D02*
X3199025D01*
X3263061Y3640497D02*
X3286148D01*
X3137100Y3683400D02*
X3137534Y3682966D01*
X3203306Y3678685D02*
X3243875D01*
X3425469Y3758594D02*
X3432175Y3765300D01*
X3137100Y3633400D02*
X3137534Y3633834D01*
D48*
X4445000Y5956300D02*
Y6248400D01*
X4443810Y5491560D02*
Y5878910D01*
X4445000Y5880100D02*
Y5956300D01*
X4432036Y5479786D02*
X4443810Y5491560D01*
X4432300Y6261100D02*
Y6487400D01*
Y6261100D02*
X4445000Y6248400D01*
X6324600Y3505900D02*
Y3911600D01*
Y4164900D01*
X6624479Y3721100D02*
X6781800D01*
X4673600Y6276100D02*
Y6511213D01*
X4432036Y5282336D02*
Y5479786D01*
X4419600Y5269900D02*
X4432036Y5282336D01*
X4457700Y5269900D02*
X5308600D01*
X5761484D01*
X5763803Y5267582D01*
X5973282D02*
X5975600Y5269900D01*
X5763803Y5267582D02*
X5973282D01*
X5975600Y5269900D02*
X6274200D01*
X6756400Y3721100D02*
Y3911600D01*
X5829300Y3733800D02*
Y3924300D01*
X6781400Y5195700D02*
X6972963Y5004137D01*
X7045461D01*
X6781400Y5195700D02*
Y5270700D01*
X6756400Y5295700D02*
X6781400Y5270700D01*
X6527800Y4635700D02*
X6629200Y4737100D01*
X7015100D01*
X5854700Y3924300D02*
X6311900D01*
X6324600Y3911600D01*
X3073400Y5981700D02*
X3114901Y6023201D01*
Y6030001D01*
X3173400Y6088500D02*
X3488700D01*
X3114901Y6023201D02*
X3116999D01*
X3114901Y6030001D02*
X3173400Y6088500D01*
X3488700D02*
X3504500Y6072700D01*
X3504499Y6449189D02*
Y6467700D01*
X3135704Y6447358D02*
X3484158D01*
X3504499Y6467700D01*
X3555300Y6415200D02*
X3612800D01*
X3073400Y6515100D02*
X3111996D01*
X3503650Y6466850D02*
X3555300Y6415200D01*
X3111996Y6471066D02*
X3135704Y6447358D01*
X4399338Y6454438D02*
X4445000Y6500100D01*
X4017800Y6455825D02*
X4126100D01*
X4127487Y6454438D02*
X4399338D01*
X4445000Y6500100D02*
Y6515100D01*
X6274200Y5269900D02*
X6299200Y5294900D01*
Y5295700D01*
X6553822Y3506122D02*
Y3650443D01*
X6624479Y3721100D01*
D49*
X2594770Y5672930D02*
X2667000Y5600700D01*
X2594770Y6811170D02*
X2654300Y6870700D01*
X2594770Y5672930D02*
Y6811170D01*
X3834609Y7016820D02*
X3838144Y7020356D01*
X4594399Y3162300D02*
X4594936Y3161764D01*
X4592796Y3162300D02*
X4594399D01*
X4560400Y3269800D02*
X4561357Y3268843D01*
Y3193739D02*
X4592796Y3162300D01*
X4594936Y3161764D02*
X5244564D01*
X4561357Y3193739D02*
Y3268843D01*
X5244564Y3161764D02*
X5321300Y3238500D01*
X3440299Y5651837D02*
X3440300D01*
X3487800Y5699337D01*
Y5796200D01*
X3490300Y5798700D02*
X3540300D01*
X3487800Y5796200D02*
X3490300Y5798700D01*
X3540300D02*
X3590300D01*
X3690300D01*
X3392800Y5699336D02*
X3440299Y5651837D01*
X3392800Y6857021D02*
X3411526Y6875746D01*
X3437810D02*
X3445464Y6883400D01*
X3392800Y6744200D02*
Y6857021D01*
X3411526Y6875746D02*
X3437810D01*
X3464159D02*
X3487800Y6852105D01*
X3441700Y6883400D02*
X3449354Y6875746D01*
X3487800Y6821200D02*
Y6852105D01*
X3449354Y6875746D02*
X3464159D01*
X3490300Y6741700D02*
Y6818700D01*
X3487800Y6821200D02*
X3490300Y6818700D01*
Y6741700D02*
X3690300D01*
X3390300Y6741699D02*
X3392800Y6744200D01*
X5429906Y3562894D02*
X5435600Y3557200D01*
X5276600Y3606100D02*
X5319806Y3562894D01*
X5429906D01*
X5277857Y3118857D02*
X5346700Y3187700D01*
X4564643Y3118857D02*
X5277857D01*
X4511356Y3172144D02*
X4564643Y3118857D01*
X3135100Y3581400D02*
X3137100Y3583400D01*
X2984500Y3581400D02*
X3135100D01*
X3009900Y3882862D02*
X3136562D01*
X3421789Y6449189D02*
X3440300Y6467700D01*
X3744050Y6737950D02*
X3747800Y6741700D01*
X3740300Y6734200D02*
X3744050Y6737950D01*
X3890300Y6741700D02*
X3940300D01*
X3840300D02*
X3890300D01*
X3440300Y6467700D02*
Y6741699D01*
X4279900Y6604000D02*
X4343400Y6667500D01*
X4131137Y6604000D02*
X4279900D01*
X4092800Y6642337D02*
X4131137Y6604000D01*
X4090300Y6741701D02*
X4092800Y6739201D01*
Y6642337D02*
Y6739201D01*
X3912391Y6953181D02*
X3940675D01*
X3944649Y6957154D02*
X4028346D01*
X3908855Y6949645D02*
X3912391Y6953181D01*
X4028346Y6957154D02*
X4140300Y6845200D01*
X3940675Y6953181D02*
X3944649Y6957154D01*
X4184720Y6943224D02*
X4190300Y6937644D01*
Y6741700D02*
Y6937644D01*
X4086655Y5523109D02*
X4120121Y5556574D01*
Y5664702D02*
X4137800Y5682382D01*
X4086655Y5521755D02*
Y5523109D01*
X4120121Y5556574D02*
Y5664702D01*
X4190300Y5626800D02*
X4190523Y5626577D01*
X4137800Y5796200D02*
X4140300Y5798700D01*
X4137800Y5682382D02*
Y5796200D01*
X4190300Y5626800D02*
Y5798700D01*
X5740400Y2895600D02*
Y3175000D01*
X5321300Y3238500D02*
X5676900D01*
X5740400Y3175000D01*
X4511356Y3172144D02*
Y3268843D01*
X4510400Y3269800D02*
X4511356Y3268843D01*
X5346700Y3187700D02*
X5649126D01*
X5696442Y3140384D01*
X5684726Y2984500D02*
X5696442Y2996216D01*
Y3140384D01*
X5557400Y2857500D02*
X5702300D01*
X5740400Y2895600D01*
X5557400Y2984500D02*
X5684726D01*
X5160800Y3977800D02*
X5170100D01*
X5130800Y3880300D02*
Y3947800D01*
X5086600Y3836100D02*
X5130800Y3880300D01*
Y3947800D02*
X5160800Y3977800D01*
X5170100D02*
Y3987800D01*
X5076267Y3807667D02*
X5095650Y3827050D01*
X5211800Y3497300D02*
X5283200Y3568700D01*
X5076267Y3755751D02*
Y3807667D01*
X4868773Y3548257D02*
X5076267Y3755751D01*
X4788857Y3548257D02*
X4868773D01*
X4787900Y3547300D02*
X4788857Y3548257D01*
X4787900Y3497300D02*
X5211800D01*
X4184720Y6937644D02*
Y6943224D01*
X4140300Y6741700D02*
Y6845200D01*
X3986850Y5588000D02*
X4090300Y5691450D01*
Y5798700D01*
X3740300Y5798700D02*
X3940300Y5798700D01*
X4037800Y5699337D02*
Y5796199D01*
X3942800Y5699337D02*
X3962936Y5679200D01*
X3940300Y5798700D02*
X3942800Y5796200D01*
X4037800Y5796199D02*
X4040300Y5798700D01*
X4017663Y5679200D02*
X4037800Y5699337D01*
X3962936Y5679200D02*
X4017663D01*
X3942800Y5699337D02*
Y5796200D01*
X3440300Y6008500D02*
X3504500Y6072700D01*
X3440300Y5798700D02*
X3440300Y6008500D01*
X3390300Y5798700D02*
X3392800Y5796200D01*
Y5699336D02*
Y5796200D01*
X3740300Y5798700D02*
Y6053500D01*
X3940300Y5798700D02*
X3940300D01*
X3990300Y6242700D02*
X4017800Y6270200D01*
X3990300Y5798700D02*
Y6242700D01*
X3721100Y6072700D02*
X3740300Y6053500D01*
X3690300Y6741700D02*
X3690300Y6741700D01*
X3940300Y6741700D02*
X3942800Y6744200D01*
Y6841063D01*
X3962936Y6861200D01*
X4017663D01*
X4037800Y6841064D01*
Y6744200D02*
Y6841064D01*
Y6744200D02*
X4040301Y6741700D01*
X3990300Y6483325D02*
Y6741700D01*
X3790300Y6741700D02*
X3840300Y6741700D01*
X3740300Y6486900D02*
Y6734200D01*
X3747800Y6741700D02*
X3790300Y6741700D01*
X3721100Y6467700D02*
X3740300Y6486900D01*
D50*
X6756400Y3492500D02*
X6781800D01*
X6862357Y3488758D02*
X6872082Y3498483D01*
X6858000Y3390900D02*
X6862357Y3395257D01*
Y3488758D01*
X6795429Y3497911D02*
X6871510D01*
X6781800Y3347631D02*
Y3470900D01*
X6858000Y3390900D02*
X6934200D01*
X6832231Y3297200D02*
X7048500D01*
X6781800Y3347631D02*
X6832231Y3297200D01*
X7226300Y3048000D02*
Y3111500D01*
X7175500Y2997200D02*
X7226300Y3048000D01*
X7048500Y2997200D02*
X7175500D01*
D51*
X2768600Y7099300D02*
D03*
X2806700Y2781300D02*
D03*
X4622800Y7099300D02*
D03*
X7315200Y5321300D02*
D03*
D52*
X2768600Y4838700D02*
D03*
X2781300Y5067300D02*
D03*
D53*
X2768600Y4584700D02*
D03*
X2781300Y5321300D02*
D03*
D54*
X3504500Y6072700D02*
D03*
X3612799D02*
D03*
X3721100Y6072700D02*
D03*
X3504500Y6362700D02*
D03*
X3612800Y6362700D02*
D03*
X3721100Y6362700D02*
D03*
Y6177700D02*
D03*
X3504500Y6177700D02*
D03*
X3721100Y6467700D02*
D03*
X3504499Y6467700D02*
D03*
X3612799Y6177700D02*
D03*
X3612800Y6467700D02*
D03*
X3909500Y6084575D02*
D03*
Y6208325D02*
D03*
X3909499Y6332075D02*
D03*
Y6455825D02*
D03*
X4017800Y6084575D02*
D03*
Y6208325D02*
D03*
Y6332075D02*
D03*
Y6455825D02*
D03*
X4126100Y6084574D02*
D03*
Y6208325D02*
D03*
X4126100Y6332075D02*
D03*
Y6455825D02*
D03*
D55*
X3027100Y3408400D02*
D03*
D56*
Y4008400D02*
D03*
D57*
X2717100Y3276400D02*
D03*
Y4140400D02*
D03*
D58*
X3099600Y3276400D02*
D03*
Y4140400D02*
D03*
D59*
X4711700Y2755900D02*
D03*
X4457700D02*
D03*
X4203700D02*
D03*
D60*
X3949700D02*
D03*
D61*
X5448300Y2628900D02*
D03*
X4240246Y3490946D02*
D03*
X4305300Y3556000D02*
D03*
X3835400Y3716300D02*
D03*
Y3624300D02*
D03*
X6559986Y3114030D02*
D03*
D62*
X4787900Y6477000D02*
D03*
Y6578600D02*
D03*
X6896100Y4445000D02*
D03*
Y4533900D02*
D03*
X6972300D02*
D03*
Y4445000D02*
D03*
X7061200Y3962400D02*
D03*
Y3873500D02*
D03*
X6972300Y3911600D02*
D03*
Y4000500D02*
D03*
Y4356100D02*
D03*
Y4267200D02*
D03*
Y4178300D02*
D03*
Y4089400D02*
D03*
X4061439Y7049162D02*
D03*
X2640642Y4492683D02*
D03*
X2654300Y5613400D02*
D03*
X3149600Y4241800D02*
D03*
X5435600Y3403600D02*
D03*
X3841038Y2964151D02*
D03*
X3813930Y3171033D02*
D03*
X3937000Y3073400D02*
D03*
X3771900Y3949700D02*
D03*
X3721355Y3884700D02*
D03*
X3345181Y3671881D02*
D03*
X3759200Y4533900D02*
D03*
X4533900Y3924300D02*
D03*
X4661859Y3810726D02*
D03*
X6629400Y4178300D02*
D03*
Y4114800D02*
D03*
X3632200Y2717800D02*
D03*
X4572000Y5626100D02*
D03*
X4635500Y5562600D02*
D03*
X4699000Y5499100D02*
D03*
Y5410200D02*
D03*
X4597400D02*
D03*
X4445000Y5880100D02*
D03*
Y5956300D02*
D03*
X3505200Y4279900D02*
D03*
X4064000Y4216400D02*
D03*
X4406900Y4229100D02*
D03*
X4013296Y5353664D02*
D03*
X3822700Y5359400D02*
D03*
X4165600Y3937000D02*
D03*
X4127500Y3441700D02*
D03*
X4610100Y3403600D02*
D03*
X5165838Y3709872D02*
D03*
X5204509Y3253476D02*
D03*
X4047473Y3168485D02*
D03*
X4787900Y6324600D02*
D03*
Y6210300D02*
D03*
X6872082Y3498483D02*
D03*
X5689600Y4775200D02*
D03*
X5765800Y4851400D02*
D03*
Y4775200D02*
D03*
X5842000D02*
D03*
Y4851400D02*
D03*
Y4927600D02*
D03*
X5765800D02*
D03*
X5689600Y4851400D02*
D03*
X3416300Y3962400D02*
D03*
X7454900Y4572000D02*
D03*
X7366000D02*
D03*
X7454900Y4902200D02*
D03*
X7366000D02*
D03*
X7289800Y4876800D02*
D03*
Y4648200D02*
D03*
Y4724400D02*
D03*
Y4800600D02*
D03*
X6934200Y3390900D02*
D03*
X6858000D02*
D03*
X5918200Y2781300D02*
D03*
X6515100Y2895600D02*
D03*
X6413500Y3124200D02*
D03*
X6273800Y3213100D02*
D03*
X6324600Y3302000D02*
D03*
X5969000Y3467100D02*
D03*
Y3390900D02*
D03*
X5880100D02*
D03*
X5791200D02*
D03*
X5016500Y3035300D02*
D03*
X5384800Y3987800D02*
D03*
X5537200Y3708400D02*
D03*
X3721100Y4216400D02*
D03*
X3987800Y2870200D02*
D03*
X3911600D02*
D03*
X2641600Y3086100D02*
D03*
X3238500Y3390900D02*
D03*
X3149600Y3175000D02*
D03*
X3073400D02*
D03*
X2794000Y3378200D02*
D03*
X2717800D02*
D03*
X2641600D02*
D03*
X3236828Y4019615D02*
D03*
X3060700Y4241800D02*
D03*
X2717100Y3568400D02*
D03*
Y3848400D02*
D03*
X2806700Y4025900D02*
D03*
X2730500D02*
D03*
X2654300D02*
D03*
X2628900Y4330700D02*
D03*
X3492500Y4927600D02*
D03*
X3454400Y4457700D02*
D03*
X5763803Y5267582D02*
D03*
X5764459Y5337846D02*
D03*
X5765800Y5410200D02*
D03*
Y5194300D02*
D03*
X4457700Y6388100D02*
D03*
X5969000Y4305300D02*
D03*
Y4229100D02*
D03*
Y4152900D02*
D03*
X5612053Y4773087D02*
D03*
X5523153D02*
D03*
X5078653D02*
D03*
X4711700Y4800600D02*
D03*
X4622800D02*
D03*
X4533900D02*
D03*
X4445000D02*
D03*
X5434253Y4773087D02*
D03*
X5345353D02*
D03*
X5256453D02*
D03*
X5167553D02*
D03*
X4978400Y4445000D02*
D03*
X4902200D02*
D03*
X4826000D02*
D03*
X4978400Y4368800D02*
D03*
X4902200D02*
D03*
X4826000D02*
D03*
X5626100Y4254500D02*
D03*
X5359400Y4330700D02*
D03*
X5270500D02*
D03*
X5181600D02*
D03*
X5092700D02*
D03*
X5537200Y4254500D02*
D03*
X5448300D02*
D03*
X5359400D02*
D03*
X5270500D02*
D03*
X5181600D02*
D03*
X5092700D02*
D03*
X3441700Y6883400D02*
D03*
X3515339Y6884062D02*
D03*
X3591539D02*
D03*
X3667739D02*
D03*
X3666196Y5648691D02*
D03*
X3589996D02*
D03*
X3513796D02*
D03*
X3437596D02*
D03*
X2933700Y4635500D02*
D03*
X2936470Y5268980D02*
D03*
X4368800Y6692900D02*
D03*
X4229100Y5448300D02*
D03*
X7167391Y3819509D02*
D03*
X7256291D02*
D03*
Y4441809D02*
D03*
Y4264009D02*
D03*
X7167391Y4175109D02*
D03*
X7345191Y3819509D02*
D03*
X7434091D02*
D03*
X7256291Y3908409D02*
D03*
X7434091Y3641709D02*
D03*
Y4352909D02*
D03*
X7345191D02*
D03*
X7167391D02*
D03*
Y3908409D02*
D03*
X7345191D02*
D03*
X7167391Y3641709D02*
D03*
X7345191Y4264009D02*
D03*
X7434091Y4175109D02*
D03*
Y3908409D02*
D03*
Y3730609D02*
D03*
X7256291Y3641709D02*
D03*
X7434091Y4441809D02*
D03*
X7345191Y3730609D02*
D03*
X7434091Y4264009D02*
D03*
X7256291Y4352909D02*
D03*
Y3730609D02*
D03*
Y4175109D02*
D03*
X7167391Y3730609D02*
D03*
X7345191Y3641709D02*
D03*
Y4175109D02*
D03*
X7167391Y4264009D02*
D03*
Y4441809D02*
D03*
X7345191D02*
D03*
X3192269Y6111283D02*
D03*
Y6022383D02*
D03*
X3116999Y6023201D02*
D03*
X3188196Y6471066D02*
D03*
X3188196Y6559966D02*
D03*
X4406900Y5130800D02*
D03*
X4508500D02*
D03*
X4597400D02*
D03*
X4686300D02*
D03*
X4775200D02*
D03*
X4978400D02*
D03*
X5511800D02*
D03*
X5422900D02*
D03*
X5334000D02*
D03*
X5245100D02*
D03*
X5156200D02*
D03*
X5067300D02*
D03*
X6448999Y5152222D02*
D03*
X6451600Y5245100D02*
D03*
Y5334000D02*
D03*
Y5422900D02*
D03*
X6070600Y5410200D02*
D03*
X5969000D02*
D03*
X5880100D02*
D03*
X4800600D02*
D03*
X5156200D02*
D03*
X5067300D02*
D03*
X4978400D02*
D03*
X4889500D02*
D03*
X2962291Y5846591D02*
D03*
X2962292Y5935491D02*
D03*
X2962291Y6024391D02*
D03*
Y6113291D02*
D03*
X3038491Y5846591D02*
D03*
X3038492Y5935491D02*
D03*
X3038491Y6024391D02*
D03*
Y6113291D02*
D03*
X3114691Y5846591D02*
D03*
X3114692Y5935491D02*
D03*
X3114691Y6113291D02*
D03*
X3190891Y5846591D02*
D03*
X3190892Y5935491D02*
D03*
X2959596Y6559966D02*
D03*
X3111996D02*
D03*
X3035796Y6471066D02*
D03*
X3188196Y6382166D02*
D03*
X2959596Y6471066D02*
D03*
X3111996D02*
D03*
X3035796Y6382166D02*
D03*
X3188196Y6648866D02*
D03*
X2959596Y6382166D02*
D03*
X3111996D02*
D03*
X3035796Y6648866D02*
D03*
X2959596D02*
D03*
X3111996D02*
D03*
X3035796Y6559966D02*
D03*
%TF.MD5,06d866a9316935006c257e8271a23557*%
M02*
