M48
;Layer_Color=9474304
;FILE_FORMAT=4:4
METRIC,LZ
;TYPE=PLATED
T01F00S00C0.3000
T02F00S00C0.4000
T04F00S00C1.0160
T05F00S00C1.1000
T06F00S00C3.2000
%
T01
X0026416Y0030861
Y0033782
X0027178
X002794
X0027171Y0035684
Y0038484
X00334518Y00367188
X0034163Y0039624
X0037719Y0039497
X00372136Y0038847
X0038354Y0037163
Y0036243
X00381393Y00317103
X003937Y0030734
X00384104Y00296415
X0039116Y0028702
X0036322Y0027178
X0031496Y003175
X0030734
X0032385Y0033909
X0041275Y0034417
X00424025Y00349095
X0043053Y003556
X0046101Y0034036
X00466186Y00381073
X0045339Y0039243
X0041656Y003937
X00404747Y00316849
X0039878Y0028702
X0050165Y0030353
X00520451Y00325348
X0054356Y0034036
X0057912Y0033909
X0058801
X005969
Y0034671
X0063246Y003302
X0062738Y0032131
X0064135Y0031242
X0065151Y0028956
X0059182Y0027813
X0055372Y0037084
X00516584Y00370987
X00687208Y00349848
X006858Y0033909
X0069342
X00716739Y00364171
X00725629
Y00373061
Y00381951
X00716739
Y00390841
X00725629
X00734519
Y00381951
X00743409
Y00390841
Y00373061
Y00364171
X00734519
Y00373061
X00716739
X0070612Y0038735
Y0039624
X0069723Y0039116
Y0040005
Y0040894
Y0041783
Y0042672
Y0043561
Y004445
X0068961
Y0045339
X0069723
X00716739Y00444181
X00725629
Y00435291
Y00426401
X00734519
Y00435291
X00743409
Y00444181
X00734519
X007366Y004572
X0074549
X0072898Y0046482
Y0047244
Y0048006
Y0048768
X007366Y0049022
X0074549
X00743409Y00426401
Y00417511
X00734519
X00725629
X00716739
Y00426401
Y00435291
X0066294Y0041783
Y0041148
X005969Y0041529
Y0042291
Y0043053
X0056261Y0042545
X0055372
X0054483
X0053594
Y0043307
X0052705
Y0042545
X0051816
Y0043307
X0050927
Y0042545
X0049784Y0043688
Y004445
X0049022
X004826
Y0043688
X0049022
X00507865Y00477309
X00516755
X00525645
X00534535
X00543425
X00552315
X00561205
X0056896Y0047752
X0057658
Y0048514
X005842
Y0047752
Y0049276
X0057658
X0056896Y0048514
X0057658Y0051943
X0057638Y00526758
X00576446Y00533785
X0057658Y0054102
X0058801
X005969
X0060706
X0064516Y0054229
Y005334
Y0052451
X006449Y00515222
X0055118Y0051308
X0054229
X005334
X0052451
X0051562
X0050673
X0049784
X0047752
X0046863
X0045974
X0045085
X0044069
X004445Y0048006
X0045339
X0046228
X0047117
X004699Y0054102
Y0054991
X0046355Y0055626
X004572Y0056261
X0045974Y0054102
X0048006
X0048895
X0049784
X0050673
X0051562
X0042291Y0054483
X0040133Y00535366
X0040178Y00608457
X0041261Y00608457
Y00620832
X0040178Y00620832
Y00633208
X0041261Y00633208
Y00645583
X0040178Y00645583
X0044577Y0063881
X0047879Y0063246
Y0062103
Y006477
Y0065786
X0043688Y0066929
X00406144Y00704916
X004445Y0059563
Y0058801
X0044069Y0042291
X004064Y0042164
X0053848Y0039878
X0037211Y0042164
X0035052Y0042799
X0034544Y0044577
X0037592Y0045339
X0034925Y0049276
X0035138Y00564869
X00359
X0036662
X0034376
X00319089Y00584659
X00311469
X00303849
X00296229
X00296229Y00593549
X00303849
X00311469
X00319089
X00319227Y00602238
X003117Y0060232
X00303849Y00602439
X00296229
Y00611329
X00303849
X00311469
X00319227Y00611128
X0031882Y00638217
X003112
X0030358
X0029596
X0029596Y00647107
X0030358
X003112
X0031882
X0031882Y00655997
X003112
X0030358
X0029596
Y00664887
X0030358
X003112
X0031882
X0034417Y0068834
X00351534Y00688406
X00359154
X00366774
X0037211Y0064677
Y0063627
X0036128Y0063627
Y0064677
X0035045Y0064677
X0035045Y0063627
X0035045Y0061777
X0035045Y0060727
X0036128
Y0061777
X0037211Y0061777
Y0060727
X0039095Y00608457
Y00620832
X0039095Y00633208
Y00645583
X0038227Y0053594
X00293647Y00526898
X0026543Y0056134
X00264064Y00449268
X0026289Y0043307
X0026543Y0040259
X0027305
X0028067
X00323683Y00401962
X0031496Y0042418
X0030607
X0029337Y0046355
T02
X0054483Y0026289
X00655999Y00311403
T04
X0027686Y0045847
Y0048387
X0027813Y0050673
Y0053213
T05
X0039497Y0027559
X0042037
X0044577
X0047117
T06
X0028067Y0027813
X0046228Y0070993
X0073152Y0053213
X0027686Y0070993
M30
