M48
;Layer_Color=9474304
;FILE_FORMAT=4:4
METRIC,LZ
;TYPE=PLATED
T01F00S00C0.2000
T02F00S00C0.3000
T03F00S00C0.4000
T05F00S00C1.1000
T06F00S00C3.1000
%
T01
X0097537Y0091255
Y0092355
X0098637
Y0091255
T02
X01207982Y00684334
X01214107Y00736921
X0121031Y0077597
X0120031
X01220184Y00775639
X01158723Y00777418
X01156183Y00764718
X01163844Y00755264
X0116362Y007483
X0116337Y0072555
X0114037Y007248
X01107296Y00755997
X01097027Y00766813
X0108387Y007688
X01106935Y00786137
X0103487Y0074505
X0102037Y0074955
X0101137
X00974067Y00749725
X0097917Y0072898
X0099412Y0069505
X0100287Y006953
X0099287Y006778
X0105537Y0067564
X0104587Y0069005
X01073917Y0068968
X01089373Y00689385
X01110095Y00655041
X01171679Y00655359
X0117212Y006473
Y006393
X0118162
Y006473
Y0065555
X0105887Y0071455
X0093726Y0075438
X009271Y0076962
X00918506Y00775649
X0096393Y0080264
X0098298
X0101852Y0080095
X01043998Y00811472
X01050498Y00806594
X01070491Y00828913
X0109728Y0081807
Y0081007
X0110871Y0084963
X0110212Y0086905
X0108662Y008698
X0109474Y0089916
X0106787Y009123
X0102837Y008943
X0102012Y008728
X0103387Y0086955
X01001745Y00882675
X00959862Y00881209
X0095587Y0089705
X0092312Y008878
X0091812Y0087805
X0095787Y008543
Y008423
X0096774Y0083312
X0094488Y0082677
X0093112Y009413
X0101437Y009218
X0114808Y0090551
Y0089789
Y0089027
X01164164Y00861987
X01176649
X01158723Y00839648
X01144585Y00814014
X0118999Y008255
X0120937Y0082255
X01210596Y00805511
X01200596
X0120937Y0079455
X0122047Y0080518
X01217877Y00841113
X01210257
X01202636
X01198921Y00878684
X01213681Y00878445
T03
X00939608Y00673678
X0111537Y0068505
X0107569Y0093091
T05
X0109093Y0094361
X0111633
X0114173
X0116713
T06
X0120902Y0064343
X0089787
Y0095458
X0120775Y0095331
M30
